<svg xmlns="http://www.w3.org/2000/svg" xmlns:xlink="http://www.w3.org/1999/xlink" width="500" zoomAndPan="magnify" viewBox="0 0 375 374.999991" height="500" preserveAspectRatio="xMidYMid meet" version="1.0"><defs><g/><clipPath id="5e798d6234"><path d="M 126.351562 88.136719 L 248.601562 88.136719 L 248.601562 187.136719 L 126.351562 187.136719 Z M 126.351562 88.136719 " clip-rule="nonzero"/></clipPath><clipPath id="a1d3531773"><path d="M 233.839844 142.652344 C 233.839844 138.582031 237.144531 135.304688 241.230469 135.304688 C 245.316406 135.304688 248.601562 138.601562 248.601562 142.652344 C 248.601562 146.726562 245.296875 150 241.230469 150 C 239.957031 150 238.742188 149.679688 237.695312 149.109375 L 232.375 156.914062 C 233.628906 158.011719 234.429688 159.621094 234.429688 161.4375 C 234.429688 164.753906 231.730469 167.441406 228.40625 167.441406 C 225.078125 167.441406 222.382812 164.753906 222.382812 161.4375 C 222.382812 159.167969 223.65625 157.179688 225.535156 156.175781 L 224.035156 152.386719 C 223.691406 152.464844 223.332031 152.5 222.972656 152.5 C 220.328125 152.5 218.203125 150.359375 218.203125 147.746094 C 218.203125 145.117188 220.347656 142.976562 222.972656 142.976562 C 223.40625 142.976562 223.84375 143.03125 224.242188 143.144531 L 227.339844 136.292969 C 226.582031 135.703125 226.085938 134.796875 226.085938 133.773438 C 226.085938 132.011719 227.511719 130.589844 229.277344 130.589844 C 230.058594 130.589844 230.761719 130.855469 231.3125 131.328125 L 236.859375 127.125 C 236.460938 126.40625 236.234375 125.554688 236.234375 124.664062 C 236.234375 123.1875 236.878906 121.84375 237.886719 120.914062 L 234.464844 115.894531 C 233.820312 116.199219 233.097656 116.371094 232.339844 116.371094 C 230.550781 116.371094 228.992188 115.421875 228.140625 114.023438 L 222.933594 116.199219 C 222.933594 116.273438 222.953125 116.351562 222.953125 116.40625 C 222.953125 117.601562 222.078125 118.585938 220.9375 118.773438 L 220.234375 123.8125 C 221.984375 124.359375 223.238281 125.988281 223.238281 127.902344 C 223.238281 130.269531 221.296875 132.199219 218.921875 132.199219 C 217.328125 132.199219 215.941406 131.328125 215.179688 130.042969 L 209.003906 132.3125 C 209.003906 132.332031 209.003906 132.351562 209.003906 132.390625 C 209.003906 133.660156 207.980469 134.679688 206.707031 134.679688 C 206.574219 134.679688 206.421875 134.664062 206.289062 134.644531 L 203.152344 140.324219 C 203.53125 140.664062 203.855469 141.082031 204.066406 141.554688 L 212.730469 139.738281 C 212.863281 138.601562 213.832031 137.710938 215.007812 137.710938 C 216.28125 137.710938 217.308594 138.734375 217.308594 140.003906 C 217.308594 141.175781 216.414062 142.140625 215.277344 142.273438 L 212.730469 154.394531 C 215.425781 155.265625 217.367188 157.785156 217.367188 160.757812 C 217.367188 164.449219 214.363281 167.460938 210.640625 167.460938 C 210.527344 167.460938 210.410156 167.460938 210.296875 167.460938 L 209.289062 173.671875 C 210.203125 174.089844 210.847656 175.015625 210.847656 176.097656 C 210.847656 177.308594 210.050781 178.3125 208.949219 178.652344 L 209.042969 183.347656 C 209.746094 183.613281 210.257812 184.3125 210.257812 185.109375 C 210.257812 186.152344 209.40625 187.003906 208.359375 187.003906 C 207.3125 187.003906 206.460938 186.152344 206.460938 185.109375 C 206.460938 184.921875 206.496094 184.730469 206.554688 184.542969 L 203.230469 181.777344 C 202.8125 182.0625 202.296875 182.230469 201.726562 182.230469 C 200.265625 182.230469 199.085938 181.058594 199.085938 179.597656 C 199.085938 178.558594 199.695312 177.667969 200.570312 177.230469 L 200 174.089844 C 199.960938 174.089844 199.902344 174.089844 199.867188 174.089844 C 197.207031 174.089844 195.039062 171.929688 195.039062 169.277344 C 195.039062 166.628906 197.207031 164.46875 199.867188 164.46875 C 201.140625 164.46875 202.277344 164.960938 203.132812 165.757812 L 204.976562 164.296875 C 204.3125 163.257812 203.933594 162.042969 203.933594 160.71875 C 203.933594 159.449219 204.292969 158.257812 204.921875 157.234375 L 200.207031 153.636719 C 199.847656 153.882812 199.410156 154.035156 198.933594 154.035156 C 198.421875 154.035156 197.945312 153.863281 197.566406 153.582031 L 194.582031 155.644531 C 195.117188 156.609375 195.402344 157.707031 195.402344 158.882812 C 195.402344 162.632812 192.359375 165.660156 188.597656 165.660156 C 185.40625 165.660156 182.746094 163.484375 182.003906 160.53125 L 176.914062 161.230469 C 176.855469 163.636719 174.878906 165.566406 172.449219 165.566406 C 169.976562 165.566406 167.984375 163.578125 167.984375 161.117188 C 167.984375 158.65625 169.976562 156.667969 172.449219 156.667969 C 172.902344 156.667969 173.339844 156.742188 173.738281 156.855469 L 179.175781 145.890625 C 177.789062 144.964844 176.835938 143.449219 176.667969 141.707031 L 172.183594 141.554688 C 171.859375 142.390625 171.0625 142.976562 170.109375 142.976562 C 169.863281 142.976562 169.636719 142.9375 169.40625 142.863281 L 165.816406 147.5 C 166.9375 148.601562 167.621094 150.113281 167.621094 151.800781 C 167.621094 155.132812 164.90625 157.839844 161.5625 157.839844 C 158.75 157.839844 156.375 155.910156 155.691406 153.316406 L 151.527344 153.863281 C 151.453125 156.230469 149.496094 158.144531 147.101562 158.144531 C 144.648438 158.144531 142.675781 156.175781 142.675781 153.730469 C 142.675781 151.421875 144.460938 149.527344 146.742188 149.339844 L 147.140625 144.492188 C 146.339844 144.148438 145.789062 143.355469 145.789062 142.425781 C 145.789062 141.195312 146.796875 140.171875 148.050781 140.171875 C 148.335938 140.171875 148.582031 140.230469 148.832031 140.304688 L 157.324219 129.890625 C 157.113281 129.550781 156.980469 129.132812 156.980469 128.699219 C 156.980469 128.089844 157.230469 127.542969 157.609375 127.144531 L 156.296875 124.605469 C 155.632812 124.851562 154.929688 124.984375 154.1875 124.984375 C 153.125 124.984375 152.117188 124.703125 151.261719 124.230469 L 146.152344 131.292969 C 146.683594 131.878906 147.007812 132.675781 147.007812 133.546875 C 147.007812 135.402344 145.484375 136.917969 143.625 136.917969 C 143.246094 136.917969 142.863281 136.859375 142.523438 136.726562 L 137.183594 145.398438 C 138.398438 146.382812 139.160156 147.878906 139.160156 149.566406 C 139.160156 152.539062 136.746094 154.945312 133.761719 154.945312 C 130.78125 154.945312 128.367188 152.539062 128.367188 149.566406 C 128.367188 147.140625 129.980469 145.097656 132.1875 144.414062 L 131.769531 141.859375 C 131.730469 141.859375 131.710938 141.859375 131.671875 141.859375 C 128.898438 141.859375 126.65625 139.625 126.65625 136.859375 C 126.65625 134.113281 128.878906 131.878906 131.636719 131.859375 L 131.9375 129.644531 C 128.726562 128.867188 126.332031 125.96875 126.332031 122.523438 C 126.332031 118.492188 129.621094 115.214844 133.667969 115.214844 C 137.03125 115.214844 139.882812 117.46875 140.734375 120.554688 L 148.128906 119.25 C 148.128906 119.132812 148.128906 119.039062 148.128906 118.925781 C 148.128906 117.902344 148.394531 116.9375 148.832031 116.085938 L 143.378906 112.28125 C 142.769531 112.847656 141.953125 113.1875 141.058594 113.1875 C 139.179688 113.1875 137.640625 111.65625 137.640625 109.78125 C 137.640625 107.90625 139.179688 106.371094 141.058594 106.371094 C 142.941406 106.371094 144.480469 107.90625 144.480469 109.78125 C 144.480469 110.253906 144.382812 110.6875 144.214844 111.085938 L 149.667969 114.894531 C 150.445312 114.023438 151.492188 113.378906 152.648438 113.074219 L 152.628906 107.5625 C 150.578125 107.222656 149.019531 105.460938 149.019531 103.324219 C 149.019531 100.957031 150.957031 99.023438 153.332031 99.023438 C 154.738281 99.023438 155.976562 99.6875 156.753906 100.710938 L 163.652344 97.109375 C 163.480469 96.601562 163.386719 96.070312 163.386719 95.5 C 163.386719 92.792969 165.589844 90.578125 168.324219 90.578125 C 171.042969 90.578125 173.265625 92.773438 173.265625 95.5 C 173.265625 97.300781 172.296875 98.890625 170.832031 99.742188 L 173.113281 105.347656 C 173.472656 105.273438 173.835938 105.214844 174.234375 105.214844 C 175.128906 105.214844 175.980469 105.460938 176.703125 105.898438 L 181.871094 99.648438 C 180.695312 98.4375 179.953125 96.789062 179.953125 94.972656 C 179.953125 91.277344 182.957031 88.269531 186.679688 88.269531 C 190.386719 88.269531 193.40625 91.261719 193.40625 94.972656 C 193.40625 96.617188 192.796875 98.132812 191.808594 99.289062 L 196.941406 104.667969 C 197.242188 104.515625 197.585938 104.441406 197.945312 104.441406 C 198.042969 104.441406 198.136719 104.441406 198.214844 104.457031 L 200.949219 98.570312 C 199.828125 97.792969 199.085938 96.503906 199.085938 95.027344 C 199.085938 92.660156 201.023438 90.730469 203.398438 90.730469 C 205.773438 90.730469 207.714844 92.660156 207.714844 95.027344 C 207.714844 95.558594 207.617188 96.070312 207.449219 96.523438 L 211.796875 99.042969 C 212.882812 97.621094 214.609375 96.695312 216.53125 96.695312 C 219.816406 96.695312 222.476562 99.347656 222.476562 102.621094 C 222.476562 103.417969 222.324219 104.175781 222.039062 104.855469 L 228.460938 108.433594 C 229.355469 107.28125 230.761719 106.523438 232.355469 106.523438 C 235.074219 106.523438 237.277344 108.71875 237.277344 111.425781 C 237.277344 112.847656 236.671875 114.136719 235.703125 115.023438 L 239.121094 120.042969 C 239.785156 119.722656 240.546875 119.53125 241.34375 119.53125 C 244.15625 119.53125 246.4375 121.804688 246.4375 124.605469 C 246.4375 127.410156 244.15625 129.683594 241.34375 129.683594 C 239.957031 129.683594 238.683594 129.132812 237.773438 128.222656 L 232.222656 132.429688 C 232.394531 132.824219 232.488281 133.261719 232.488281 133.714844 C 232.488281 135.476562 231.066406 136.898438 229.296875 136.898438 C 229.089844 136.898438 228.878906 136.878906 228.691406 136.839844 L 225.59375 143.695312 C 226.902344 144.546875 227.777344 146.023438 227.777344 147.691406 C 227.777344 149.433594 226.828125 150.96875 225.421875 151.800781 L 226.921875 155.585938 C 227.417969 155.453125 227.910156 155.398438 228.441406 155.398438 C 229.429688 155.398438 230.382812 155.644531 231.199219 156.0625 L 236.519531 148.257812 C 234.902344 146.914062 233.878906 144.886719 233.878906 142.617188 Z M 154.113281 112.921875 L 154.09375 107.582031 C 156.125 107.242188 157.664062 105.460938 157.664062 103.339844 C 157.664062 102.886719 157.589844 102.433594 157.457031 102.015625 L 164.355469 98.417969 C 165.246094 99.648438 166.710938 100.445312 168.34375 100.445312 C 168.742188 100.445312 169.125 100.40625 169.503906 100.3125 L 171.78125 105.917969 C 170.378906 106.75 169.425781 108.285156 169.425781 110.046875 C 169.425781 112.164062 170.8125 113.964844 172.734375 114.609375 L 171.707031 120.667969 C 171.574219 120.667969 171.441406 120.648438 171.289062 120.648438 C 167.527344 120.648438 164.488281 123.679688 164.488281 127.429688 C 164.488281 131.179688 167.527344 134.207031 171.289062 134.207031 C 174.859375 134.207031 177.789062 131.460938 178.074219 127.976562 L 182.003906 127.863281 C 182.328125 128.714844 183.144531 129.324219 184.113281 129.324219 C 184.796875 129.324219 185.40625 129.019531 185.824219 128.527344 L 190.972656 130.574219 C 190.917969 130.875 190.878906 131.179688 190.878906 131.480469 C 190.878906 133.867188 192.835938 135.816406 195.230469 135.816406 C 197.625 135.816406 199.582031 133.867188 199.582031 131.480469 C 199.582031 130.441406 199.199219 129.472656 198.59375 128.714844 L 204.046875 122.429688 C 204.996094 123.054688 206.136719 123.433594 207.351562 123.433594 C 210.640625 123.433594 213.300781 120.78125 213.300781 117.507812 C 213.300781 114.230469 210.640625 111.578125 207.351562 111.578125 C 206.117188 111.578125 204.957031 111.957031 204.007812 112.601562 L 199.941406 107.960938 C 200.152344 107.621094 200.265625 107.203125 200.265625 106.769531 C 200.265625 106.105469 199.980469 105.5 199.523438 105.066406 L 202.242188 99.175781 C 202.601562 99.269531 202.980469 99.328125 203.363281 99.328125 C 204.691406 99.328125 205.890625 98.722656 206.667969 97.773438 L 211.019531 100.292969 C 210.714844 101.011719 210.542969 101.789062 210.542969 102.621094 C 210.542969 105.898438 213.203125 108.550781 216.492188 108.550781 C 216.816406 108.550781 217.136719 108.53125 217.441406 108.472656 L 219.152344 114.363281 C 218.503906 114.796875 218.085938 115.519531 218.085938 116.351562 C 218.085938 117.316406 218.65625 118.132812 219.457031 118.527344 L 218.753906 123.566406 C 216.433594 123.640625 214.574219 125.535156 214.574219 127.863281 C 214.574219 128.128906 214.589844 128.394531 214.648438 128.660156 L 208.472656 130.933594 C 208.054688 130.402344 207.410156 130.078125 206.6875 130.078125 C 205.414062 130.078125 204.386719 131.101562 204.386719 132.371094 C 204.386719 132.976562 204.617188 133.507812 204.996094 133.925781 L 201.859375 139.605469 C 201.539062 139.511719 201.195312 139.453125 200.855469 139.453125 C 198.917969 139.453125 197.359375 141.007812 197.359375 142.9375 C 197.359375 144.871094 198.917969 146.421875 200.855469 146.421875 C 202.792969 146.421875 204.351562 144.871094 204.351562 142.9375 L 213.015625 141.101562 C 213.222656 141.441406 213.488281 141.726562 213.832031 141.914062 L 211.285156 154.035156 C 211.078125 154.015625 210.847656 153.996094 210.621094 153.996094 C 208.71875 153.996094 206.992188 154.792969 205.757812 156.0625 L 201.042969 152.464844 C 201.121094 152.234375 201.175781 151.96875 201.175781 151.722656 C 201.175781 150.457031 200.152344 149.433594 198.878906 149.433594 C 197.605469 149.433594 196.578125 150.457031 196.578125 151.722656 C 196.578125 151.953125 196.617188 152.160156 196.675781 152.367188 L 193.691406 154.433594 C 192.4375 152.992188 190.59375 152.085938 188.542969 152.085938 C 184.78125 152.085938 181.738281 155.113281 181.738281 158.863281 C 181.738281 158.9375 181.738281 159.015625 181.738281 159.070312 L 176.648438 159.773438 C 176.363281 158.84375 175.753906 158.03125 174.976562 157.480469 L 180.410156 146.515625 C 180.980469 146.707031 181.605469 146.820312 182.253906 146.820312 C 185.386719 146.820312 187.933594 144.28125 187.933594 141.15625 C 187.933594 138.035156 185.386719 135.515625 182.253906 135.515625 C 179.441406 135.515625 177.101562 137.558594 176.648438 140.25 L 172.164062 140.097656 C 171.878906 139.1875 171.042969 138.542969 170.054688 138.542969 C 168.839844 138.542969 167.832031 139.527344 167.832031 140.761719 C 167.832031 141.214844 167.964844 141.613281 168.191406 141.972656 L 164.601562 146.613281 C 163.6875 146.0625 162.625 145.757812 161.503906 145.757812 C 158.160156 145.757812 155.441406 148.46875 155.441406 151.800781 C 155.441406 151.820312 155.441406 151.855469 155.441406 151.875 L 151.28125 152.425781 C 150.824219 150.96875 149.628906 149.8125 148.128906 149.433594 L 148.527344 144.585938 C 149.515625 144.339844 150.238281 143.449219 150.238281 142.40625 C 150.238281 141.972656 150.101562 141.554688 149.894531 141.214844 L 158.386719 130.800781 C 158.636719 130.894531 158.902344 130.933594 159.167969 130.933594 C 160.421875 130.933594 161.429688 129.929688 161.429688 128.679688 C 161.429688 127.449219 160.421875 126.425781 159.167969 126.425781 C 159.054688 126.425781 158.9375 126.425781 158.84375 126.445312 L 157.53125 123.90625 C 159.128906 122.828125 160.191406 120.992188 160.191406 118.90625 C 160.191406 115.574219 157.476562 112.867188 154.132812 112.867188 C 154.09375 112.867188 154.074219 112.867188 154.054688 112.867188 Z M 173.132812 120.914062 L 174.160156 114.855469 C 174.175781 114.855469 174.214844 114.855469 174.234375 114.855469 C 175.980469 114.855469 177.503906 113.925781 178.355469 112.542969 L 185.386719 115.441406 C 185.292969 115.839844 185.234375 116.238281 185.234375 116.671875 C 185.234375 119.4375 187.476562 121.671875 190.25 121.671875 C 193.027344 121.671875 195.269531 119.4375 195.269531 116.671875 C 195.269531 115.328125 194.734375 114.117188 193.882812 113.207031 L 197.167969 108.984375 C 197.414062 109.078125 197.679688 109.117188 197.945312 109.117188 C 198.269531 109.117188 198.574219 109.058594 198.859375 108.929688 L 202.925781 113.566406 C 201.976562 114.609375 201.40625 116.011719 201.40625 117.523438 C 201.40625 119.058594 201.996094 120.441406 202.945312 121.5 L 197.492188 127.789062 C 196.824219 127.390625 196.066406 127.164062 195.230469 127.164062 C 193.652344 127.164062 192.285156 127.996094 191.503906 129.246094 L 186.355469 127.203125 C 186.355469 127.164062 186.355469 127.125 186.355469 127.089844 C 186.355469 125.839844 185.351562 124.835938 184.09375 124.835938 C 183.089844 124.835938 182.234375 125.496094 181.949219 126.425781 L 178.015625 126.539062 C 177.65625 123.832031 175.699219 121.652344 173.113281 120.914062 Z M 190.746094 100.3125 L 195.875 105.691406 C 195.703125 106.011719 195.589844 106.390625 195.589844 106.789062 C 195.589844 107.261719 195.742188 107.714844 195.988281 108.09375 L 192.703125 112.316406 C 191.980469 111.902344 191.125 111.671875 190.234375 111.671875 C 188.410156 111.671875 186.8125 112.660156 185.9375 114.097656 L 178.910156 111.179688 C 179.003906 110.820312 179.042969 110.421875 179.042969 110.027344 C 179.042969 108.796875 178.566406 107.679688 177.804688 106.824219 L 182.972656 100.578125 C 184.039062 101.277344 185.292969 101.675781 186.660156 101.675781 C 188.199219 101.675781 189.605469 101.164062 190.746094 100.292969 Z M 220.558594 114.003906 L 218.847656 108.09375 C 219.835938 107.679688 220.671875 106.996094 221.296875 106.144531 L 227.722656 109.722656 C 227.511719 110.253906 227.398438 110.839844 227.398438 111.445312 C 227.398438 111.863281 227.453125 112.261719 227.550781 112.660156 L 222.34375 114.835938 C 221.90625 114.324219 221.28125 114.003906 220.558594 113.984375 Z M 208.890625 167.195312 L 207.882812 173.40625 C 206.554688 173.558594 205.507812 174.695312 205.507812 176.058594 C 205.507812 177.308594 206.363281 178.347656 207.523438 178.652344 L 207.617188 183.347656 C 207.582031 183.367188 207.523438 183.386719 207.484375 183.40625 L 204.160156 180.640625 C 204.3125 180.320312 204.386719 179.957031 204.386719 179.582031 C 204.386719 178.214844 203.34375 177.097656 202.011719 176.96875 L 201.441406 173.824219 C 203.34375 173.179688 204.710938 171.378906 204.710938 169.277344 C 204.710938 168.40625 204.484375 167.59375 204.066406 166.894531 L 205.910156 165.433594 C 206.726562 166.25 207.75 166.875 208.910156 167.175781 Z M 150.085938 123.394531 L 144.972656 130.457031 C 144.554688 130.289062 144.097656 130.175781 143.625 130.175781 C 141.761719 130.175781 140.242188 131.691406 140.242188 133.546875 C 140.242188 134.492188 140.640625 135.363281 141.289062 135.96875 L 135.949219 144.640625 C 135.28125 144.339844 134.542969 144.1875 133.761719 144.1875 C 133.707031 144.1875 133.667969 144.1875 133.609375 144.1875 L 133.191406 141.632812 C 135.226562 140.988281 136.6875 139.09375 136.6875 136.878906 C 136.6875 134.605469 135.167969 132.691406 133.078125 132.085938 L 133.382812 129.871094 C 133.476562 129.871094 133.574219 129.871094 133.6875 129.871094 C 137.734375 129.871094 141.019531 126.59375 141.019531 122.5625 C 141.019531 122.371094 141.019531 122.203125 141.003906 122.011719 L 148.394531 120.726562 C 148.714844 121.765625 149.304688 122.695312 150.085938 123.414062 Z M 155.632812 138.128906 C 155.632812 135.761719 157.570312 133.828125 159.945312 133.828125 C 162.320312 133.828125 164.257812 135.761719 164.257812 138.128906 C 164.257812 140.496094 162.320312 142.425781 159.945312 142.425781 C 157.570312 142.425781 155.632812 140.496094 155.632812 138.128906 Z M 160.25 109.289062 C 160.25 108.039062 161.257812 107.035156 162.511719 107.035156 C 163.765625 107.035156 164.773438 108.039062 164.773438 109.289062 C 164.773438 110.519531 163.765625 111.539062 162.511719 111.539062 C 161.277344 111.539062 160.25 110.539062 160.25 109.289062 Z M 160.25 109.289062 " clip-rule="evenodd"/></clipPath><linearGradient x1="39.985145" gradientTransform="matrix(1.900062, 0, 0, 1.89366, 126.3527, 88.286868)" y1="-0.15448" x2="39.673595" gradientUnits="userSpaceOnUse" y2="52.365337" id="48c9545dd8"><stop stop-opacity="1" stop-color="rgb(28.199768%, 79.199219%, 48.999023%)" offset="0"/><stop stop-opacity="1" stop-color="rgb(28.199768%, 79.199219%, 48.999023%)" offset="0.00726688"/><stop stop-opacity="1" stop-color="rgb(28.199768%, 79.199219%, 48.999023%)" offset="0.0625"/><stop stop-opacity="1" stop-color="rgb(28.199768%, 79.199219%, 48.999023%)" offset="0.09375"/><stop stop-opacity="1" stop-color="rgb(28.199768%, 79.199219%, 48.999023%)" offset="0.109375"/><stop stop-opacity="1" stop-color="rgb(28.125%, 79.171753%, 49.116516%)" offset="0.117187"/><stop stop-opacity="1" stop-color="rgb(27.919006%, 79.093933%, 49.443054%)" offset="0.121094"/><stop stop-opacity="1" stop-color="rgb(27.787781%, 79.043579%, 49.6521%)" offset="0.125"/><stop stop-opacity="1" stop-color="rgb(27.655029%, 78.993225%, 49.861145%)" offset="0.128906"/><stop stop-opacity="1" stop-color="rgb(27.523804%, 78.944397%, 50.07019%)" offset="0.132812"/><stop stop-opacity="1" stop-color="rgb(27.391052%, 78.894043%, 50.279236%)" offset="0.136719"/><stop stop-opacity="1" stop-color="rgb(27.259827%, 78.845215%, 50.489807%)" offset="0.140625"/><stop stop-opacity="1" stop-color="rgb(27.127075%, 78.794861%, 50.698853%)" offset="0.144531"/><stop stop-opacity="1" stop-color="rgb(26.99585%, 78.746033%, 50.907898%)" offset="0.148437"/><stop stop-opacity="1" stop-color="rgb(26.863098%, 78.695679%, 51.116943%)" offset="0.152344"/><stop stop-opacity="1" stop-color="rgb(26.731873%, 78.646851%, 51.325989%)" offset="0.15625"/><stop stop-opacity="1" stop-color="rgb(26.599121%, 78.596497%, 51.535034%)" offset="0.160156"/><stop stop-opacity="1" stop-color="rgb(26.467896%, 78.547668%, 51.74408%)" offset="0.164062"/><stop stop-opacity="1" stop-color="rgb(26.335144%, 78.497314%, 51.953125%)" offset="0.167969"/><stop stop-opacity="1" stop-color="rgb(26.203918%, 78.448486%, 52.163696%)" offset="0.171875"/><stop stop-opacity="1" stop-color="rgb(26.071167%, 78.398132%, 52.372742%)" offset="0.175781"/><stop stop-opacity="1" stop-color="rgb(25.939941%, 78.349304%, 52.581787%)" offset="0.179687"/><stop stop-opacity="1" stop-color="rgb(25.80719%, 78.29895%, 52.790833%)" offset="0.183594"/><stop stop-opacity="1" stop-color="rgb(25.675964%, 78.250122%, 52.999878%)" offset="0.1875"/><stop stop-opacity="1" stop-color="rgb(25.543213%, 78.199768%, 53.208923%)" offset="0.191406"/><stop stop-opacity="1" stop-color="rgb(25.410461%, 78.15094%, 53.417969%)" offset="0.195312"/><stop stop-opacity="1" stop-color="rgb(25.27771%, 78.100586%, 53.627014%)" offset="0.199219"/><stop stop-opacity="1" stop-color="rgb(25.146484%, 78.051758%, 53.837585%)" offset="0.203125"/><stop stop-opacity="1" stop-color="rgb(25.013733%, 78.001404%, 54.046631%)" offset="0.207031"/><stop stop-opacity="1" stop-color="rgb(24.882507%, 77.952576%, 54.255676%)" offset="0.210938"/><stop stop-opacity="1" stop-color="rgb(24.749756%, 77.902222%, 54.464722%)" offset="0.214844"/><stop stop-opacity="1" stop-color="rgb(24.61853%, 77.853394%, 54.673767%)" offset="0.21875"/><stop stop-opacity="1" stop-color="rgb(24.485779%, 77.80304%, 54.882812%)" offset="0.222656"/><stop stop-opacity="1" stop-color="rgb(24.354553%, 77.754211%, 55.091858%)" offset="0.226562"/><stop stop-opacity="1" stop-color="rgb(24.221802%, 77.703857%, 55.300903%)" offset="0.230469"/><stop stop-opacity="1" stop-color="rgb(24.090576%, 77.655029%, 55.511475%)" offset="0.234375"/><stop stop-opacity="1" stop-color="rgb(23.957825%, 77.604675%, 55.72052%)" offset="0.238281"/><stop stop-opacity="1" stop-color="rgb(23.826599%, 77.555847%, 55.929565%)" offset="0.242187"/><stop stop-opacity="1" stop-color="rgb(23.693848%, 77.505493%, 56.138611%)" offset="0.246094"/><stop stop-opacity="1" stop-color="rgb(23.562622%, 77.456665%, 56.347656%)" offset="0.25"/><stop stop-opacity="1" stop-color="rgb(23.429871%, 77.406311%, 56.556702%)" offset="0.253906"/><stop stop-opacity="1" stop-color="rgb(23.298645%, 77.357483%, 56.765747%)" offset="0.257812"/><stop stop-opacity="1" stop-color="rgb(23.165894%, 77.307129%, 56.974792%)" offset="0.261719"/><stop stop-opacity="1" stop-color="rgb(23.034668%, 77.258301%, 57.185364%)" offset="0.265625"/><stop stop-opacity="1" stop-color="rgb(22.901917%, 77.207947%, 57.394409%)" offset="0.269531"/><stop stop-opacity="1" stop-color="rgb(22.770691%, 77.159119%, 57.603455%)" offset="0.273438"/><stop stop-opacity="1" stop-color="rgb(22.637939%, 77.108765%, 57.8125%)" offset="0.277344"/><stop stop-opacity="1" stop-color="rgb(22.506714%, 77.059937%, 58.021545%)" offset="0.28125"/><stop stop-opacity="1" stop-color="rgb(22.373962%, 77.009583%, 58.230591%)" offset="0.285156"/><stop stop-opacity="1" stop-color="rgb(22.242737%, 76.960754%, 58.439636%)" offset="0.289062"/><stop stop-opacity="1" stop-color="rgb(22.109985%, 76.9104%, 58.648682%)" offset="0.292969"/><stop stop-opacity="1" stop-color="rgb(21.97876%, 76.861572%, 58.857727%)" offset="0.296875"/><stop stop-opacity="1" stop-color="rgb(21.846008%, 76.811218%, 59.066772%)" offset="0.300781"/><stop stop-opacity="1" stop-color="rgb(21.714783%, 76.76239%, 59.277344%)" offset="0.304688"/><stop stop-opacity="1" stop-color="rgb(21.582031%, 76.712036%, 59.486389%)" offset="0.308594"/><stop stop-opacity="1" stop-color="rgb(21.450806%, 76.663208%, 59.695435%)" offset="0.3125"/><stop stop-opacity="1" stop-color="rgb(21.318054%, 76.612854%, 59.90448%)" offset="0.316406"/><stop stop-opacity="1" stop-color="rgb(21.186829%, 76.564026%, 60.113525%)" offset="0.320312"/><stop stop-opacity="1" stop-color="rgb(21.054077%, 76.513672%, 60.322571%)" offset="0.324219"/><stop stop-opacity="1" stop-color="rgb(20.922852%, 76.464844%, 60.531616%)" offset="0.328125"/><stop stop-opacity="1" stop-color="rgb(20.7901%, 76.41449%, 60.740662%)" offset="0.332031"/><stop stop-opacity="1" stop-color="rgb(20.658875%, 76.365662%, 60.951233%)" offset="0.335937"/><stop stop-opacity="1" stop-color="rgb(20.526123%, 76.315308%, 61.160278%)" offset="0.339844"/><stop stop-opacity="1" stop-color="rgb(20.394897%, 76.266479%, 61.369324%)" offset="0.34375"/><stop stop-opacity="1" stop-color="rgb(20.262146%, 76.216125%, 61.578369%)" offset="0.347656"/><stop stop-opacity="1" stop-color="rgb(20.13092%, 76.167297%, 61.787415%)" offset="0.351562"/><stop stop-opacity="1" stop-color="rgb(19.998169%, 76.116943%, 61.99646%)" offset="0.355469"/><stop stop-opacity="1" stop-color="rgb(19.866943%, 76.068115%, 62.205505%)" offset="0.359375"/><stop stop-opacity="1" stop-color="rgb(19.734192%, 76.017761%, 62.414551%)" offset="0.363281"/><stop stop-opacity="1" stop-color="rgb(19.602966%, 75.968933%, 62.625122%)" offset="0.367187"/><stop stop-opacity="1" stop-color="rgb(19.470215%, 75.918579%, 62.834167%)" offset="0.371094"/><stop stop-opacity="1" stop-color="rgb(19.338989%, 75.868225%, 63.043213%)" offset="0.375"/><stop stop-opacity="1" stop-color="rgb(19.206238%, 75.817871%, 63.252258%)" offset="0.378906"/><stop stop-opacity="1" stop-color="rgb(19.075012%, 75.769043%, 63.461304%)" offset="0.382812"/><stop stop-opacity="1" stop-color="rgb(18.942261%, 75.718689%, 63.670349%)" offset="0.386719"/><stop stop-opacity="1" stop-color="rgb(18.811035%, 75.669861%, 63.879395%)" offset="0.390625"/><stop stop-opacity="1" stop-color="rgb(18.678284%, 75.619507%, 64.08844%)" offset="0.394531"/><stop stop-opacity="1" stop-color="rgb(18.547058%, 75.570679%, 64.299011%)" offset="0.398438"/><stop stop-opacity="1" stop-color="rgb(18.414307%, 75.520325%, 64.508057%)" offset="0.402344"/><stop stop-opacity="1" stop-color="rgb(18.283081%, 75.471497%, 64.717102%)" offset="0.40625"/><stop stop-opacity="1" stop-color="rgb(18.15033%, 75.421143%, 64.926147%)" offset="0.410156"/><stop stop-opacity="1" stop-color="rgb(18.019104%, 75.372314%, 65.135193%)" offset="0.414062"/><stop stop-opacity="1" stop-color="rgb(17.886353%, 75.32196%, 65.344238%)" offset="0.417969"/><stop stop-opacity="1" stop-color="rgb(17.755127%, 75.273132%, 65.553284%)" offset="0.421875"/><stop stop-opacity="1" stop-color="rgb(17.622375%, 75.222778%, 65.762329%)" offset="0.425781"/><stop stop-opacity="1" stop-color="rgb(17.49115%, 75.17395%, 65.9729%)" offset="0.429687"/><stop stop-opacity="1" stop-color="rgb(17.358398%, 75.123596%, 66.181946%)" offset="0.433594"/><stop stop-opacity="1" stop-color="rgb(17.227173%, 75.074768%, 66.390991%)" offset="0.4375"/><stop stop-opacity="1" stop-color="rgb(17.094421%, 75.024414%, 66.600037%)" offset="0.441406"/><stop stop-opacity="1" stop-color="rgb(16.963196%, 74.975586%, 66.809082%)" offset="0.445312"/><stop stop-opacity="1" stop-color="rgb(16.830444%, 74.925232%, 67.018127%)" offset="0.449219"/><stop stop-opacity="1" stop-color="rgb(16.699219%, 74.876404%, 67.227173%)" offset="0.453125"/><stop stop-opacity="1" stop-color="rgb(16.566467%, 74.82605%, 67.436218%)" offset="0.457031"/><stop stop-opacity="1" stop-color="rgb(16.435242%, 74.777222%, 67.64679%)" offset="0.460938"/><stop stop-opacity="1" stop-color="rgb(16.30249%, 74.726868%, 67.855835%)" offset="0.464844"/><stop stop-opacity="1" stop-color="rgb(16.171265%, 74.67804%, 68.06488%)" offset="0.46875"/><stop stop-opacity="1" stop-color="rgb(16.038513%, 74.627686%, 68.273926%)" offset="0.472656"/><stop stop-opacity="1" stop-color="rgb(15.907288%, 74.578857%, 68.482971%)" offset="0.476562"/><stop stop-opacity="1" stop-color="rgb(15.774536%, 74.528503%, 68.692017%)" offset="0.480469"/><stop stop-opacity="1" stop-color="rgb(15.643311%, 74.479675%, 68.901062%)" offset="0.484375"/><stop stop-opacity="1" stop-color="rgb(15.510559%, 74.429321%, 69.110107%)" offset="0.488281"/><stop stop-opacity="1" stop-color="rgb(15.379333%, 74.380493%, 69.319153%)" offset="0.492187"/><stop stop-opacity="1" stop-color="rgb(15.246582%, 74.330139%, 69.528198%)" offset="0.496094"/><stop stop-opacity="1" stop-color="rgb(15.115356%, 74.281311%, 69.73877%)" offset="0.5"/><stop stop-opacity="1" stop-color="rgb(14.982605%, 74.230957%, 69.947815%)" offset="0.503906"/><stop stop-opacity="1" stop-color="rgb(14.851379%, 74.182129%, 70.15686%)" offset="0.507812"/><stop stop-opacity="1" stop-color="rgb(14.718628%, 74.131775%, 70.365906%)" offset="0.511719"/><stop stop-opacity="1" stop-color="rgb(14.587402%, 74.082947%, 70.574951%)" offset="0.515625"/><stop stop-opacity="1" stop-color="rgb(14.454651%, 74.032593%, 70.783997%)" offset="0.519531"/><stop stop-opacity="1" stop-color="rgb(14.323425%, 73.983765%, 70.993042%)" offset="0.523437"/><stop stop-opacity="1" stop-color="rgb(14.190674%, 73.933411%, 71.202087%)" offset="0.527344"/><stop stop-opacity="1" stop-color="rgb(14.059448%, 73.884583%, 71.412659%)" offset="0.53125"/><stop stop-opacity="1" stop-color="rgb(13.926697%, 73.834229%, 71.621704%)" offset="0.535156"/><stop stop-opacity="1" stop-color="rgb(13.795471%, 73.7854%, 71.83075%)" offset="0.539062"/><stop stop-opacity="1" stop-color="rgb(13.66272%, 73.735046%, 72.039795%)" offset="0.542969"/><stop stop-opacity="1" stop-color="rgb(13.531494%, 73.686218%, 72.24884%)" offset="0.546875"/><stop stop-opacity="1" stop-color="rgb(13.398743%, 73.635864%, 72.457886%)" offset="0.550781"/><stop stop-opacity="1" stop-color="rgb(13.267517%, 73.587036%, 72.666931%)" offset="0.554688"/><stop stop-opacity="1" stop-color="rgb(13.134766%, 73.536682%, 72.875977%)" offset="0.558594"/><stop stop-opacity="1" stop-color="rgb(13.00354%, 73.487854%, 73.086548%)" offset="0.5625"/><stop stop-opacity="1" stop-color="rgb(12.870789%, 73.4375%, 73.295593%)" offset="0.566406"/><stop stop-opacity="1" stop-color="rgb(12.739563%, 73.388672%, 73.504639%)" offset="0.570312"/><stop stop-opacity="1" stop-color="rgb(12.606812%, 73.338318%, 73.713684%)" offset="0.574219"/><stop stop-opacity="1" stop-color="rgb(12.475586%, 73.28949%, 73.922729%)" offset="0.578125"/><stop stop-opacity="1" stop-color="rgb(12.342834%, 73.239136%, 74.131775%)" offset="0.582031"/><stop stop-opacity="1" stop-color="rgb(12.211609%, 73.190308%, 74.34082%)" offset="0.585938"/><stop stop-opacity="1" stop-color="rgb(12.078857%, 73.139954%, 74.549866%)" offset="0.589844"/><stop stop-opacity="1" stop-color="rgb(11.947632%, 73.091125%, 74.760437%)" offset="0.59375"/><stop stop-opacity="1" stop-color="rgb(11.81488%, 73.040771%, 74.969482%)" offset="0.597656"/><stop stop-opacity="1" stop-color="rgb(11.683655%, 72.991943%, 75.178528%)" offset="0.601563"/><stop stop-opacity="1" stop-color="rgb(11.550903%, 72.941589%, 75.387573%)" offset="0.605469"/><stop stop-opacity="1" stop-color="rgb(11.419678%, 72.892761%, 75.596619%)" offset="0.609375"/><stop stop-opacity="1" stop-color="rgb(11.286926%, 72.842407%, 75.805664%)" offset="0.613281"/><stop stop-opacity="1" stop-color="rgb(11.155701%, 72.792053%, 76.014709%)" offset="0.617188"/><stop stop-opacity="1" stop-color="rgb(11.022949%, 72.741699%, 76.223755%)" offset="0.621094"/><stop stop-opacity="1" stop-color="rgb(10.891724%, 72.692871%, 76.434326%)" offset="0.625"/><stop stop-opacity="1" stop-color="rgb(10.758972%, 72.642517%, 76.643372%)" offset="0.628906"/><stop stop-opacity="1" stop-color="rgb(10.627747%, 72.593689%, 76.852417%)" offset="0.632813"/><stop stop-opacity="1" stop-color="rgb(10.494995%, 72.543335%, 77.061462%)" offset="0.636719"/><stop stop-opacity="1" stop-color="rgb(10.36377%, 72.494507%, 77.270508%)" offset="0.640625"/><stop stop-opacity="1" stop-color="rgb(10.231018%, 72.444153%, 77.479553%)" offset="0.644531"/><stop stop-opacity="1" stop-color="rgb(10.099792%, 72.395325%, 77.688599%)" offset="0.648438"/><stop stop-opacity="1" stop-color="rgb(9.967041%, 72.344971%, 77.897644%)" offset="0.652344"/><stop stop-opacity="1" stop-color="rgb(9.835815%, 72.296143%, 78.106689%)" offset="0.65625"/><stop stop-opacity="1" stop-color="rgb(9.703064%, 72.245789%, 78.315735%)" offset="0.660156"/><stop stop-opacity="1" stop-color="rgb(9.571838%, 72.19696%, 78.526306%)" offset="0.664062"/><stop stop-opacity="1" stop-color="rgb(9.439087%, 72.146606%, 78.735352%)" offset="0.667969"/><stop stop-opacity="1" stop-color="rgb(9.307861%, 72.097778%, 78.944397%)" offset="0.671875"/><stop stop-opacity="1" stop-color="rgb(9.17511%, 72.047424%, 79.153442%)" offset="0.675781"/><stop stop-opacity="1" stop-color="rgb(9.043884%, 71.998596%, 79.362488%)" offset="0.679687"/><stop stop-opacity="1" stop-color="rgb(8.911133%, 71.948242%, 79.571533%)" offset="0.683594"/><stop stop-opacity="1" stop-color="rgb(8.779907%, 71.899414%, 79.780579%)" offset="0.6875"/><stop stop-opacity="1" stop-color="rgb(8.647156%, 71.84906%, 79.989624%)" offset="0.691406"/><stop stop-opacity="1" stop-color="rgb(8.51593%, 71.800232%, 80.200195%)" offset="0.695312"/><stop stop-opacity="1" stop-color="rgb(8.383179%, 71.749878%, 80.409241%)" offset="0.699219"/><stop stop-opacity="1" stop-color="rgb(8.251953%, 71.70105%, 80.618286%)" offset="0.703125"/><stop stop-opacity="1" stop-color="rgb(8.119202%, 71.650696%, 80.827332%)" offset="0.707031"/><stop stop-opacity="1" stop-color="rgb(7.987976%, 71.601868%, 81.036377%)" offset="0.710937"/><stop stop-opacity="1" stop-color="rgb(7.855225%, 71.551514%, 81.245422%)" offset="0.714844"/><stop stop-opacity="1" stop-color="rgb(7.723999%, 71.502686%, 81.454468%)" offset="0.71875"/><stop stop-opacity="1" stop-color="rgb(7.591248%, 71.452332%, 81.663513%)" offset="0.722656"/><stop stop-opacity="1" stop-color="rgb(7.460022%, 71.403503%, 81.874084%)" offset="0.726562"/><stop stop-opacity="1" stop-color="rgb(7.327271%, 71.353149%, 82.08313%)" offset="0.730469"/><stop stop-opacity="1" stop-color="rgb(7.196045%, 71.304321%, 82.292175%)" offset="0.734375"/><stop stop-opacity="1" stop-color="rgb(7.063293%, 71.253967%, 82.501221%)" offset="0.738281"/><stop stop-opacity="1" stop-color="rgb(6.932068%, 71.205139%, 82.710266%)" offset="0.742188"/><stop stop-opacity="1" stop-color="rgb(6.799316%, 71.154785%, 82.919312%)" offset="0.746094"/><stop stop-opacity="1" stop-color="rgb(6.668091%, 71.105957%, 83.128357%)" offset="0.75"/><stop stop-opacity="1" stop-color="rgb(6.535339%, 71.055603%, 83.337402%)" offset="0.753906"/><stop stop-opacity="1" stop-color="rgb(6.404114%, 71.006775%, 83.547974%)" offset="0.757812"/><stop stop-opacity="1" stop-color="rgb(6.271362%, 70.956421%, 83.757019%)" offset="0.761719"/><stop stop-opacity="1" stop-color="rgb(6.140137%, 70.907593%, 83.966064%)" offset="0.765625"/><stop stop-opacity="1" stop-color="rgb(6.007385%, 70.857239%, 84.17511%)" offset="0.769531"/><stop stop-opacity="1" stop-color="rgb(5.87616%, 70.808411%, 84.384155%)" offset="0.773438"/><stop stop-opacity="1" stop-color="rgb(5.743408%, 70.758057%, 84.593201%)" offset="0.777344"/><stop stop-opacity="1" stop-color="rgb(5.612183%, 70.709229%, 84.802246%)" offset="0.78125"/><stop stop-opacity="1" stop-color="rgb(5.479431%, 70.658875%, 85.011292%)" offset="0.785156"/><stop stop-opacity="1" stop-color="rgb(5.348206%, 70.610046%, 85.221863%)" offset="0.789063"/><stop stop-opacity="1" stop-color="rgb(5.215454%, 70.559692%, 85.430908%)" offset="0.792969"/><stop stop-opacity="1" stop-color="rgb(5.084229%, 70.510864%, 85.639954%)" offset="0.796875"/><stop stop-opacity="1" stop-color="rgb(4.951477%, 70.46051%, 85.848999%)" offset="0.800781"/><stop stop-opacity="1" stop-color="rgb(4.820251%, 70.411682%, 86.058044%)" offset="0.804688"/><stop stop-opacity="1" stop-color="rgb(4.6875%, 70.361328%, 86.26709%)" offset="0.808594"/><stop stop-opacity="1" stop-color="rgb(4.556274%, 70.3125%, 86.476135%)" offset="0.8125"/><stop stop-opacity="1" stop-color="rgb(4.423523%, 70.262146%, 86.685181%)" offset="0.816406"/><stop stop-opacity="1" stop-color="rgb(4.292297%, 70.213318%, 86.895752%)" offset="0.820313"/><stop stop-opacity="1" stop-color="rgb(4.159546%, 70.162964%, 87.104797%)" offset="0.824219"/><stop stop-opacity="1" stop-color="rgb(4.02832%, 70.114136%, 87.313843%)" offset="0.828125"/><stop stop-opacity="1" stop-color="rgb(3.895569%, 70.063782%, 87.522888%)" offset="0.832031"/><stop stop-opacity="1" stop-color="rgb(3.764343%, 70.014954%, 87.731934%)" offset="0.835938"/><stop stop-opacity="1" stop-color="rgb(3.631592%, 69.9646%, 87.940979%)" offset="0.839844"/><stop stop-opacity="1" stop-color="rgb(3.500366%, 69.915771%, 88.150024%)" offset="0.84375"/><stop stop-opacity="1" stop-color="rgb(3.367615%, 69.865417%, 88.35907%)" offset="0.847656"/><stop stop-opacity="1" stop-color="rgb(3.236389%, 69.816589%, 88.568115%)" offset="0.851562"/><stop stop-opacity="1" stop-color="rgb(3.103638%, 69.766235%, 88.777161%)" offset="0.855469"/><stop stop-opacity="1" stop-color="rgb(2.972412%, 69.715881%, 88.987732%)" offset="0.859375"/><stop stop-opacity="1" stop-color="rgb(2.839661%, 69.665527%, 89.196777%)" offset="0.863281"/><stop stop-opacity="1" stop-color="rgb(2.708435%, 69.616699%, 89.405823%)" offset="0.867187"/><stop stop-opacity="1" stop-color="rgb(2.575684%, 69.566345%, 89.614868%)" offset="0.871094"/><stop stop-opacity="1" stop-color="rgb(2.444458%, 69.517517%, 89.823914%)" offset="0.875"/><stop stop-opacity="1" stop-color="rgb(2.311707%, 69.467163%, 90.032959%)" offset="0.878906"/><stop stop-opacity="1" stop-color="rgb(2.180481%, 69.418335%, 90.242004%)" offset="0.882812"/><stop stop-opacity="1" stop-color="rgb(2.047729%, 69.367981%, 90.45105%)" offset="0.886719"/><stop stop-opacity="1" stop-color="rgb(1.916504%, 69.319153%, 90.661621%)" offset="0.890625"/><stop stop-opacity="1" stop-color="rgb(1.783752%, 69.268799%, 90.870667%)" offset="0.894531"/><stop stop-opacity="1" stop-color="rgb(1.652527%, 69.219971%, 91.079712%)" offset="0.898437"/><stop stop-opacity="1" stop-color="rgb(1.519775%, 69.169617%, 91.288757%)" offset="0.902344"/><stop stop-opacity="1" stop-color="rgb(1.38855%, 69.120789%, 91.497803%)" offset="0.90625"/><stop stop-opacity="1" stop-color="rgb(1.255798%, 69.070435%, 91.706848%)" offset="0.910156"/><stop stop-opacity="1" stop-color="rgb(1.124573%, 69.021606%, 91.915894%)" offset="0.914062"/><stop stop-opacity="1" stop-color="rgb(0.991821%, 68.971252%, 92.124939%)" offset="0.917969"/><stop stop-opacity="1" stop-color="rgb(0.860596%, 68.922424%, 92.33551%)" offset="0.921875"/><stop stop-opacity="1" stop-color="rgb(0.727844%, 68.87207%, 92.544556%)" offset="0.925781"/><stop stop-opacity="1" stop-color="rgb(0.596619%, 68.823242%, 92.753601%)" offset="0.929688"/><stop stop-opacity="1" stop-color="rgb(0.463867%, 68.772888%, 92.962646%)" offset="0.933594"/><stop stop-opacity="1" stop-color="rgb(0.332642%, 68.72406%, 93.171692%)" offset="0.9375"/><stop stop-opacity="1" stop-color="rgb(0.19989%, 68.673706%, 93.380737%)" offset="0.941406"/><stop stop-opacity="1" stop-color="rgb(0.0686646%, 68.624878%, 93.589783%)" offset="0.945312"/><stop stop-opacity="1" stop-color="rgb(0.0335693%, 68.611145%, 93.644714%)" offset="0.953125"/><stop stop-opacity="1" stop-color="rgb(0%, 68.598938%, 93.699646%)" offset="0.96875"/><stop stop-opacity="1" stop-color="rgb(0%, 68.598938%, 93.699646%)" offset="0.992733"/><stop stop-opacity="1" stop-color="rgb(0%, 68.598938%, 93.699646%)" offset="1"/></linearGradient><clipPath id="50bad9b4f6"><path d="M 236.34375 18.019531 L 358.59375 18.019531 L 358.59375 117 L 236.34375 117 Z M 236.34375 18.019531 " clip-rule="nonzero"/></clipPath><clipPath id="50d969f35c"><path d="M 343.832031 72.535156 C 343.832031 68.464844 347.136719 65.191406 351.222656 65.191406 C 355.308594 65.191406 358.59375 68.484375 358.59375 72.535156 C 358.59375 76.609375 355.289062 79.882812 351.222656 79.882812 C 349.949219 79.882812 348.734375 79.5625 347.6875 78.996094 L 342.367188 86.796875 C 343.621094 87.894531 344.421875 89.503906 344.421875 91.320312 C 344.421875 94.636719 341.722656 97.324219 338.398438 97.324219 C 335.074219 97.324219 332.375 94.636719 332.375 91.320312 C 332.375 89.050781 333.648438 87.0625 335.527344 86.058594 L 334.027344 82.269531 C 333.6875 82.347656 333.324219 82.382812 332.964844 82.382812 C 330.324219 82.382812 328.195312 80.246094 328.195312 77.632812 C 328.195312 75 330.339844 72.859375 332.964844 72.859375 C 333.402344 72.859375 333.835938 72.914062 334.238281 73.03125 L 337.332031 66.175781 C 336.574219 65.585938 336.078125 64.679688 336.078125 63.65625 C 336.078125 61.894531 337.503906 60.472656 339.273438 60.472656 C 340.050781 60.472656 340.753906 60.738281 341.304688 61.214844 L 346.851562 57.007812 C 346.453125 56.289062 346.226562 55.4375 346.226562 54.546875 C 346.226562 53.070312 346.871094 51.726562 347.878906 50.796875 L 344.457031 45.78125 C 343.8125 46.082031 343.089844 46.253906 342.332031 46.253906 C 340.542969 46.253906 338.988281 45.304688 338.132812 43.90625 L 332.925781 46.082031 C 332.925781 46.160156 332.945312 46.234375 332.945312 46.289062 C 332.945312 47.484375 332.070312 48.46875 330.929688 48.65625 L 330.226562 53.695312 C 331.976562 54.246094 333.230469 55.871094 333.230469 57.785156 C 333.230469 60.152344 331.292969 62.085938 328.917969 62.085938 C 327.320312 62.085938 325.933594 61.214844 325.171875 59.925781 L 319 62.199219 C 319 62.214844 319 62.234375 319 62.273438 C 319 63.542969 317.972656 64.566406 316.699219 64.566406 C 316.566406 64.566406 316.414062 64.546875 316.28125 64.527344 L 313.144531 70.207031 C 313.527344 70.546875 313.847656 70.964844 314.058594 71.4375 L 322.722656 69.621094 C 322.855469 68.484375 323.824219 67.59375 325.003906 67.59375 C 326.273438 67.59375 327.300781 68.617188 327.300781 69.886719 C 327.300781 71.058594 326.410156 72.027344 325.269531 72.160156 L 322.722656 84.277344 C 325.421875 85.148438 327.359375 87.667969 327.359375 90.640625 C 327.359375 94.332031 324.355469 97.34375 320.632812 97.34375 C 320.519531 97.34375 320.402344 97.34375 320.289062 97.34375 L 319.28125 103.554688 C 320.195312 103.972656 320.839844 104.898438 320.839844 105.980469 C 320.839844 107.191406 320.042969 108.195312 318.941406 108.535156 L 319.035156 113.230469 C 319.738281 113.496094 320.253906 114.199219 320.253906 114.992188 C 320.253906 116.035156 319.398438 116.886719 318.351562 116.886719 C 317.308594 116.886719 316.453125 116.035156 316.453125 114.992188 C 316.453125 114.804688 316.488281 114.613281 316.546875 114.425781 L 313.222656 111.660156 C 312.804688 111.945312 312.289062 112.113281 311.722656 112.113281 C 310.257812 112.113281 309.078125 110.941406 309.078125 109.480469 C 309.078125 108.441406 309.6875 107.550781 310.5625 107.117188 L 309.992188 103.972656 C 309.953125 103.972656 309.898438 103.972656 309.859375 103.972656 C 307.199219 103.972656 305.03125 101.8125 305.03125 99.160156 C 305.03125 96.511719 307.199219 94.351562 309.859375 94.351562 C 311.132812 94.351562 312.273438 94.84375 313.125 95.640625 L 314.96875 94.179688 C 314.304688 93.140625 313.925781 91.929688 313.925781 90.601562 C 313.925781 89.332031 314.285156 88.140625 314.914062 87.117188 L 310.199219 83.519531 C 309.839844 83.765625 309.402344 83.917969 308.929688 83.917969 C 308.414062 83.917969 307.941406 83.746094 307.558594 83.464844 L 304.578125 85.527344 C 305.109375 86.492188 305.394531 87.589844 305.394531 88.765625 C 305.394531 92.515625 302.355469 95.546875 298.589844 95.546875 C 295.398438 95.546875 292.738281 93.367188 292 90.414062 L 286.90625 91.113281 C 286.847656 93.519531 284.871094 95.449219 282.441406 95.449219 C 279.972656 95.449219 277.976562 93.460938 277.976562 91 C 277.976562 88.539062 279.972656 86.550781 282.441406 86.550781 C 282.898438 86.550781 283.332031 86.625 283.734375 86.738281 L 289.167969 75.773438 C 287.78125 74.847656 286.828125 73.332031 286.660156 71.589844 L 282.175781 71.4375 C 281.851562 72.273438 281.054688 72.859375 280.105469 72.859375 C 279.855469 72.859375 279.628906 72.820312 279.402344 72.746094 L 275.808594 77.386719 C 276.929688 78.484375 277.613281 80 277.613281 81.683594 C 277.613281 85.015625 274.898438 87.722656 271.554688 87.722656 C 268.742188 87.722656 266.367188 85.792969 265.683594 83.199219 L 261.519531 83.746094 C 261.445312 86.113281 259.488281 88.027344 257.09375 88.027344 C 254.644531 88.027344 252.667969 86.058594 252.667969 83.613281 C 252.667969 81.304688 254.453125 79.410156 256.734375 79.222656 L 257.132812 74.375 C 256.335938 74.03125 255.78125 73.238281 255.78125 72.308594 C 255.78125 71.078125 256.789062 70.054688 258.042969 70.054688 C 258.328125 70.054688 258.574219 70.113281 258.824219 70.1875 L 267.316406 59.773438 C 267.105469 59.433594 266.972656 59.015625 266.972656 58.582031 C 266.972656 57.976562 267.222656 57.425781 267.601562 57.027344 L 266.289062 54.492188 C 265.625 54.738281 264.921875 54.871094 264.179688 54.871094 C 263.117188 54.871094 262.109375 54.585938 261.253906 54.113281 L 256.144531 61.175781 C 256.675781 61.761719 257 62.558594 257 63.429688 C 257 65.285156 255.480469 66.800781 253.617188 66.800781 C 253.238281 66.800781 252.855469 66.742188 252.515625 66.609375 L 247.175781 75.28125 C 248.390625 76.265625 249.152344 77.761719 249.152344 79.449219 C 249.152344 82.421875 246.738281 84.828125 243.753906 84.828125 C 240.773438 84.828125 238.359375 82.421875 238.359375 79.449219 C 238.359375 77.023438 239.972656 74.980469 242.179688 74.296875 L 241.761719 71.742188 C 241.722656 71.742188 241.703125 71.742188 241.664062 71.742188 C 238.890625 71.742188 236.648438 69.507812 236.648438 66.742188 C 236.648438 63.996094 238.871094 61.761719 241.628906 61.742188 L 241.929688 59.527344 C 238.71875 58.75 236.328125 55.855469 236.328125 52.40625 C 236.328125 48.375 239.613281 45.097656 243.660156 45.097656 C 247.023438 45.097656 249.875 47.351562 250.730469 50.4375 L 258.121094 49.132812 C 258.121094 49.019531 258.121094 48.921875 258.121094 48.808594 C 258.121094 47.785156 258.386719 46.820312 258.824219 45.96875 L 253.371094 42.164062 C 252.761719 42.730469 251.945312 43.070312 251.050781 43.070312 C 249.171875 43.070312 247.632812 41.539062 247.632812 39.664062 C 247.632812 37.789062 249.171875 36.253906 251.050781 36.253906 C 252.933594 36.253906 254.472656 37.789062 254.472656 39.664062 C 254.472656 40.136719 254.375 40.570312 254.207031 40.96875 L 259.660156 44.777344 C 260.4375 43.90625 261.484375 43.261719 262.640625 42.957031 L 262.625 37.449219 C 260.570312 37.105469 259.011719 35.34375 259.011719 33.207031 C 259.011719 30.839844 260.949219 28.90625 263.328125 28.90625 C 264.730469 28.90625 265.96875 29.570312 266.746094 30.59375 L 273.644531 26.996094 C 273.472656 26.484375 273.378906 25.953125 273.378906 25.386719 C 273.378906 22.675781 275.582031 20.460938 278.316406 20.460938 C 281.035156 20.460938 283.257812 22.65625 283.257812 25.386719 C 283.257812 27.183594 282.289062 28.773438 280.824219 29.625 L 283.105469 35.230469 C 283.46875 35.15625 283.828125 35.097656 284.226562 35.097656 C 285.121094 35.097656 285.976562 35.34375 286.695312 35.78125 L 291.863281 29.53125 C 290.6875 28.320312 289.945312 26.671875 289.945312 24.855469 C 289.945312 21.160156 292.949219 18.152344 296.671875 18.152344 C 300.378906 18.152344 303.398438 21.144531 303.398438 24.855469 C 303.398438 26.503906 302.789062 28.015625 301.800781 29.171875 L 306.933594 34.550781 C 307.238281 34.398438 307.578125 34.324219 307.941406 34.324219 C 308.035156 34.324219 308.128906 34.324219 308.207031 34.34375 L 310.941406 28.453125 C 309.820312 27.675781 309.078125 26.386719 309.078125 24.910156 C 309.078125 22.542969 311.019531 20.613281 313.394531 20.613281 C 315.769531 20.613281 317.707031 22.542969 317.707031 24.910156 C 317.707031 25.441406 317.609375 25.953125 317.441406 26.40625 L 321.792969 28.925781 C 322.875 27.503906 324.601562 26.578125 326.523438 26.578125 C 329.808594 26.578125 332.46875 29.230469 332.46875 32.503906 C 332.46875 33.300781 332.316406 34.058594 332.03125 34.738281 L 338.453125 38.320312 C 339.347656 37.164062 340.753906 36.40625 342.351562 36.40625 C 345.066406 36.40625 347.269531 38.601562 347.269531 41.3125 C 347.269531 42.730469 346.664062 44.019531 345.695312 44.910156 L 349.113281 49.925781 C 349.777344 49.605469 350.539062 49.414062 351.335938 49.414062 C 354.148438 49.414062 356.429688 51.6875 356.429688 54.492188 C 356.429688 57.292969 354.148438 59.566406 351.335938 59.566406 C 349.949219 59.566406 348.675781 59.015625 347.765625 58.105469 L 342.21875 62.3125 C 342.386719 62.707031 342.484375 63.144531 342.484375 63.597656 C 342.484375 65.359375 341.058594 66.78125 339.289062 66.78125 C 339.082031 66.78125 338.871094 66.761719 338.683594 66.722656 L 335.585938 73.578125 C 336.898438 74.429688 337.769531 75.90625 337.769531 77.574219 C 337.769531 79.316406 336.820312 80.851562 335.414062 81.683594 L 336.914062 85.472656 C 337.410156 85.339844 337.902344 85.28125 338.4375 85.28125 C 339.421875 85.28125 340.375 85.527344 341.191406 85.945312 L 346.511719 78.140625 C 344.894531 76.796875 343.871094 74.773438 343.871094 72.5 Z M 264.105469 42.804688 L 264.085938 37.464844 C 266.121094 37.125 267.660156 35.34375 267.660156 33.226562 C 267.660156 32.769531 267.582031 32.316406 267.449219 31.898438 L 274.347656 28.300781 C 275.238281 29.53125 276.703125 30.328125 278.335938 30.328125 C 278.734375 30.328125 279.117188 30.289062 279.496094 30.195312 L 281.777344 35.800781 C 280.371094 36.632812 279.417969 38.167969 279.417969 39.929688 C 279.417969 42.050781 280.808594 43.847656 282.726562 44.492188 L 281.699219 50.550781 C 281.566406 50.550781 281.433594 50.53125 281.28125 50.53125 C 277.519531 50.53125 274.480469 53.5625 274.480469 57.3125 C 274.480469 61.0625 277.519531 64.089844 281.28125 64.089844 C 284.855469 64.089844 287.78125 61.34375 288.066406 57.859375 L 292 57.746094 C 292.320312 58.601562 293.136719 59.207031 294.105469 59.207031 C 294.792969 59.207031 295.398438 58.902344 295.816406 58.410156 L 300.964844 60.457031 C 300.910156 60.757812 300.871094 61.0625 300.871094 61.363281 C 300.871094 63.75 302.828125 65.699219 305.222656 65.699219 C 307.617188 65.699219 309.574219 63.75 309.574219 61.363281 C 309.574219 60.324219 309.195312 59.355469 308.585938 58.601562 L 314.039062 52.3125 C 314.988281 52.9375 316.128906 53.316406 317.34375 53.316406 C 320.632812 53.316406 323.292969 50.664062 323.292969 47.390625 C 323.292969 44.113281 320.632812 41.460938 317.34375 41.460938 C 316.109375 41.460938 314.949219 41.839844 314 42.484375 L 309.933594 37.84375 C 310.144531 37.503906 310.257812 37.085938 310.257812 36.652344 C 310.257812 35.988281 309.972656 35.382812 309.515625 34.949219 L 312.234375 29.058594 C 312.59375 29.152344 312.976562 29.210938 313.355469 29.210938 C 314.683594 29.210938 315.882812 28.605469 316.660156 27.65625 L 321.011719 30.175781 C 320.707031 30.894531 320.539062 31.671875 320.539062 32.503906 C 320.539062 35.78125 323.195312 38.433594 326.484375 38.433594 C 326.808594 38.433594 327.128906 38.414062 327.433594 38.355469 L 329.144531 44.246094 C 328.5 44.679688 328.082031 45.402344 328.082031 46.234375 C 328.082031 47.199219 328.652344 48.015625 329.449219 48.410156 L 328.746094 53.449219 C 326.425781 53.523438 324.566406 55.417969 324.566406 57.746094 C 324.566406 58.011719 324.585938 58.277344 324.640625 58.542969 L 318.464844 60.816406 C 318.046875 60.285156 317.402344 59.964844 316.679688 59.964844 C 315.40625 59.964844 314.382812 60.984375 314.382812 62.253906 C 314.382812 62.859375 314.609375 63.390625 314.988281 63.808594 L 311.855469 69.488281 C 311.53125 69.394531 311.1875 69.335938 310.847656 69.335938 C 308.910156 69.335938 307.351562 70.890625 307.351562 72.820312 C 307.351562 74.753906 308.910156 76.304688 310.847656 76.304688 C 312.785156 76.304688 314.34375 74.753906 314.34375 72.820312 L 323.007812 70.984375 C 323.214844 71.324219 323.480469 71.609375 323.824219 71.796875 L 321.277344 83.917969 C 321.070312 83.898438 320.839844 83.878906 320.613281 83.878906 C 318.714844 83.878906 316.984375 84.675781 315.75 85.945312 L 311.035156 82.347656 C 311.113281 82.117188 311.167969 81.855469 311.167969 81.609375 C 311.167969 80.339844 310.144531 79.316406 308.871094 79.316406 C 307.597656 79.316406 306.570312 80.339844 306.570312 81.609375 C 306.570312 81.835938 306.609375 82.042969 306.667969 82.25 L 303.683594 84.316406 C 302.429688 82.875 300.585938 81.96875 298.535156 81.96875 C 294.773438 81.96875 291.730469 84.996094 291.730469 88.746094 C 291.730469 88.824219 291.730469 88.898438 291.730469 88.953125 L 286.640625 89.65625 C 286.355469 88.726562 285.746094 87.914062 284.96875 87.363281 L 290.402344 76.398438 C 290.972656 76.589844 291.597656 76.703125 292.246094 76.703125 C 295.378906 76.703125 297.925781 74.164062 297.925781 71.042969 C 297.925781 67.917969 295.378906 65.398438 292.246094 65.398438 C 289.433594 65.398438 287.097656 67.441406 286.640625 70.132812 L 282.15625 69.980469 C 281.871094 69.070312 281.035156 68.429688 280.046875 68.429688 C 278.832031 68.429688 277.824219 69.414062 277.824219 70.644531 C 277.824219 71.097656 277.957031 71.496094 278.183594 71.855469 L 274.59375 76.496094 C 273.679688 75.945312 272.617188 75.644531 271.496094 75.644531 C 268.152344 75.644531 265.433594 78.351562 265.433594 81.683594 C 265.433594 81.703125 265.433594 81.738281 265.433594 81.757812 L 261.273438 82.308594 C 260.816406 80.851562 259.621094 79.695312 258.121094 79.316406 L 258.519531 74.46875 C 259.507812 74.222656 260.230469 73.332031 260.230469 72.289062 C 260.230469 71.855469 260.097656 71.4375 259.886719 71.097656 L 268.378906 60.683594 C 268.628906 60.777344 268.894531 60.816406 269.160156 60.816406 C 270.414062 60.816406 271.421875 59.8125 271.421875 58.5625 C 271.421875 57.332031 270.414062 56.308594 269.160156 56.308594 C 269.046875 56.308594 268.929688 56.308594 268.835938 56.328125 L 267.527344 53.789062 C 269.121094 52.710938 270.183594 50.875 270.183594 48.789062 C 270.183594 45.457031 267.46875 42.75 264.125 42.75 C 264.085938 42.75 264.066406 42.75 264.046875 42.75 Z M 283.125 50.796875 L 284.152344 44.738281 C 284.171875 44.738281 284.207031 44.738281 284.226562 44.738281 C 285.976562 44.738281 287.496094 43.808594 288.351562 42.429688 L 295.378906 45.324219 C 295.285156 45.722656 295.226562 46.121094 295.226562 46.554688 C 295.226562 49.320312 297.46875 51.554688 300.246094 51.554688 C 303.019531 51.554688 305.261719 49.320312 305.261719 46.554688 C 305.261719 45.210938 304.730469 44 303.875 43.089844 L 307.160156 38.867188 C 307.40625 38.960938 307.671875 39 307.941406 39 C 308.261719 39 308.566406 38.945312 308.851562 38.8125 L 312.917969 43.449219 C 311.96875 44.492188 311.398438 45.894531 311.398438 47.40625 C 311.398438 48.941406 311.988281 50.324219 312.9375 51.386719 L 307.484375 57.671875 C 306.820312 57.273438 306.058594 57.046875 305.222656 57.046875 C 303.644531 57.046875 302.277344 57.878906 301.5 59.128906 L 296.347656 57.085938 C 296.347656 57.046875 296.347656 57.007812 296.347656 56.972656 C 296.347656 55.722656 295.34375 54.71875 294.089844 54.71875 C 293.082031 54.71875 292.226562 55.378906 291.941406 56.308594 L 288.007812 56.421875 C 287.648438 53.714844 285.691406 51.535156 283.105469 50.796875 Z M 300.738281 30.195312 L 305.867188 35.574219 C 305.699219 35.894531 305.582031 36.273438 305.582031 36.671875 C 305.582031 37.144531 305.734375 37.597656 305.984375 37.976562 L 302.695312 42.199219 C 301.972656 41.785156 301.117188 41.558594 300.226562 41.558594 C 298.402344 41.558594 296.804688 42.542969 295.929688 43.980469 L 288.902344 41.0625 C 288.996094 40.703125 289.035156 40.308594 289.035156 39.910156 C 289.035156 38.679688 288.558594 37.5625 287.800781 36.710938 L 292.96875 30.460938 C 294.03125 31.160156 295.285156 31.558594 296.652344 31.558594 C 298.191406 31.558594 299.597656 31.046875 300.738281 30.175781 Z M 330.550781 43.886719 L 328.839844 37.976562 C 329.828125 37.5625 330.664062 36.878906 331.292969 36.027344 L 337.714844 39.605469 C 337.503906 40.136719 337.390625 40.722656 337.390625 41.328125 C 337.390625 41.746094 337.449219 42.144531 337.542969 42.542969 L 332.335938 44.71875 C 331.898438 44.207031 331.273438 43.886719 330.550781 43.867188 Z M 318.882812 97.078125 L 317.878906 103.289062 C 316.546875 103.441406 315.503906 104.578125 315.503906 105.941406 C 315.503906 107.191406 316.355469 108.234375 317.515625 108.535156 L 317.609375 113.230469 C 317.574219 113.25 317.515625 113.269531 317.476562 113.289062 L 314.152344 110.523438 C 314.304688 110.203125 314.382812 109.84375 314.382812 109.464844 C 314.382812 108.101562 313.335938 106.984375 312.007812 106.851562 L 311.4375 103.707031 C 313.335938 103.0625 314.703125 101.265625 314.703125 99.160156 C 314.703125 98.289062 314.476562 97.476562 314.058594 96.777344 L 315.902344 95.316406 C 316.71875 96.132812 317.742188 96.757812 318.902344 97.058594 Z M 260.078125 53.277344 L 254.964844 60.34375 C 254.546875 60.171875 254.09375 60.058594 253.617188 60.058594 C 251.753906 60.058594 250.234375 61.574219 250.234375 63.429688 C 250.234375 64.375 250.632812 65.246094 251.28125 65.851562 L 245.941406 74.527344 C 245.277344 74.222656 244.535156 74.070312 243.753906 74.070312 C 243.699219 74.070312 243.660156 74.070312 243.605469 74.070312 L 243.1875 71.515625 C 245.21875 70.871094 246.683594 68.976562 246.683594 66.761719 C 246.683594 64.488281 245.160156 62.578125 243.070312 61.96875 L 243.375 59.753906 C 243.46875 59.753906 243.566406 59.753906 243.679688 59.753906 C 247.726562 59.753906 251.015625 56.480469 251.015625 52.445312 C 251.015625 52.257812 251.015625 52.085938 250.996094 51.894531 L 258.386719 50.609375 C 258.710938 51.648438 259.296875 52.578125 260.078125 53.296875 Z M 265.625 68.011719 C 265.625 65.644531 267.5625 63.710938 269.9375 63.710938 C 272.3125 63.710938 274.25 65.644531 274.25 68.011719 C 274.25 70.378906 272.3125 72.308594 269.9375 72.308594 C 267.5625 72.308594 265.625 70.378906 265.625 68.011719 Z M 270.242188 39.171875 C 270.242188 37.921875 271.25 36.917969 272.503906 36.917969 C 273.757812 36.917969 274.765625 37.921875 274.765625 39.171875 C 274.765625 40.402344 273.757812 41.425781 272.503906 41.425781 C 271.269531 41.425781 270.242188 40.421875 270.242188 39.171875 Z M 270.242188 39.171875 " clip-rule="evenodd"/></clipPath></defs><rect x="-37.5" width="450" fill="#ffffff" y="-37.499999" height="449.999989" fill-opacity="1"/><rect x="-37.5" width="450" fill="#ffffff" y="-37.499999" height="449.999989" fill-opacity="1"/><rect x="-37.5" width="450" fill="#ffffff" y="-37.499999" height="449.999989" fill-opacity="1"/><g clip-path="url(#5e798d6234)"><g clip-path="url(#a1d3531773)"><path fill="url(#48c9545dd8)" d="M 126.351562 88.269531 L 126.351562 187.003906 L 248.601562 187.003906 L 248.601562 88.269531 Z M 126.351562 88.269531 " fill-rule="nonzero"/></g></g><g fill="#3282df" fill-opacity="1"><g transform="translate(78.226713, 239.357987)"><g><path d="M 11.125 0 L 6.25 -15.90625 L 6.125 -15.90625 C 6.300781 -12.664062 6.390625 -10.503906 6.390625 -9.421875 L 6.390625 0 L 2.546875 0 L 2.546875 -20.265625 L 8.40625 -20.265625 L 13.203125 -4.765625 L 13.28125 -4.765625 L 18.375 -20.265625 L 24.21875 -20.265625 L 24.21875 0 L 20.21875 0 L 20.21875 -9.59375 C 20.21875 -10.039062 20.222656 -10.5625 20.234375 -11.15625 C 20.242188 -11.75 20.304688 -13.320312 20.421875 -15.875 L 20.296875 -15.875 L 15.0625 0 Z M 11.125 0 "/></g></g></g><g fill="#3282df" fill-opacity="1"><g transform="translate(108.974703, 239.357987)"><g><path d="M 14.953125 0 L 13.484375 -4.828125 L 6.09375 -4.828125 L 4.625 0 L 0 0 L 7.15625 -20.34375 L 12.40625 -20.34375 L 19.59375 0 Z M 12.46875 -8.421875 C 11.101562 -12.796875 10.332031 -15.269531 10.15625 -15.84375 C 9.988281 -16.414062 9.867188 -16.867188 9.796875 -17.203125 C 9.492188 -16.015625 8.625 -13.085938 7.1875 -8.421875 Z M 12.46875 -8.421875 "/></g></g></g><g fill="#3282df" fill-opacity="1"><g transform="translate(132.540873, 239.357987)"><g><path d="M 20.53125 0 L 15.0625 0 L 6.25 -15.328125 L 6.125 -15.328125 C 6.300781 -12.617188 6.390625 -10.6875 6.390625 -9.53125 L 6.390625 0 L 2.546875 0 L 2.546875 -20.265625 L 7.96875 -20.265625 L 16.78125 -5.09375 L 16.875 -5.09375 C 16.726562 -7.71875 16.65625 -9.578125 16.65625 -10.671875 L 16.65625 -20.265625 L 20.53125 -20.265625 Z M 20.53125 0 "/></g></g></g><g fill="#3282df" fill-opacity="1"><g transform="translate(159.600901, 239.357987)"><g><path d="M 2.546875 0 L 2.546875 -20.265625 L 6.84375 -20.265625 L 6.84375 0 Z M 2.546875 0 "/></g></g></g><g fill="#3282df" fill-opacity="1"><g transform="translate(172.976646, 239.357987)"><g><path d="M 6.78125 0 L 2.546875 0 L 2.546875 -20.265625 L 14.171875 -20.265625 L 14.171875 -16.75 L 6.78125 -16.75 L 6.78125 -11.515625 L 13.65625 -11.515625 L 13.65625 -8.015625 L 6.78125 -8.015625 Z M 6.78125 0 "/></g></g></g><g fill="#3282df" fill-opacity="1"><g transform="translate(192.535971, 239.357987)"><g><path d="M 14.21875 0 L 2.546875 0 L 2.546875 -20.265625 L 14.21875 -20.265625 L 14.21875 -16.75 L 6.84375 -16.75 L 6.84375 -12.296875 L 13.703125 -12.296875 L 13.703125 -8.78125 L 6.84375 -8.78125 L 6.84375 -3.546875 L 14.21875 -3.546875 Z M 14.21875 0 "/></g></g></g><g fill="#3282df" fill-opacity="1"><g transform="translate(212.414186, 239.357987)"><g><path d="M 14.515625 -5.625 C 14.515625 -3.800781 13.851562 -2.359375 12.53125 -1.296875 C 11.21875 -0.242188 9.390625 0.28125 7.046875 0.28125 C 4.878906 0.28125 2.960938 -0.125 1.296875 -0.9375 L 1.296875 -4.9375 C 2.671875 -4.320312 3.832031 -3.890625 4.78125 -3.640625 C 5.726562 -3.390625 6.59375 -3.265625 7.375 -3.265625 C 8.3125 -3.265625 9.03125 -3.445312 9.53125 -3.8125 C 10.039062 -4.175781 10.296875 -4.710938 10.296875 -5.421875 C 10.296875 -5.816406 10.1875 -6.164062 9.96875 -6.46875 C 9.75 -6.78125 9.421875 -7.078125 8.984375 -7.359375 C 8.554688 -7.648438 7.679688 -8.113281 6.359375 -8.75 C 5.117188 -9.332031 4.1875 -9.890625 3.5625 -10.421875 C 2.945312 -10.960938 2.453125 -11.585938 2.078125 -12.296875 C 1.710938 -13.003906 1.53125 -13.835938 1.53125 -14.796875 C 1.53125 -16.585938 2.140625 -17.992188 3.359375 -19.015625 C 4.578125 -20.046875 6.257812 -20.5625 8.40625 -20.5625 C 9.457031 -20.5625 10.457031 -20.4375 11.40625 -20.1875 C 12.363281 -19.9375 13.367188 -19.582031 14.421875 -19.125 L 13.03125 -15.796875 C 11.945312 -16.234375 11.050781 -16.539062 10.34375 -16.71875 C 9.632812 -16.894531 8.941406 -16.984375 8.265625 -16.984375 C 7.453125 -16.984375 6.828125 -16.789062 6.390625 -16.40625 C 5.953125 -16.03125 5.734375 -15.539062 5.734375 -14.9375 C 5.734375 -14.550781 5.820312 -14.21875 6 -13.9375 C 6.175781 -13.65625 6.457031 -13.378906 6.84375 -13.109375 C 7.226562 -12.847656 8.132812 -12.378906 9.5625 -11.703125 C 11.457031 -10.796875 12.753906 -9.882812 13.453125 -8.96875 C 14.160156 -8.0625 14.515625 -6.945312 14.515625 -5.625 Z M 14.515625 -5.625 "/></g></g></g><g fill="#3282df" fill-opacity="1"><g transform="translate(232.028969, 239.357987)"><g><path d="M 10.375 0 L 6.078125 0 L 6.078125 -16.6875 L 0.5625 -16.6875 L 0.5625 -20.265625 L 15.875 -20.265625 L 15.875 -16.6875 L 10.375 -16.6875 Z M 10.375 0 "/></g></g></g><g fill="#3282df" fill-opacity="1"><g transform="translate(252.447894, 239.357987)"><g/></g></g><g fill="#3282df" fill-opacity="1"><g transform="translate(263.799425, 239.357987)"><g><path d="M 14.953125 0 L 13.484375 -4.828125 L 6.09375 -4.828125 L 4.625 0 L 0 0 L 7.15625 -20.34375 L 12.40625 -20.34375 L 19.59375 0 Z M 12.46875 -8.421875 C 11.101562 -12.796875 10.332031 -15.269531 10.15625 -15.84375 C 9.988281 -16.414062 9.867188 -16.867188 9.796875 -17.203125 C 9.492188 -16.015625 8.625 -13.085938 7.1875 -8.421875 Z M 12.46875 -8.421875 "/></g></g></g><g fill="#3282df" fill-opacity="1"><g transform="translate(287.365601, 239.357987)"><g><path d="M 2.546875 0 L 2.546875 -20.265625 L 6.84375 -20.265625 L 6.84375 0 Z M 2.546875 0 "/></g></g></g><g fill="#3282df" fill-opacity="1"><g transform="translate(77.864869, 260.591745)"><g><path d="M 2.046875 -10.90625 C 2.285156 -10.90625 2.492188 -10.816406 2.671875 -10.640625 C 2.859375 -10.460938 2.953125 -10.25 2.953125 -10 C 2.953125 -9.75 2.859375 -9.535156 2.671875 -9.359375 C 2.492188 -9.179688 2.285156 -9.09375 2.046875 -9.09375 C 1.796875 -9.09375 1.578125 -9.179688 1.390625 -9.359375 C 1.210938 -9.535156 1.125 -9.75 1.125 -10 C 1.125 -10.25 1.210938 -10.460938 1.390625 -10.640625 C 1.578125 -10.816406 1.796875 -10.90625 2.046875 -10.90625 Z M 2.78125 -1.328125 C 2.78125 -0.929688 2.859375 -0.660156 3.015625 -0.515625 C 3.179688 -0.367188 3.460938 -0.296875 3.859375 -0.296875 L 3.859375 0 C 2.984375 -0.0390625 2.410156 -0.0625 2.140625 -0.0625 C 1.859375 -0.0625 1.28125 -0.0390625 0.40625 0 L 0.40625 -0.296875 C 0.8125 -0.296875 1.09375 -0.367188 1.25 -0.515625 C 1.414062 -0.660156 1.5 -0.929688 1.5 -1.328125 L 1.5 -5.796875 C 1.5 -6.234375 1.414062 -6.550781 1.25 -6.75 C 1.09375 -6.945312 0.8125 -7.046875 0.40625 -7.046875 L 0.40625 -7.34375 C 0.71875 -7.3125 1.015625 -7.296875 1.296875 -7.296875 C 1.898438 -7.296875 2.394531 -7.363281 2.78125 -7.5 Z M 2.78125 -1.328125 "/></g></g></g><g fill="#3282df" fill-opacity="1"><g transform="translate(83.826704, 260.591745)"><g><path d="M 9.5625 -9.8125 C 9.226562 -9.789062 8.976562 -9.738281 8.8125 -9.65625 C 8.65625 -9.582031 8.546875 -9.453125 8.484375 -9.265625 C 8.429688 -9.078125 8.40625 -8.800781 8.40625 -8.4375 L 8.40625 0.078125 L 8.078125 0.078125 L 2.078125 -9.1875 L 2.078125 -1.65625 C 2.078125 -1.28125 2.109375 -1.003906 2.171875 -0.828125 C 2.234375 -0.648438 2.351562 -0.519531 2.53125 -0.4375 C 2.71875 -0.351562 3 -0.300781 3.375 -0.28125 L 3.375 0 C 3.039062 -0.03125 2.554688 -0.046875 1.921875 -0.046875 C 1.347656 -0.046875 0.90625 -0.03125 0.59375 0 L 0.59375 -0.28125 C 0.925781 -0.300781 1.171875 -0.351562 1.328125 -0.4375 C 1.492188 -0.519531 1.601562 -0.648438 1.65625 -0.828125 C 1.71875 -1.015625 1.75 -1.289062 1.75 -1.65625 L 1.75 -8.59375 C 1.75 -8.945312 1.71875 -9.203125 1.65625 -9.359375 C 1.601562 -9.523438 1.5 -9.632812 1.34375 -9.6875 C 1.1875 -9.75 0.9375 -9.789062 0.59375 -9.8125 L 0.59375 -10.09375 C 0.90625 -10.070312 1.347656 -10.0625 1.921875 -10.0625 C 2.347656 -10.0625 2.71875 -10.070312 3.03125 -10.09375 L 8.078125 -2.34375 L 8.078125 -8.4375 C 8.078125 -8.8125 8.046875 -9.085938 7.984375 -9.265625 C 7.921875 -9.453125 7.796875 -9.582031 7.609375 -9.65625 C 7.429688 -9.738281 7.15625 -9.789062 6.78125 -9.8125 L 6.78125 -10.09375 C 7.125 -10.070312 7.609375 -10.0625 8.234375 -10.0625 C 8.804688 -10.0625 9.25 -10.070312 9.5625 -10.09375 Z M 9.5625 -9.8125 "/></g></g></g><g fill="#3282df" fill-opacity="1"><g transform="translate(95.678595, 260.591745)"><g><path d="M 9.5625 -9.8125 C 9.226562 -9.789062 8.976562 -9.738281 8.8125 -9.65625 C 8.65625 -9.582031 8.546875 -9.453125 8.484375 -9.265625 C 8.429688 -9.078125 8.40625 -8.800781 8.40625 -8.4375 L 8.40625 0.078125 L 8.078125 0.078125 L 2.078125 -9.1875 L 2.078125 -1.65625 C 2.078125 -1.28125 2.109375 -1.003906 2.171875 -0.828125 C 2.234375 -0.648438 2.351562 -0.519531 2.53125 -0.4375 C 2.71875 -0.351562 3 -0.300781 3.375 -0.28125 L 3.375 0 C 3.039062 -0.03125 2.554688 -0.046875 1.921875 -0.046875 C 1.347656 -0.046875 0.90625 -0.03125 0.59375 0 L 0.59375 -0.28125 C 0.925781 -0.300781 1.171875 -0.351562 1.328125 -0.4375 C 1.492188 -0.519531 1.601562 -0.648438 1.65625 -0.828125 C 1.71875 -1.015625 1.75 -1.289062 1.75 -1.65625 L 1.75 -8.59375 C 1.75 -8.945312 1.71875 -9.203125 1.65625 -9.359375 C 1.601562 -9.523438 1.5 -9.632812 1.34375 -9.6875 C 1.1875 -9.75 0.9375 -9.789062 0.59375 -9.8125 L 0.59375 -10.09375 C 0.90625 -10.070312 1.347656 -10.0625 1.921875 -10.0625 C 2.347656 -10.0625 2.71875 -10.070312 3.03125 -10.09375 L 8.078125 -2.34375 L 8.078125 -8.4375 C 8.078125 -8.8125 8.046875 -9.085938 7.984375 -9.265625 C 7.921875 -9.453125 7.796875 -9.582031 7.609375 -9.65625 C 7.429688 -9.738281 7.15625 -9.789062 6.78125 -9.8125 L 6.78125 -10.09375 C 7.125 -10.070312 7.609375 -10.0625 8.234375 -10.0625 C 8.804688 -10.0625 9.25 -10.070312 9.5625 -10.09375 Z M 9.5625 -9.8125 "/></g></g></g><g fill="#3282df" fill-opacity="1"><g transform="translate(107.530488, 260.591745)"><g><path d="M 5.296875 -10.296875 C 6.191406 -10.296875 6.976562 -10.09375 7.65625 -9.6875 C 8.34375 -9.28125 8.875 -8.6875 9.25 -7.90625 C 9.625 -7.132812 9.8125 -6.210938 9.8125 -5.140625 C 9.8125 -4.085938 9.617188 -3.15625 9.234375 -2.34375 C 8.847656 -1.539062 8.3125 -0.914062 7.625 -0.46875 C 6.9375 -0.0195312 6.15625 0.203125 5.28125 0.203125 C 4.375 0.203125 3.582031 0 2.90625 -0.40625 C 2.226562 -0.820312 1.695312 -1.414062 1.3125 -2.1875 C 0.9375 -2.96875 0.75 -3.894531 0.75 -4.96875 C 0.75 -6.007812 0.941406 -6.929688 1.328125 -7.734375 C 1.710938 -8.546875 2.25 -9.175781 2.9375 -9.625 C 3.632812 -10.070312 4.421875 -10.296875 5.296875 -10.296875 Z M 5.234375 -10.046875 C 4.628906 -10.046875 4.09375 -9.832031 3.625 -9.40625 C 3.164062 -8.976562 2.8125 -8.382812 2.5625 -7.625 C 2.3125 -6.863281 2.1875 -5.992188 2.1875 -5.015625 C 2.1875 -4.023438 2.328125 -3.15625 2.609375 -2.40625 C 2.890625 -1.65625 3.265625 -1.078125 3.734375 -0.671875 C 4.210938 -0.265625 4.742188 -0.0625 5.328125 -0.0625 C 5.941406 -0.0625 6.476562 -0.269531 6.9375 -0.6875 C 7.394531 -1.113281 7.75 -1.707031 8 -2.46875 C 8.257812 -3.226562 8.390625 -4.097656 8.390625 -5.078125 C 8.390625 -6.066406 8.25 -6.9375 7.96875 -7.6875 C 7.6875 -8.4375 7.304688 -9.015625 6.828125 -9.421875 C 6.359375 -9.835938 5.828125 -10.046875 5.234375 -10.046875 Z M 5.234375 -10.046875 "/></g></g></g><g fill="#3282df" fill-opacity="1"><g transform="translate(119.881546, 260.591745)"><g><path d="M 8.015625 -10.0625 C 8.441406 -10.0625 8.800781 -10.070312 9.09375 -10.09375 L 9.09375 -9.8125 C 8.613281 -9.695312 8.234375 -9.285156 7.953125 -8.578125 L 4.609375 0.078125 L 4.375 0.078125 L 0.90625 -8.90625 C 0.675781 -9.488281 0.347656 -9.789062 -0.078125 -9.8125 L -0.078125 -10.09375 C 0.296875 -10.070312 0.800781 -10.0625 1.4375 -10.0625 C 2.257812 -10.0625 2.867188 -10.070312 3.265625 -10.09375 L 3.265625 -9.8125 C 2.898438 -9.789062 2.640625 -9.742188 2.484375 -9.671875 C 2.328125 -9.609375 2.25 -9.476562 2.25 -9.28125 C 2.25 -9.125 2.304688 -8.898438 2.421875 -8.609375 L 5 -1.75 L 7.328125 -7.78125 C 7.523438 -8.300781 7.625 -8.691406 7.625 -8.953125 C 7.625 -9.253906 7.519531 -9.46875 7.3125 -9.59375 C 7.101562 -9.726562 6.789062 -9.800781 6.375 -9.8125 L 6.375 -10.09375 C 6.914062 -10.070312 7.460938 -10.0625 8.015625 -10.0625 Z M 8.015625 -10.0625 "/></g></g></g><g fill="#3282df" fill-opacity="1"><g transform="translate(130.649554, 260.591745)"><g><path d="M 8.09375 -1.203125 C 8.320312 -0.609375 8.648438 -0.300781 9.078125 -0.28125 L 9.078125 0 C 8.691406 -0.03125 8.179688 -0.046875 7.546875 -0.046875 C 6.722656 -0.046875 6.113281 -0.03125 5.71875 0 L 5.71875 -0.28125 C 6.082031 -0.300781 6.34375 -0.347656 6.5 -0.421875 C 6.65625 -0.492188 6.734375 -0.625 6.734375 -0.8125 C 6.734375 -0.976562 6.675781 -1.203125 6.5625 -1.484375 L 5.6875 -3.828125 L 2.234375 -3.828125 L 1.65625 -2.3125 C 1.46875 -1.800781 1.375 -1.410156 1.375 -1.140625 C 1.375 -0.847656 1.472656 -0.632812 1.671875 -0.5 C 1.878906 -0.363281 2.191406 -0.289062 2.609375 -0.28125 L 2.609375 0 C 2.066406 -0.03125 1.519531 -0.046875 0.96875 -0.046875 C 0.539062 -0.046875 0.1875 -0.03125 -0.09375 0 L -0.09375 -0.28125 C 0.375 -0.394531 0.75 -0.8125 1.03125 -1.53125 L 4.375 -10.171875 L 4.609375 -10.171875 Z M 5.578125 -4.109375 L 3.984375 -8.375 L 2.359375 -4.109375 Z M 5.578125 -4.109375 "/></g></g></g><g fill="#3282df" fill-opacity="1"><g transform="translate(141.417563, 260.591745)"><g><path d="M 8.4375 -10.09375 C 8.375 -9.425781 8.34375 -8.820312 8.34375 -8.28125 C 8.34375 -7.800781 8.359375 -7.410156 8.390625 -7.109375 L 8.0625 -7.109375 C 7.988281 -7.835938 7.894531 -8.378906 7.78125 -8.734375 C 7.664062 -9.085938 7.460938 -9.347656 7.171875 -9.515625 C 6.890625 -9.679688 6.453125 -9.765625 5.859375 -9.765625 L 5.09375 -9.765625 L 5.09375 -1.65625 C 5.09375 -1.257812 5.128906 -0.96875 5.203125 -0.78125 C 5.285156 -0.601562 5.421875 -0.476562 5.609375 -0.40625 C 5.796875 -0.34375 6.101562 -0.300781 6.53125 -0.28125 L 6.53125 0 C 6.039062 -0.03125 5.34375 -0.046875 4.4375 -0.046875 C 3.488281 -0.046875 2.785156 -0.03125 2.328125 0 L 2.328125 -0.28125 C 2.753906 -0.300781 3.0625 -0.34375 3.25 -0.40625 C 3.4375 -0.476562 3.566406 -0.601562 3.640625 -0.78125 C 3.722656 -0.96875 3.765625 -1.257812 3.765625 -1.65625 L 3.765625 -9.765625 L 3 -9.765625 C 2.40625 -9.765625 1.960938 -9.679688 1.671875 -9.515625 C 1.390625 -9.347656 1.191406 -9.085938 1.078125 -8.734375 C 0.960938 -8.378906 0.867188 -7.835938 0.796875 -7.109375 L 0.46875 -7.109375 C 0.5 -7.410156 0.515625 -7.800781 0.515625 -8.28125 C 0.515625 -8.820312 0.476562 -9.425781 0.40625 -10.09375 C 1.195312 -10.070312 2.539062 -10.0625 4.4375 -10.0625 C 6.320312 -10.0625 7.65625 -10.070312 8.4375 -10.09375 Z M 8.4375 -10.09375 "/></g></g></g><g fill="#3282df" fill-opacity="1"><g transform="translate(152.057214, 260.591745)"><g><path d="M 4.234375 -9.8125 C 3.890625 -9.789062 3.640625 -9.75 3.484375 -9.6875 C 3.328125 -9.632812 3.21875 -9.523438 3.15625 -9.359375 C 3.101562 -9.203125 3.078125 -8.945312 3.078125 -8.59375 L 3.078125 -1.515625 C 3.078125 -1.148438 3.101562 -0.882812 3.15625 -0.71875 C 3.21875 -0.5625 3.328125 -0.453125 3.484375 -0.390625 C 3.640625 -0.335938 3.890625 -0.300781 4.234375 -0.28125 L 4.234375 0 C 3.796875 -0.03125 3.191406 -0.046875 2.421875 -0.046875 C 1.609375 -0.046875 1 -0.03125 0.59375 0 L 0.59375 -0.28125 C 0.9375 -0.300781 1.1875 -0.335938 1.34375 -0.390625 C 1.5 -0.453125 1.601562 -0.5625 1.65625 -0.71875 C 1.71875 -0.882812 1.75 -1.148438 1.75 -1.515625 L 1.75 -8.59375 C 1.75 -8.945312 1.71875 -9.203125 1.65625 -9.359375 C 1.601562 -9.523438 1.5 -9.632812 1.34375 -9.6875 C 1.1875 -9.75 0.9375 -9.789062 0.59375 -9.8125 L 0.59375 -10.09375 C 1 -10.070312 1.609375 -10.0625 2.421875 -10.0625 C 3.179688 -10.0625 3.785156 -10.070312 4.234375 -10.09375 Z M 4.234375 -9.8125 "/></g></g></g><g fill="#3282df" fill-opacity="1"><g transform="translate(158.67508, 260.591745)"><g><path d="M 9.5625 -9.8125 C 9.226562 -9.789062 8.976562 -9.738281 8.8125 -9.65625 C 8.65625 -9.582031 8.546875 -9.453125 8.484375 -9.265625 C 8.429688 -9.078125 8.40625 -8.800781 8.40625 -8.4375 L 8.40625 0.078125 L 8.078125 0.078125 L 2.078125 -9.1875 L 2.078125 -1.65625 C 2.078125 -1.28125 2.109375 -1.003906 2.171875 -0.828125 C 2.234375 -0.648438 2.351562 -0.519531 2.53125 -0.4375 C 2.71875 -0.351562 3 -0.300781 3.375 -0.28125 L 3.375 0 C 3.039062 -0.03125 2.554688 -0.046875 1.921875 -0.046875 C 1.347656 -0.046875 0.90625 -0.03125 0.59375 0 L 0.59375 -0.28125 C 0.925781 -0.300781 1.171875 -0.351562 1.328125 -0.4375 C 1.492188 -0.519531 1.601562 -0.648438 1.65625 -0.828125 C 1.71875 -1.015625 1.75 -1.289062 1.75 -1.65625 L 1.75 -8.59375 C 1.75 -8.945312 1.71875 -9.203125 1.65625 -9.359375 C 1.601562 -9.523438 1.5 -9.632812 1.34375 -9.6875 C 1.1875 -9.75 0.9375 -9.789062 0.59375 -9.8125 L 0.59375 -10.09375 C 0.90625 -10.070312 1.347656 -10.0625 1.921875 -10.0625 C 2.347656 -10.0625 2.71875 -10.070312 3.03125 -10.09375 L 8.078125 -2.34375 L 8.078125 -8.4375 C 8.078125 -8.8125 8.046875 -9.085938 7.984375 -9.265625 C 7.921875 -9.453125 7.796875 -9.582031 7.609375 -9.65625 C 7.429688 -9.738281 7.15625 -9.789062 6.78125 -9.8125 L 6.78125 -10.09375 C 7.125 -10.070312 7.609375 -10.0625 8.234375 -10.0625 C 8.804688 -10.0625 9.25 -10.070312 9.5625 -10.09375 Z M 9.5625 -9.8125 "/></g></g></g><g fill="#3282df" fill-opacity="1"><g transform="translate(170.52697, 260.591745)"><g><path d="M 5.359375 -10.296875 C 5.921875 -10.296875 6.382812 -10.21875 6.75 -10.0625 C 7.113281 -9.90625 7.507812 -9.675781 7.9375 -9.375 C 8.050781 -9.28125 8.144531 -9.234375 8.21875 -9.234375 C 8.394531 -9.234375 8.515625 -9.519531 8.578125 -10.09375 L 8.90625 -10.09375 C 8.863281 -9.476562 8.84375 -8.382812 8.84375 -6.8125 L 8.515625 -6.8125 C 8.429688 -7.320312 8.34375 -7.738281 8.25 -8.0625 C 8.15625 -8.394531 8.003906 -8.6875 7.796875 -8.9375 C 7.523438 -9.269531 7.164062 -9.535156 6.71875 -9.734375 C 6.28125 -9.941406 5.816406 -10.046875 5.328125 -10.046875 C 4.703125 -10.046875 4.148438 -9.835938 3.671875 -9.421875 C 3.203125 -9.015625 2.835938 -8.429688 2.578125 -7.671875 C 2.328125 -6.921875 2.203125 -6.039062 2.203125 -5.03125 C 2.203125 -3.320312 2.472656 -2.066406 3.015625 -1.265625 C 3.566406 -0.472656 4.425781 -0.078125 5.59375 -0.078125 C 6.164062 -0.078125 6.660156 -0.226562 7.078125 -0.53125 C 7.242188 -0.644531 7.351562 -0.753906 7.40625 -0.859375 C 7.457031 -0.972656 7.484375 -1.125 7.484375 -1.3125 L 7.484375 -2.6875 C 7.484375 -3.082031 7.445312 -3.367188 7.375 -3.546875 C 7.300781 -3.734375 7.164062 -3.859375 6.96875 -3.921875 C 6.78125 -3.984375 6.472656 -4.023438 6.046875 -4.046875 L 6.046875 -4.34375 C 6.546875 -4.3125 7.21875 -4.296875 8.0625 -4.296875 C 8.707031 -4.296875 9.203125 -4.3125 9.546875 -4.34375 L 9.546875 -4.046875 C 9.328125 -4.023438 9.164062 -3.988281 9.0625 -3.9375 C 8.96875 -3.882812 8.898438 -3.773438 8.859375 -3.609375 C 8.828125 -3.441406 8.8125 -3.179688 8.8125 -2.828125 L 8.8125 0 L 8.53125 0 C 8.519531 -0.1875 8.476562 -0.367188 8.40625 -0.546875 C 8.34375 -0.722656 8.253906 -0.8125 8.140625 -0.8125 C 8.085938 -0.8125 8.03125 -0.796875 7.96875 -0.765625 C 7.914062 -0.742188 7.816406 -0.679688 7.671875 -0.578125 C 7.335938 -0.316406 6.992188 -0.125 6.640625 0 C 6.285156 0.132812 5.890625 0.203125 5.453125 0.203125 C 4.472656 0.203125 3.632812 0 2.9375 -0.40625 C 2.238281 -0.8125 1.703125 -1.394531 1.328125 -2.15625 C 0.953125 -2.914062 0.765625 -3.820312 0.765625 -4.875 C 0.765625 -5.957031 0.960938 -6.910156 1.359375 -7.734375 C 1.753906 -8.554688 2.296875 -9.1875 2.984375 -9.625 C 3.679688 -10.070312 4.472656 -10.296875 5.359375 -10.296875 Z M 5.359375 -10.296875 "/></g></g></g><g fill="#3282df" fill-opacity="1"><g transform="translate(182.336088, 260.591745)"><g/></g></g><g fill="#3282df" fill-opacity="1"><g transform="translate(187.670407, 260.591745)"><g><path d="M 11.875 -10.0625 C 12.300781 -10.0625 12.65625 -10.070312 12.9375 -10.09375 L 12.9375 -9.8125 C 12.40625 -9.6875 12.03125 -9.273438 11.8125 -8.578125 L 9.109375 0.078125 L 8.890625 0.078125 L 6.40625 -7.28125 L 4.140625 0.078125 L 3.90625 0.078125 L 0.890625 -8.90625 C 0.679688 -9.488281 0.351562 -9.789062 -0.09375 -9.8125 L -0.09375 -10.09375 C 0.289062 -10.070312 0.796875 -10.0625 1.421875 -10.0625 C 2.109375 -10.0625 2.625 -10.070312 2.96875 -10.09375 L 2.96875 -9.8125 C 2.707031 -9.789062 2.523438 -9.742188 2.421875 -9.671875 C 2.316406 -9.597656 2.265625 -9.476562 2.265625 -9.3125 C 2.265625 -9.164062 2.316406 -8.929688 2.421875 -8.609375 L 4.515625 -2.25 L 6.25 -7.78125 L 5.859375 -8.90625 C 5.671875 -9.488281 5.390625 -9.789062 5.015625 -9.8125 L 5.015625 -10.09375 C 5.359375 -10.070312 5.820312 -10.0625 6.40625 -10.0625 C 7.21875 -10.0625 7.828125 -10.070312 8.234375 -10.09375 L 8.234375 -9.8125 C 7.867188 -9.789062 7.613281 -9.75 7.46875 -9.6875 C 7.332031 -9.625 7.265625 -9.492188 7.265625 -9.296875 C 7.265625 -9.128906 7.3125 -8.898438 7.40625 -8.609375 L 9.453125 -2.265625 L 11.21875 -7.78125 C 11.363281 -8.25 11.4375 -8.632812 11.4375 -8.9375 C 11.4375 -9.257812 11.34375 -9.484375 11.15625 -9.609375 C 10.96875 -9.734375 10.660156 -9.800781 10.234375 -9.8125 L 10.234375 -10.09375 C 10.773438 -10.070312 11.320312 -10.0625 11.875 -10.0625 Z M 11.875 -10.0625 "/></g></g></g><g fill="#3282df" fill-opacity="1"><g transform="translate(202.360374, 260.591745)"><g><path d="M 4.234375 -9.8125 C 3.890625 -9.789062 3.640625 -9.75 3.484375 -9.6875 C 3.328125 -9.632812 3.21875 -9.523438 3.15625 -9.359375 C 3.101562 -9.203125 3.078125 -8.945312 3.078125 -8.59375 L 3.078125 -1.515625 C 3.078125 -1.148438 3.101562 -0.882812 3.15625 -0.71875 C 3.21875 -0.5625 3.328125 -0.453125 3.484375 -0.390625 C 3.640625 -0.335938 3.890625 -0.300781 4.234375 -0.28125 L 4.234375 0 C 3.796875 -0.03125 3.191406 -0.046875 2.421875 -0.046875 C 1.609375 -0.046875 1 -0.03125 0.59375 0 L 0.59375 -0.28125 C 0.9375 -0.300781 1.1875 -0.335938 1.34375 -0.390625 C 1.5 -0.453125 1.601562 -0.5625 1.65625 -0.71875 C 1.71875 -0.882812 1.75 -1.148438 1.75 -1.515625 L 1.75 -8.59375 C 1.75 -8.945312 1.71875 -9.203125 1.65625 -9.359375 C 1.601562 -9.523438 1.5 -9.632812 1.34375 -9.6875 C 1.1875 -9.75 0.9375 -9.789062 0.59375 -9.8125 L 0.59375 -10.09375 C 1 -10.070312 1.609375 -10.0625 2.421875 -10.0625 C 3.179688 -10.0625 3.785156 -10.070312 4.234375 -10.09375 Z M 4.234375 -9.8125 "/></g></g></g><g fill="#3282df" fill-opacity="1"><g transform="translate(208.978241, 260.591745)"><g><path d="M 8.4375 -10.09375 C 8.375 -9.425781 8.34375 -8.820312 8.34375 -8.28125 C 8.34375 -7.800781 8.359375 -7.410156 8.390625 -7.109375 L 8.0625 -7.109375 C 7.988281 -7.835938 7.894531 -8.378906 7.78125 -8.734375 C 7.664062 -9.085938 7.460938 -9.347656 7.171875 -9.515625 C 6.890625 -9.679688 6.453125 -9.765625 5.859375 -9.765625 L 5.09375 -9.765625 L 5.09375 -1.65625 C 5.09375 -1.257812 5.128906 -0.96875 5.203125 -0.78125 C 5.285156 -0.601562 5.421875 -0.476562 5.609375 -0.40625 C 5.796875 -0.34375 6.101562 -0.300781 6.53125 -0.28125 L 6.53125 0 C 6.039062 -0.03125 5.34375 -0.046875 4.4375 -0.046875 C 3.488281 -0.046875 2.785156 -0.03125 2.328125 0 L 2.328125 -0.28125 C 2.753906 -0.300781 3.0625 -0.34375 3.25 -0.40625 C 3.4375 -0.476562 3.566406 -0.601562 3.640625 -0.78125 C 3.722656 -0.96875 3.765625 -1.257812 3.765625 -1.65625 L 3.765625 -9.765625 L 3 -9.765625 C 2.40625 -9.765625 1.960938 -9.679688 1.671875 -9.515625 C 1.390625 -9.347656 1.191406 -9.085938 1.078125 -8.734375 C 0.960938 -8.378906 0.867188 -7.835938 0.796875 -7.109375 L 0.46875 -7.109375 C 0.5 -7.410156 0.515625 -7.800781 0.515625 -8.28125 C 0.515625 -8.820312 0.476562 -9.425781 0.40625 -10.09375 C 1.195312 -10.070312 2.539062 -10.0625 4.4375 -10.0625 C 6.320312 -10.0625 7.65625 -10.070312 8.4375 -10.09375 Z M 8.4375 -10.09375 "/></g></g></g><g fill="#3282df" fill-opacity="1"><g transform="translate(219.617892, 260.591745)"><g><path d="M 10.203125 -9.8125 C 9.859375 -9.789062 9.609375 -9.75 9.453125 -9.6875 C 9.296875 -9.632812 9.1875 -9.523438 9.125 -9.359375 C 9.070312 -9.203125 9.046875 -8.945312 9.046875 -8.59375 L 9.046875 -1.515625 C 9.046875 -1.148438 9.070312 -0.882812 9.125 -0.71875 C 9.1875 -0.5625 9.296875 -0.453125 9.453125 -0.390625 C 9.609375 -0.335938 9.859375 -0.300781 10.203125 -0.28125 L 10.203125 0 C 9.796875 -0.03125 9.1875 -0.046875 8.375 -0.046875 C 7.601562 -0.046875 7 -0.03125 6.5625 0 L 6.5625 -0.28125 C 6.90625 -0.300781 7.15625 -0.335938 7.3125 -0.390625 C 7.46875 -0.453125 7.570312 -0.5625 7.625 -0.71875 C 7.6875 -0.882812 7.71875 -1.148438 7.71875 -1.515625 L 7.71875 -4.9375 L 3.078125 -4.9375 L 3.078125 -1.515625 C 3.078125 -1.148438 3.101562 -0.882812 3.15625 -0.71875 C 3.21875 -0.5625 3.328125 -0.453125 3.484375 -0.390625 C 3.640625 -0.335938 3.890625 -0.300781 4.234375 -0.28125 L 4.234375 0 C 3.796875 -0.03125 3.191406 -0.046875 2.421875 -0.046875 C 1.609375 -0.046875 1 -0.03125 0.59375 0 L 0.59375 -0.28125 C 0.9375 -0.300781 1.1875 -0.335938 1.34375 -0.390625 C 1.5 -0.453125 1.601562 -0.5625 1.65625 -0.71875 C 1.71875 -0.882812 1.75 -1.148438 1.75 -1.515625 L 1.75 -8.59375 C 1.75 -8.945312 1.71875 -9.203125 1.65625 -9.359375 C 1.601562 -9.523438 1.5 -9.632812 1.34375 -9.6875 C 1.1875 -9.75 0.9375 -9.789062 0.59375 -9.8125 L 0.59375 -10.09375 C 1 -10.070312 1.609375 -10.0625 2.421875 -10.0625 C 3.179688 -10.0625 3.785156 -10.070312 4.234375 -10.09375 L 4.234375 -9.8125 C 3.890625 -9.789062 3.640625 -9.75 3.484375 -9.6875 C 3.328125 -9.632812 3.21875 -9.523438 3.15625 -9.359375 C 3.101562 -9.203125 3.078125 -8.945312 3.078125 -8.59375 L 3.078125 -5.21875 L 7.71875 -5.21875 L 7.71875 -8.59375 C 7.71875 -8.945312 7.6875 -9.203125 7.625 -9.359375 C 7.570312 -9.523438 7.46875 -9.632812 7.3125 -9.6875 C 7.15625 -9.75 6.90625 -9.789062 6.5625 -9.8125 L 6.5625 -10.09375 C 7 -10.070312 7.601562 -10.0625 8.375 -10.0625 C 9.1875 -10.0625 9.796875 -10.070312 10.203125 -10.09375 Z M 10.203125 -9.8125 "/></g></g></g><g fill="#3282df" fill-opacity="1"><g transform="translate(232.197134, 260.591745)"><g/></g></g><g fill="#3282df" fill-opacity="1"><g transform="translate(237.531454, 260.591745)"><g><path d="M 7.90625 -1.828125 C 7.90625 -1.285156 7.9375 -0.675781 8 0 C 7.351562 -0.03125 6.265625 -0.046875 4.734375 -0.046875 C 2.910156 -0.046875 1.53125 -0.03125 0.59375 0 L 0.59375 -0.28125 C 0.9375 -0.300781 1.1875 -0.335938 1.34375 -0.390625 C 1.5 -0.453125 1.601562 -0.5625 1.65625 -0.71875 C 1.71875 -0.882812 1.75 -1.148438 1.75 -1.515625 L 1.75 -8.59375 C 1.75 -8.945312 1.71875 -9.203125 1.65625 -9.359375 C 1.601562 -9.523438 1.5 -9.632812 1.34375 -9.6875 C 1.1875 -9.75 0.9375 -9.789062 0.59375 -9.8125 L 0.59375 -10.09375 C 1.53125 -10.070312 2.910156 -10.0625 4.734375 -10.0625 C 6.128906 -10.0625 7.125 -10.070312 7.71875 -10.09375 C 7.65625 -9.46875 7.625 -8.910156 7.625 -8.421875 C 7.625 -8.046875 7.632812 -7.75 7.65625 -7.53125 L 7.328125 -7.53125 C 7.265625 -8.144531 7.179688 -8.601562 7.078125 -8.90625 C 6.972656 -9.207031 6.796875 -9.425781 6.546875 -9.5625 C 6.296875 -9.695312 5.921875 -9.765625 5.421875 -9.765625 L 4.234375 -9.765625 C 3.890625 -9.765625 3.640625 -9.738281 3.484375 -9.6875 C 3.328125 -9.632812 3.21875 -9.523438 3.15625 -9.359375 C 3.101562 -9.203125 3.078125 -8.945312 3.078125 -8.59375 L 3.078125 -5.21875 L 4.015625 -5.21875 C 4.347656 -5.21875 4.601562 -5.296875 4.78125 -5.453125 C 4.96875 -5.609375 5.09375 -5.789062 5.15625 -6 C 5.21875 -6.21875 5.269531 -6.488281 5.3125 -6.8125 L 5.34375 -7.109375 L 5.671875 -7.109375 C 5.648438 -6.703125 5.640625 -6.253906 5.640625 -5.765625 L 5.640625 -5.078125 C 5.640625 -4.585938 5.664062 -3.910156 5.71875 -3.046875 L 5.390625 -3.046875 C 5.378906 -3.117188 5.347656 -3.351562 5.296875 -3.75 C 5.253906 -4.144531 5.125 -4.441406 4.90625 -4.640625 C 4.695312 -4.835938 4.398438 -4.9375 4.015625 -4.9375 L 3.078125 -4.9375 L 3.078125 -1.515625 C 3.078125 -1.148438 3.101562 -0.882812 3.15625 -0.71875 C 3.21875 -0.5625 3.328125 -0.457031 3.484375 -0.40625 C 3.640625 -0.351562 3.890625 -0.328125 4.234375 -0.328125 L 5.28125 -0.328125 C 5.863281 -0.328125 6.3125 -0.40625 6.625 -0.5625 C 6.9375 -0.71875 7.160156 -0.96875 7.296875 -1.3125 C 7.441406 -1.664062 7.550781 -2.179688 7.625 -2.859375 L 7.953125 -2.859375 C 7.921875 -2.597656 7.90625 -2.253906 7.90625 -1.828125 Z M 7.90625 -1.828125 "/></g></g></g><g fill="#3282df" fill-opacity="1"><g transform="translate(247.99997, 260.591745)"><g><path d="M 8.4375 -10.09375 C 8.375 -9.425781 8.34375 -8.820312 8.34375 -8.28125 C 8.34375 -7.800781 8.359375 -7.410156 8.390625 -7.109375 L 8.0625 -7.109375 C 7.988281 -7.835938 7.894531 -8.378906 7.78125 -8.734375 C 7.664062 -9.085938 7.460938 -9.347656 7.171875 -9.515625 C 6.890625 -9.679688 6.453125 -9.765625 5.859375 -9.765625 L 5.09375 -9.765625 L 5.09375 -1.65625 C 5.09375 -1.257812 5.128906 -0.96875 5.203125 -0.78125 C 5.285156 -0.601562 5.421875 -0.476562 5.609375 -0.40625 C 5.796875 -0.34375 6.101562 -0.300781 6.53125 -0.28125 L 6.53125 0 C 6.039062 -0.03125 5.34375 -0.046875 4.4375 -0.046875 C 3.488281 -0.046875 2.785156 -0.03125 2.328125 0 L 2.328125 -0.28125 C 2.753906 -0.300781 3.0625 -0.34375 3.25 -0.40625 C 3.4375 -0.476562 3.566406 -0.601562 3.640625 -0.78125 C 3.722656 -0.96875 3.765625 -1.257812 3.765625 -1.65625 L 3.765625 -9.765625 L 3 -9.765625 C 2.40625 -9.765625 1.960938 -9.679688 1.671875 -9.515625 C 1.390625 -9.347656 1.191406 -9.085938 1.078125 -8.734375 C 0.960938 -8.378906 0.867188 -7.835938 0.796875 -7.109375 L 0.46875 -7.109375 C 0.5 -7.410156 0.515625 -7.800781 0.515625 -8.28125 C 0.515625 -8.820312 0.476562 -9.425781 0.40625 -10.09375 C 1.195312 -10.070312 2.539062 -10.0625 4.4375 -10.0625 C 6.320312 -10.0625 7.65625 -10.070312 8.4375 -10.09375 Z M 8.4375 -10.09375 "/></g></g></g><g fill="#3282df" fill-opacity="1"><g transform="translate(258.639622, 260.591745)"><g><path d="M 10.203125 -9.8125 C 9.859375 -9.789062 9.609375 -9.75 9.453125 -9.6875 C 9.296875 -9.632812 9.1875 -9.523438 9.125 -9.359375 C 9.070312 -9.203125 9.046875 -8.945312 9.046875 -8.59375 L 9.046875 -1.515625 C 9.046875 -1.148438 9.070312 -0.882812 9.125 -0.71875 C 9.1875 -0.5625 9.296875 -0.453125 9.453125 -0.390625 C 9.609375 -0.335938 9.859375 -0.300781 10.203125 -0.28125 L 10.203125 0 C 9.796875 -0.03125 9.1875 -0.046875 8.375 -0.046875 C 7.601562 -0.046875 7 -0.03125 6.5625 0 L 6.5625 -0.28125 C 6.90625 -0.300781 7.15625 -0.335938 7.3125 -0.390625 C 7.46875 -0.453125 7.570312 -0.5625 7.625 -0.71875 C 7.6875 -0.882812 7.71875 -1.148438 7.71875 -1.515625 L 7.71875 -4.9375 L 3.078125 -4.9375 L 3.078125 -1.515625 C 3.078125 -1.148438 3.101562 -0.882812 3.15625 -0.71875 C 3.21875 -0.5625 3.328125 -0.453125 3.484375 -0.390625 C 3.640625 -0.335938 3.890625 -0.300781 4.234375 -0.28125 L 4.234375 0 C 3.796875 -0.03125 3.191406 -0.046875 2.421875 -0.046875 C 1.609375 -0.046875 1 -0.03125 0.59375 0 L 0.59375 -0.28125 C 0.9375 -0.300781 1.1875 -0.335938 1.34375 -0.390625 C 1.5 -0.453125 1.601562 -0.5625 1.65625 -0.71875 C 1.71875 -0.882812 1.75 -1.148438 1.75 -1.515625 L 1.75 -8.59375 C 1.75 -8.945312 1.71875 -9.203125 1.65625 -9.359375 C 1.601562 -9.523438 1.5 -9.632812 1.34375 -9.6875 C 1.1875 -9.75 0.9375 -9.789062 0.59375 -9.8125 L 0.59375 -10.09375 C 1 -10.070312 1.609375 -10.0625 2.421875 -10.0625 C 3.179688 -10.0625 3.785156 -10.070312 4.234375 -10.09375 L 4.234375 -9.8125 C 3.890625 -9.789062 3.640625 -9.75 3.484375 -9.6875 C 3.328125 -9.632812 3.21875 -9.523438 3.15625 -9.359375 C 3.101562 -9.203125 3.078125 -8.945312 3.078125 -8.59375 L 3.078125 -5.21875 L 7.71875 -5.21875 L 7.71875 -8.59375 C 7.71875 -8.945312 7.6875 -9.203125 7.625 -9.359375 C 7.570312 -9.523438 7.46875 -9.632812 7.3125 -9.6875 C 7.15625 -9.75 6.90625 -9.789062 6.5625 -9.8125 L 6.5625 -10.09375 C 7 -10.070312 7.601562 -10.0625 8.375 -10.0625 C 9.1875 -10.0625 9.796875 -10.070312 10.203125 -10.09375 Z M 10.203125 -9.8125 "/></g></g></g><g fill="#3282df" fill-opacity="1"><g transform="translate(271.218875, 260.591745)"><g><path d="M 4.234375 -9.8125 C 3.890625 -9.789062 3.640625 -9.75 3.484375 -9.6875 C 3.328125 -9.632812 3.21875 -9.523438 3.15625 -9.359375 C 3.101562 -9.203125 3.078125 -8.945312 3.078125 -8.59375 L 3.078125 -1.515625 C 3.078125 -1.148438 3.101562 -0.882812 3.15625 -0.71875 C 3.21875 -0.5625 3.328125 -0.453125 3.484375 -0.390625 C 3.640625 -0.335938 3.890625 -0.300781 4.234375 -0.28125 L 4.234375 0 C 3.796875 -0.03125 3.191406 -0.046875 2.421875 -0.046875 C 1.609375 -0.046875 1 -0.03125 0.59375 0 L 0.59375 -0.28125 C 0.9375 -0.300781 1.1875 -0.335938 1.34375 -0.390625 C 1.5 -0.453125 1.601562 -0.5625 1.65625 -0.71875 C 1.71875 -0.882812 1.75 -1.148438 1.75 -1.515625 L 1.75 -8.59375 C 1.75 -8.945312 1.71875 -9.203125 1.65625 -9.359375 C 1.601562 -9.523438 1.5 -9.632812 1.34375 -9.6875 C 1.1875 -9.75 0.9375 -9.789062 0.59375 -9.8125 L 0.59375 -10.09375 C 1 -10.070312 1.609375 -10.0625 2.421875 -10.0625 C 3.179688 -10.0625 3.785156 -10.070312 4.234375 -10.09375 Z M 4.234375 -9.8125 "/></g></g></g><g fill="#3282df" fill-opacity="1"><g transform="translate(277.836741, 260.591745)"><g><path d="M 5.296875 -10.296875 C 5.867188 -10.296875 6.351562 -10.210938 6.75 -10.046875 C 7.144531 -9.890625 7.535156 -9.664062 7.921875 -9.375 C 8.023438 -9.289062 8.113281 -9.25 8.1875 -9.25 C 8.375 -9.25 8.5 -9.53125 8.5625 -10.09375 L 8.890625 -10.09375 C 8.847656 -9.476562 8.828125 -8.382812 8.828125 -6.8125 L 8.5 -6.8125 C 8.394531 -7.4375 8.300781 -7.882812 8.21875 -8.15625 C 8.132812 -8.425781 7.988281 -8.6875 7.78125 -8.9375 C 7.5 -9.300781 7.132812 -9.578125 6.6875 -9.765625 C 6.25 -9.953125 5.773438 -10.046875 5.265625 -10.046875 C 4.648438 -10.046875 4.109375 -9.835938 3.640625 -9.421875 C 3.179688 -9.015625 2.820312 -8.429688 2.5625 -7.671875 C 2.3125 -6.921875 2.1875 -6.035156 2.1875 -5.015625 C 2.1875 -3.984375 2.320312 -3.09375 2.59375 -2.34375 C 2.875 -1.601562 3.257812 -1.039062 3.75 -0.65625 C 4.238281 -0.269531 4.789062 -0.078125 5.40625 -0.078125 C 5.882812 -0.078125 6.34375 -0.164062 6.78125 -0.34375 C 7.226562 -0.53125 7.582031 -0.804688 7.84375 -1.171875 C 8.03125 -1.429688 8.164062 -1.710938 8.25 -2.015625 C 8.34375 -2.328125 8.425781 -2.796875 8.5 -3.421875 L 8.828125 -3.421875 C 8.828125 -1.785156 8.847656 -0.644531 8.890625 0 L 8.5625 0 C 8.53125 -0.300781 8.488281 -0.515625 8.4375 -0.640625 C 8.382812 -0.773438 8.3125 -0.84375 8.21875 -0.84375 C 8.144531 -0.84375 8.046875 -0.804688 7.921875 -0.734375 C 7.492188 -0.421875 7.082031 -0.1875 6.6875 -0.03125 C 6.300781 0.125 5.832031 0.203125 5.28125 0.203125 C 4.375 0.203125 3.582031 0 2.90625 -0.40625 C 2.226562 -0.820312 1.695312 -1.414062 1.3125 -2.1875 C 0.9375 -2.96875 0.75 -3.894531 0.75 -4.96875 C 0.75 -6.007812 0.941406 -6.929688 1.328125 -7.734375 C 1.710938 -8.546875 2.25 -9.175781 2.9375 -9.625 C 3.632812 -10.070312 4.421875 -10.296875 5.296875 -10.296875 Z M 5.296875 -10.296875 "/></g></g></g><g fill="#3282df" fill-opacity="1"><g transform="translate(289.43194, 260.591745)"><g><path d="M 3.65625 -10.25 C 4.070312 -10.25 4.398438 -10.203125 4.640625 -10.109375 C 4.878906 -10.023438 5.128906 -9.898438 5.390625 -9.734375 C 5.597656 -9.597656 5.757812 -9.53125 5.875 -9.53125 C 5.957031 -9.53125 6.023438 -9.578125 6.078125 -9.671875 C 6.128906 -9.773438 6.164062 -9.9375 6.1875 -10.15625 L 6.515625 -10.15625 C 6.472656 -9.601562 6.453125 -8.632812 6.453125 -7.25 L 6.125 -7.25 C 6.0625 -8.019531 5.835938 -8.664062 5.453125 -9.1875 C 5.066406 -9.71875 4.507812 -9.984375 3.78125 -9.984375 C 3.269531 -9.984375 2.851562 -9.828125 2.53125 -9.515625 C 2.207031 -9.210938 2.046875 -8.816406 2.046875 -8.328125 C 2.046875 -7.960938 2.128906 -7.644531 2.296875 -7.375 C 2.460938 -7.113281 2.671875 -6.890625 2.921875 -6.703125 C 3.179688 -6.515625 3.546875 -6.273438 4.015625 -5.984375 L 4.4375 -5.71875 C 5.03125 -5.351562 5.5 -5.03125 5.84375 -4.75 C 6.195312 -4.46875 6.476562 -4.144531 6.6875 -3.78125 C 6.894531 -3.414062 7 -2.992188 7 -2.515625 C 7 -1.648438 6.710938 -0.976562 6.140625 -0.5 C 5.578125 -0.03125 4.859375 0.203125 3.984375 0.203125 C 3.523438 0.203125 3.148438 0.15625 2.859375 0.0625 C 2.566406 -0.03125 2.289062 -0.160156 2.03125 -0.328125 C 1.820312 -0.460938 1.660156 -0.53125 1.546875 -0.53125 C 1.453125 -0.53125 1.378906 -0.476562 1.328125 -0.375 C 1.285156 -0.28125 1.253906 -0.125 1.234375 0.09375 L 0.90625 0.09375 C 0.9375 -0.425781 0.953125 -1.566406 0.953125 -3.328125 L 1.28125 -3.328125 C 1.351562 -2.367188 1.59375 -1.585938 2 -0.984375 C 2.40625 -0.378906 3.03125 -0.078125 3.875 -0.078125 C 4.394531 -0.078125 4.832031 -0.238281 5.1875 -0.5625 C 5.550781 -0.882812 5.734375 -1.359375 5.734375 -1.984375 C 5.734375 -2.515625 5.554688 -2.960938 5.203125 -3.328125 C 4.847656 -3.703125 4.285156 -4.125 3.515625 -4.59375 C 2.953125 -4.9375 2.492188 -5.238281 2.140625 -5.5 C 1.796875 -5.769531 1.515625 -6.09375 1.296875 -6.46875 C 1.078125 -6.84375 0.96875 -7.28125 0.96875 -7.78125 C 0.96875 -8.582031 1.222656 -9.191406 1.734375 -9.609375 C 2.253906 -10.035156 2.894531 -10.25 3.65625 -10.25 Z M 3.65625 -10.25 "/></g></g></g><g clip-path="url(#50bad9b4f6)"><g clip-path="url(#50d969f35c)"><path fill="#ffffff" d="M 236.34375 18.152344 L 236.34375 116.886719 L 358.59375 116.886719 L 358.59375 18.152344 Z M 236.34375 18.152344 " fill-opacity="1" fill-rule="nonzero"/></g></g></svg>