<svg xmlns="http://www.w3.org/2000/svg" xmlns:xlink="http://www.w3.org/1999/xlink" width="500" zoomAndPan="magnify" viewBox="0 0 375 374.999991" height="500" preserveAspectRatio="xMidYMid meet" version="1.0"><defs><g/><clipPath id="7995d982f4"><path d="M 126.351562 88.136719 L 248.601562 88.136719 L 248.601562 187.136719 L 126.351562 187.136719 Z M 126.351562 88.136719 " clip-rule="nonzero"/></clipPath><clipPath id="0ae848f777"><path d="M 233.839844 142.652344 C 233.839844 138.582031 237.144531 135.304688 241.230469 135.304688 C 245.316406 135.304688 248.601562 138.601562 248.601562 142.652344 C 248.601562 146.726562 245.296875 150 241.230469 150 C 239.957031 150 238.742188 149.679688 237.695312 149.109375 L 232.375 156.914062 C 233.628906 158.011719 234.429688 159.621094 234.429688 161.4375 C 234.429688 164.753906 231.730469 167.441406 228.40625 167.441406 C 225.078125 167.441406 222.382812 164.753906 222.382812 161.4375 C 222.382812 159.167969 223.65625 157.179688 225.535156 156.175781 L 224.035156 152.386719 C 223.691406 152.464844 223.332031 152.5 222.972656 152.5 C 220.328125 152.5 218.203125 150.359375 218.203125 147.746094 C 218.203125 145.117188 220.347656 142.976562 222.972656 142.976562 C 223.40625 142.976562 223.84375 143.03125 224.242188 143.144531 L 227.339844 136.292969 C 226.582031 135.703125 226.085938 134.796875 226.085938 133.773438 C 226.085938 132.011719 227.511719 130.589844 229.277344 130.589844 C 230.058594 130.589844 230.761719 130.855469 231.3125 131.328125 L 236.859375 127.125 C 236.460938 126.40625 236.234375 125.554688 236.234375 124.664062 C 236.234375 123.1875 236.878906 121.84375 237.886719 120.914062 L 234.464844 115.894531 C 233.820312 116.199219 233.097656 116.371094 232.339844 116.371094 C 230.550781 116.371094 228.992188 115.421875 228.140625 114.023438 L 222.933594 116.199219 C 222.933594 116.273438 222.953125 116.351562 222.953125 116.40625 C 222.953125 117.601562 222.078125 118.585938 220.9375 118.773438 L 220.234375 123.8125 C 221.984375 124.359375 223.238281 125.988281 223.238281 127.902344 C 223.238281 130.269531 221.296875 132.199219 218.921875 132.199219 C 217.328125 132.199219 215.941406 131.328125 215.179688 130.042969 L 209.003906 132.3125 C 209.003906 132.332031 209.003906 132.351562 209.003906 132.390625 C 209.003906 133.660156 207.980469 134.679688 206.707031 134.679688 C 206.574219 134.679688 206.421875 134.664062 206.289062 134.644531 L 203.152344 140.324219 C 203.53125 140.664062 203.855469 141.082031 204.066406 141.554688 L 212.730469 139.738281 C 212.863281 138.601562 213.832031 137.710938 215.007812 137.710938 C 216.28125 137.710938 217.308594 138.734375 217.308594 140.003906 C 217.308594 141.175781 216.414062 142.140625 215.277344 142.273438 L 212.730469 154.394531 C 215.425781 155.265625 217.367188 157.785156 217.367188 160.757812 C 217.367188 164.449219 214.363281 167.460938 210.640625 167.460938 C 210.527344 167.460938 210.410156 167.460938 210.296875 167.460938 L 209.289062 173.671875 C 210.203125 174.089844 210.847656 175.015625 210.847656 176.097656 C 210.847656 177.308594 210.050781 178.3125 208.949219 178.652344 L 209.042969 183.347656 C 209.746094 183.613281 210.257812 184.3125 210.257812 185.109375 C 210.257812 186.152344 209.40625 187.003906 208.359375 187.003906 C 207.3125 187.003906 206.460938 186.152344 206.460938 185.109375 C 206.460938 184.921875 206.496094 184.730469 206.554688 184.542969 L 203.230469 181.777344 C 202.8125 182.0625 202.296875 182.230469 201.726562 182.230469 C 200.265625 182.230469 199.085938 181.058594 199.085938 179.597656 C 199.085938 178.558594 199.695312 177.667969 200.570312 177.230469 L 200 174.089844 C 199.960938 174.089844 199.902344 174.089844 199.867188 174.089844 C 197.207031 174.089844 195.039062 171.929688 195.039062 169.277344 C 195.039062 166.628906 197.207031 164.46875 199.867188 164.46875 C 201.140625 164.46875 202.277344 164.960938 203.132812 165.757812 L 204.976562 164.296875 C 204.3125 163.257812 203.933594 162.042969 203.933594 160.71875 C 203.933594 159.449219 204.292969 158.257812 204.921875 157.234375 L 200.207031 153.636719 C 199.847656 153.882812 199.410156 154.035156 198.933594 154.035156 C 198.421875 154.035156 197.945312 153.863281 197.566406 153.582031 L 194.582031 155.644531 C 195.117188 156.609375 195.402344 157.707031 195.402344 158.882812 C 195.402344 162.632812 192.359375 165.660156 188.597656 165.660156 C 185.40625 165.660156 182.746094 163.484375 182.003906 160.53125 L 176.914062 161.230469 C 176.855469 163.636719 174.878906 165.566406 172.449219 165.566406 C 169.976562 165.566406 167.984375 163.578125 167.984375 161.117188 C 167.984375 158.65625 169.976562 156.667969 172.449219 156.667969 C 172.902344 156.667969 173.339844 156.742188 173.738281 156.855469 L 179.175781 145.890625 C 177.789062 144.964844 176.835938 143.449219 176.667969 141.707031 L 172.183594 141.554688 C 171.859375 142.390625 171.0625 142.976562 170.109375 142.976562 C 169.863281 142.976562 169.636719 142.9375 169.40625 142.863281 L 165.816406 147.5 C 166.9375 148.601562 167.621094 150.113281 167.621094 151.800781 C 167.621094 155.132812 164.90625 157.839844 161.5625 157.839844 C 158.75 157.839844 156.375 155.910156 155.691406 153.316406 L 151.527344 153.863281 C 151.453125 156.230469 149.496094 158.144531 147.101562 158.144531 C 144.648438 158.144531 142.675781 156.175781 142.675781 153.730469 C 142.675781 151.421875 144.460938 149.527344 146.742188 149.339844 L 147.140625 144.492188 C 146.339844 144.148438 145.789062 143.355469 145.789062 142.425781 C 145.789062 141.195312 146.796875 140.171875 148.050781 140.171875 C 148.335938 140.171875 148.582031 140.230469 148.832031 140.304688 L 157.324219 129.890625 C 157.113281 129.550781 156.980469 129.132812 156.980469 128.699219 C 156.980469 128.089844 157.230469 127.542969 157.609375 127.144531 L 156.296875 124.605469 C 155.632812 124.851562 154.929688 124.984375 154.1875 124.984375 C 153.125 124.984375 152.117188 124.703125 151.261719 124.226562 L 146.152344 131.292969 C 146.683594 131.878906 147.007812 132.675781 147.007812 133.546875 C 147.007812 135.402344 145.484375 136.914062 143.625 136.914062 C 143.246094 136.914062 142.863281 136.859375 142.523438 136.726562 L 137.183594 145.398438 C 138.398438 146.382812 139.160156 147.878906 139.160156 149.566406 C 139.160156 152.539062 136.746094 154.945312 133.761719 154.945312 C 130.78125 154.945312 128.367188 152.539062 128.367188 149.566406 C 128.367188 147.140625 129.980469 145.097656 132.1875 144.414062 L 131.769531 141.859375 C 131.730469 141.859375 131.710938 141.859375 131.671875 141.859375 C 128.898438 141.859375 126.65625 139.625 126.65625 136.859375 C 126.65625 134.113281 128.878906 131.878906 131.636719 131.859375 L 131.9375 129.644531 C 128.726562 128.867188 126.332031 125.96875 126.332031 122.523438 C 126.332031 118.492188 129.621094 115.214844 133.667969 115.214844 C 137.03125 115.214844 139.882812 117.46875 140.734375 120.554688 L 148.128906 119.25 C 148.128906 119.132812 148.128906 119.039062 148.128906 118.925781 C 148.128906 117.902344 148.394531 116.9375 148.832031 116.085938 L 143.378906 112.28125 C 142.769531 112.847656 141.953125 113.1875 141.058594 113.1875 C 139.179688 113.1875 137.640625 111.65625 137.640625 109.78125 C 137.640625 107.90625 139.179688 106.371094 141.058594 106.371094 C 142.941406 106.371094 144.480469 107.90625 144.480469 109.78125 C 144.480469 110.253906 144.382812 110.6875 144.214844 111.085938 L 149.667969 114.894531 C 150.445312 114.023438 151.492188 113.378906 152.648438 113.074219 L 152.628906 107.5625 C 150.578125 107.222656 149.019531 105.460938 149.019531 103.324219 C 149.019531 100.957031 150.957031 99.023438 153.332031 99.023438 C 154.738281 99.023438 155.976562 99.6875 156.753906 100.710938 L 163.652344 97.109375 C 163.480469 96.601562 163.386719 96.070312 163.386719 95.5 C 163.386719 92.792969 165.589844 90.578125 168.324219 90.578125 C 171.042969 90.578125 173.265625 92.773438 173.265625 95.5 C 173.265625 97.300781 172.296875 98.890625 170.832031 99.742188 L 173.113281 105.347656 C 173.472656 105.273438 173.835938 105.214844 174.234375 105.214844 C 175.128906 105.214844 175.980469 105.460938 176.703125 105.898438 L 181.871094 99.648438 C 180.695312 98.4375 179.953125 96.789062 179.953125 94.972656 C 179.953125 91.277344 182.957031 88.269531 186.679688 88.269531 C 190.386719 88.269531 193.40625 91.261719 193.40625 94.972656 C 193.40625 96.617188 192.796875 98.132812 191.808594 99.289062 L 196.941406 104.667969 C 197.242188 104.515625 197.585938 104.441406 197.945312 104.441406 C 198.042969 104.441406 198.136719 104.441406 198.214844 104.457031 L 200.949219 98.570312 C 199.828125 97.792969 199.085938 96.503906 199.085938 95.027344 C 199.085938 92.660156 201.023438 90.730469 203.398438 90.730469 C 205.773438 90.730469 207.714844 92.660156 207.714844 95.027344 C 207.714844 95.558594 207.617188 96.070312 207.449219 96.523438 L 211.796875 99.042969 C 212.882812 97.621094 214.609375 96.695312 216.53125 96.695312 C 219.816406 96.695312 222.476562 99.347656 222.476562 102.621094 C 222.476562 103.417969 222.324219 104.175781 222.039062 104.855469 L 228.460938 108.433594 C 229.355469 107.28125 230.761719 106.523438 232.355469 106.523438 C 235.074219 106.523438 237.277344 108.71875 237.277344 111.425781 C 237.277344 112.847656 236.671875 114.136719 235.703125 115.023438 L 239.121094 120.042969 C 239.785156 119.722656 240.546875 119.53125 241.34375 119.53125 C 244.15625 119.53125 246.4375 121.804688 246.4375 124.605469 C 246.4375 127.410156 244.15625 129.683594 241.34375 129.683594 C 239.957031 129.683594 238.683594 129.132812 237.773438 128.222656 L 232.222656 132.429688 C 232.394531 132.824219 232.488281 133.261719 232.488281 133.714844 C 232.488281 135.476562 231.066406 136.898438 229.296875 136.898438 C 229.089844 136.898438 228.878906 136.878906 228.691406 136.839844 L 225.59375 143.695312 C 226.902344 144.546875 227.777344 146.023438 227.777344 147.691406 C 227.777344 149.433594 226.828125 150.96875 225.421875 151.800781 L 226.921875 155.585938 C 227.417969 155.453125 227.910156 155.398438 228.441406 155.398438 C 229.429688 155.398438 230.382812 155.644531 231.199219 156.0625 L 236.519531 148.257812 C 234.902344 146.914062 233.878906 144.886719 233.878906 142.617188 Z M 154.113281 112.921875 L 154.09375 107.582031 C 156.125 107.242188 157.664062 105.460938 157.664062 103.339844 C 157.664062 102.886719 157.589844 102.433594 157.457031 102.015625 L 164.355469 98.417969 C 165.246094 99.648438 166.710938 100.445312 168.34375 100.445312 C 168.742188 100.445312 169.125 100.40625 169.503906 100.3125 L 171.78125 105.917969 C 170.378906 106.75 169.425781 108.285156 169.425781 110.046875 C 169.425781 112.164062 170.8125 113.964844 172.734375 114.609375 L 171.707031 120.667969 C 171.574219 120.667969 171.441406 120.648438 171.289062 120.648438 C 167.527344 120.648438 164.488281 123.679688 164.488281 127.429688 C 164.488281 131.179688 167.527344 134.207031 171.289062 134.207031 C 174.859375 134.207031 177.789062 131.460938 178.074219 127.976562 L 182.003906 127.863281 C 182.328125 128.714844 183.144531 129.324219 184.113281 129.324219 C 184.796875 129.324219 185.40625 129.019531 185.824219 128.527344 L 190.972656 130.570312 C 190.917969 130.875 190.878906 131.179688 190.878906 131.480469 C 190.878906 133.867188 192.835938 135.816406 195.230469 135.816406 C 197.625 135.816406 199.582031 133.867188 199.582031 131.480469 C 199.582031 130.441406 199.199219 129.472656 198.59375 128.714844 L 204.046875 122.429688 C 204.996094 123.054688 206.136719 123.433594 207.351562 123.433594 C 210.640625 123.433594 213.300781 120.78125 213.300781 117.507812 C 213.300781 114.230469 210.640625 111.578125 207.351562 111.578125 C 206.117188 111.578125 204.957031 111.957031 204.007812 112.601562 L 199.941406 107.960938 C 200.152344 107.621094 200.265625 107.203125 200.265625 106.769531 C 200.265625 106.105469 199.980469 105.5 199.523438 105.066406 L 202.242188 99.175781 C 202.601562 99.269531 202.980469 99.328125 203.363281 99.328125 C 204.691406 99.328125 205.890625 98.722656 206.667969 97.773438 L 211.019531 100.292969 C 210.714844 101.011719 210.542969 101.789062 210.542969 102.621094 C 210.542969 105.898438 213.203125 108.550781 216.492188 108.550781 C 216.816406 108.550781 217.136719 108.53125 217.441406 108.472656 L 219.152344 114.363281 C 218.503906 114.796875 218.085938 115.519531 218.085938 116.351562 C 218.085938 117.316406 218.65625 118.132812 219.457031 118.527344 L 218.753906 123.566406 C 216.433594 123.640625 214.574219 125.535156 214.574219 127.863281 C 214.574219 128.128906 214.589844 128.394531 214.648438 128.660156 L 208.472656 130.933594 C 208.054688 130.402344 207.410156 130.078125 206.6875 130.078125 C 205.414062 130.078125 204.386719 131.101562 204.386719 132.371094 C 204.386719 132.976562 204.617188 133.507812 204.996094 133.925781 L 201.859375 139.605469 C 201.539062 139.511719 201.195312 139.453125 200.855469 139.453125 C 198.917969 139.453125 197.359375 141.007812 197.359375 142.9375 C 197.359375 144.871094 198.917969 146.421875 200.855469 146.421875 C 202.792969 146.421875 204.351562 144.871094 204.351562 142.9375 L 213.015625 141.101562 C 213.222656 141.441406 213.488281 141.726562 213.832031 141.914062 L 211.285156 154.035156 C 211.078125 154.015625 210.847656 153.996094 210.621094 153.996094 C 208.71875 153.996094 206.992188 154.792969 205.757812 156.0625 L 201.042969 152.464844 C 201.121094 152.234375 201.175781 151.96875 201.175781 151.722656 C 201.175781 150.457031 200.152344 149.433594 198.878906 149.433594 C 197.605469 149.433594 196.578125 150.457031 196.578125 151.722656 C 196.578125 151.953125 196.617188 152.160156 196.675781 152.367188 L 193.691406 154.433594 C 192.4375 152.992188 190.59375 152.085938 188.542969 152.085938 C 184.78125 152.085938 181.738281 155.113281 181.738281 158.863281 C 181.738281 158.9375 181.738281 159.015625 181.738281 159.070312 L 176.648438 159.773438 C 176.363281 158.84375 175.753906 158.03125 174.976562 157.480469 L 180.410156 146.515625 C 180.980469 146.707031 181.605469 146.820312 182.253906 146.820312 C 185.386719 146.820312 187.933594 144.28125 187.933594 141.15625 C 187.933594 138.035156 185.386719 135.515625 182.253906 135.515625 C 179.441406 135.515625 177.101562 137.558594 176.648438 140.25 L 172.164062 140.097656 C 171.878906 139.1875 171.042969 138.542969 170.054688 138.542969 C 168.839844 138.542969 167.832031 139.527344 167.832031 140.761719 C 167.832031 141.214844 167.964844 141.613281 168.191406 141.972656 L 164.601562 146.613281 C 163.6875 146.0625 162.625 145.757812 161.503906 145.757812 C 158.160156 145.757812 155.441406 148.46875 155.441406 151.800781 C 155.441406 151.820312 155.441406 151.855469 155.441406 151.875 L 151.28125 152.425781 C 150.824219 150.96875 149.628906 149.8125 148.128906 149.433594 L 148.527344 144.585938 C 149.515625 144.339844 150.238281 143.449219 150.238281 142.40625 C 150.238281 141.972656 150.101562 141.554688 149.894531 141.214844 L 158.386719 130.800781 C 158.636719 130.894531 158.902344 130.933594 159.167969 130.933594 C 160.421875 130.933594 161.429688 129.929688 161.429688 128.679688 C 161.429688 127.449219 160.421875 126.425781 159.167969 126.425781 C 159.054688 126.425781 158.9375 126.425781 158.84375 126.445312 L 157.53125 123.90625 C 159.128906 122.828125 160.191406 120.992188 160.191406 118.90625 C 160.191406 115.574219 157.476562 112.867188 154.132812 112.867188 C 154.09375 112.867188 154.074219 112.867188 154.054688 112.867188 Z M 173.132812 120.914062 L 174.160156 114.855469 C 174.175781 114.855469 174.214844 114.855469 174.234375 114.855469 C 175.980469 114.855469 177.503906 113.925781 178.355469 112.542969 L 185.386719 115.441406 C 185.292969 115.839844 185.234375 116.238281 185.234375 116.671875 C 185.234375 119.4375 187.476562 121.671875 190.25 121.671875 C 193.027344 121.671875 195.269531 119.4375 195.269531 116.671875 C 195.269531 115.328125 194.734375 114.117188 193.882812 113.207031 L 197.167969 108.984375 C 197.414062 109.078125 197.679688 109.117188 197.945312 109.117188 C 198.269531 109.117188 198.574219 109.058594 198.859375 108.925781 L 202.925781 113.566406 C 201.976562 114.609375 201.40625 116.011719 201.40625 117.523438 C 201.40625 119.058594 201.996094 120.441406 202.945312 121.5 L 197.492188 127.789062 C 196.824219 127.390625 196.066406 127.164062 195.230469 127.164062 C 193.652344 127.164062 192.285156 127.996094 191.503906 129.246094 L 186.355469 127.203125 C 186.355469 127.164062 186.355469 127.125 186.355469 127.089844 C 186.355469 125.839844 185.351562 124.835938 184.09375 124.835938 C 183.089844 124.835938 182.234375 125.496094 181.949219 126.425781 L 178.015625 126.539062 C 177.65625 123.832031 175.699219 121.652344 173.113281 120.914062 Z M 190.746094 100.3125 L 195.875 105.691406 C 195.703125 106.011719 195.589844 106.390625 195.589844 106.789062 C 195.589844 107.261719 195.742188 107.714844 195.988281 108.09375 L 192.703125 112.316406 C 191.980469 111.902344 191.125 111.671875 190.234375 111.671875 C 188.410156 111.671875 186.8125 112.660156 185.9375 114.097656 L 178.910156 111.179688 C 179.003906 110.820312 179.042969 110.421875 179.042969 110.027344 C 179.042969 108.796875 178.566406 107.679688 177.804688 106.824219 L 182.972656 100.578125 C 184.039062 101.277344 185.292969 101.675781 186.660156 101.675781 C 188.199219 101.675781 189.605469 101.164062 190.746094 100.292969 Z M 220.558594 114.003906 L 218.847656 108.09375 C 219.835938 107.679688 220.671875 106.996094 221.296875 106.144531 L 227.722656 109.722656 C 227.511719 110.253906 227.398438 110.839844 227.398438 111.445312 C 227.398438 111.863281 227.453125 112.261719 227.550781 112.660156 L 222.34375 114.835938 C 221.90625 114.324219 221.28125 114.003906 220.558594 113.984375 Z M 208.890625 167.195312 L 207.882812 173.40625 C 206.554688 173.558594 205.507812 174.695312 205.507812 176.058594 C 205.507812 177.308594 206.363281 178.347656 207.523438 178.652344 L 207.617188 183.347656 C 207.582031 183.367188 207.523438 183.386719 207.484375 183.40625 L 204.160156 180.640625 C 204.3125 180.320312 204.386719 179.957031 204.386719 179.582031 C 204.386719 178.214844 203.34375 177.097656 202.011719 176.96875 L 201.441406 173.824219 C 203.34375 173.179688 204.710938 171.378906 204.710938 169.277344 C 204.710938 168.40625 204.484375 167.59375 204.066406 166.894531 L 205.910156 165.433594 C 206.726562 166.25 207.75 166.875 208.910156 167.175781 Z M 150.085938 123.394531 L 144.972656 130.457031 C 144.554688 130.289062 144.097656 130.175781 143.625 130.175781 C 141.761719 130.175781 140.242188 131.691406 140.242188 133.546875 C 140.242188 134.492188 140.640625 135.363281 141.289062 135.96875 L 135.949219 144.640625 C 135.28125 144.339844 134.542969 144.1875 133.761719 144.1875 C 133.707031 144.1875 133.667969 144.1875 133.609375 144.1875 L 133.191406 141.632812 C 135.226562 140.988281 136.6875 139.09375 136.6875 136.878906 C 136.6875 134.605469 135.167969 132.691406 133.078125 132.085938 L 133.382812 129.871094 C 133.476562 129.871094 133.574219 129.871094 133.6875 129.871094 C 137.734375 129.871094 141.019531 126.59375 141.019531 122.5625 C 141.019531 122.371094 141.019531 122.203125 141.003906 122.011719 L 148.394531 120.726562 C 148.714844 121.765625 149.304688 122.695312 150.085938 123.414062 Z M 155.632812 138.128906 C 155.632812 135.761719 157.570312 133.828125 159.945312 133.828125 C 162.320312 133.828125 164.257812 135.761719 164.257812 138.128906 C 164.257812 140.496094 162.320312 142.425781 159.945312 142.425781 C 157.570312 142.425781 155.632812 140.496094 155.632812 138.128906 Z M 160.25 109.289062 C 160.25 108.039062 161.257812 107.035156 162.511719 107.035156 C 163.765625 107.035156 164.773438 108.039062 164.773438 109.289062 C 164.773438 110.519531 163.765625 111.539062 162.511719 111.539062 C 161.277344 111.539062 160.25 110.539062 160.25 109.289062 Z M 160.25 109.289062 " clip-rule="evenodd"/></clipPath><linearGradient x1="39.985145" gradientTransform="matrix(1.900062, 0, 0, 1.89366, 126.3527, 88.286838)" y1="-0.154483" x2="39.673595" gradientUnits="userSpaceOnUse" y2="52.365334" id="0157734705"><stop stop-opacity="1" stop-color="rgb(28.199768%, 79.199219%, 48.999023%)" offset="0"/><stop stop-opacity="1" stop-color="rgb(28.199768%, 79.199219%, 48.999023%)" offset="0.00726688"/><stop stop-opacity="1" stop-color="rgb(28.199768%, 79.199219%, 48.999023%)" offset="0.0625"/><stop stop-opacity="1" stop-color="rgb(28.199768%, 79.199219%, 48.999023%)" offset="0.09375"/><stop stop-opacity="1" stop-color="rgb(28.199768%, 79.199219%, 48.999023%)" offset="0.109375"/><stop stop-opacity="1" stop-color="rgb(28.125%, 79.171753%, 49.116516%)" offset="0.117187"/><stop stop-opacity="1" stop-color="rgb(27.919006%, 79.093933%, 49.443054%)" offset="0.121094"/><stop stop-opacity="1" stop-color="rgb(27.787781%, 79.043579%, 49.6521%)" offset="0.125"/><stop stop-opacity="1" stop-color="rgb(27.655029%, 78.993225%, 49.861145%)" offset="0.128906"/><stop stop-opacity="1" stop-color="rgb(27.523804%, 78.944397%, 50.07019%)" offset="0.132812"/><stop stop-opacity="1" stop-color="rgb(27.391052%, 78.894043%, 50.279236%)" offset="0.136719"/><stop stop-opacity="1" stop-color="rgb(27.259827%, 78.845215%, 50.489807%)" offset="0.140625"/><stop stop-opacity="1" stop-color="rgb(27.127075%, 78.794861%, 50.698853%)" offset="0.144531"/><stop stop-opacity="1" stop-color="rgb(26.99585%, 78.746033%, 50.907898%)" offset="0.148437"/><stop stop-opacity="1" stop-color="rgb(26.863098%, 78.695679%, 51.116943%)" offset="0.152344"/><stop stop-opacity="1" stop-color="rgb(26.731873%, 78.646851%, 51.325989%)" offset="0.15625"/><stop stop-opacity="1" stop-color="rgb(26.599121%, 78.596497%, 51.535034%)" offset="0.160156"/><stop stop-opacity="1" stop-color="rgb(26.467896%, 78.547668%, 51.74408%)" offset="0.164062"/><stop stop-opacity="1" stop-color="rgb(26.335144%, 78.497314%, 51.953125%)" offset="0.167969"/><stop stop-opacity="1" stop-color="rgb(26.203918%, 78.448486%, 52.163696%)" offset="0.171875"/><stop stop-opacity="1" stop-color="rgb(26.071167%, 78.398132%, 52.372742%)" offset="0.175781"/><stop stop-opacity="1" stop-color="rgb(25.939941%, 78.349304%, 52.581787%)" offset="0.179687"/><stop stop-opacity="1" stop-color="rgb(25.80719%, 78.29895%, 52.790833%)" offset="0.183594"/><stop stop-opacity="1" stop-color="rgb(25.675964%, 78.250122%, 52.999878%)" offset="0.1875"/><stop stop-opacity="1" stop-color="rgb(25.543213%, 78.199768%, 53.208923%)" offset="0.191406"/><stop stop-opacity="1" stop-color="rgb(25.410461%, 78.15094%, 53.417969%)" offset="0.195312"/><stop stop-opacity="1" stop-color="rgb(25.27771%, 78.100586%, 53.627014%)" offset="0.199219"/><stop stop-opacity="1" stop-color="rgb(25.146484%, 78.051758%, 53.837585%)" offset="0.203125"/><stop stop-opacity="1" stop-color="rgb(25.013733%, 78.001404%, 54.046631%)" offset="0.207031"/><stop stop-opacity="1" stop-color="rgb(24.882507%, 77.952576%, 54.255676%)" offset="0.210938"/><stop stop-opacity="1" stop-color="rgb(24.749756%, 77.902222%, 54.464722%)" offset="0.214844"/><stop stop-opacity="1" stop-color="rgb(24.61853%, 77.853394%, 54.673767%)" offset="0.21875"/><stop stop-opacity="1" stop-color="rgb(24.485779%, 77.80304%, 54.882812%)" offset="0.222656"/><stop stop-opacity="1" stop-color="rgb(24.354553%, 77.754211%, 55.091858%)" offset="0.226562"/><stop stop-opacity="1" stop-color="rgb(24.221802%, 77.703857%, 55.300903%)" offset="0.230469"/><stop stop-opacity="1" stop-color="rgb(24.090576%, 77.655029%, 55.511475%)" offset="0.234375"/><stop stop-opacity="1" stop-color="rgb(23.957825%, 77.604675%, 55.72052%)" offset="0.238281"/><stop stop-opacity="1" stop-color="rgb(23.826599%, 77.555847%, 55.929565%)" offset="0.242187"/><stop stop-opacity="1" stop-color="rgb(23.693848%, 77.505493%, 56.138611%)" offset="0.246094"/><stop stop-opacity="1" stop-color="rgb(23.562622%, 77.456665%, 56.347656%)" offset="0.25"/><stop stop-opacity="1" stop-color="rgb(23.429871%, 77.406311%, 56.556702%)" offset="0.253906"/><stop stop-opacity="1" stop-color="rgb(23.298645%, 77.357483%, 56.765747%)" offset="0.257812"/><stop stop-opacity="1" stop-color="rgb(23.165894%, 77.307129%, 56.974792%)" offset="0.261719"/><stop stop-opacity="1" stop-color="rgb(23.034668%, 77.258301%, 57.185364%)" offset="0.265625"/><stop stop-opacity="1" stop-color="rgb(22.901917%, 77.207947%, 57.394409%)" offset="0.269531"/><stop stop-opacity="1" stop-color="rgb(22.770691%, 77.159119%, 57.603455%)" offset="0.273438"/><stop stop-opacity="1" stop-color="rgb(22.637939%, 77.108765%, 57.8125%)" offset="0.277344"/><stop stop-opacity="1" stop-color="rgb(22.506714%, 77.059937%, 58.021545%)" offset="0.28125"/><stop stop-opacity="1" stop-color="rgb(22.373962%, 77.009583%, 58.230591%)" offset="0.285156"/><stop stop-opacity="1" stop-color="rgb(22.242737%, 76.960754%, 58.439636%)" offset="0.289062"/><stop stop-opacity="1" stop-color="rgb(22.109985%, 76.9104%, 58.648682%)" offset="0.292969"/><stop stop-opacity="1" stop-color="rgb(21.97876%, 76.861572%, 58.857727%)" offset="0.296875"/><stop stop-opacity="1" stop-color="rgb(21.846008%, 76.811218%, 59.066772%)" offset="0.300781"/><stop stop-opacity="1" stop-color="rgb(21.714783%, 76.76239%, 59.277344%)" offset="0.304688"/><stop stop-opacity="1" stop-color="rgb(21.582031%, 76.712036%, 59.486389%)" offset="0.308594"/><stop stop-opacity="1" stop-color="rgb(21.450806%, 76.663208%, 59.695435%)" offset="0.3125"/><stop stop-opacity="1" stop-color="rgb(21.318054%, 76.612854%, 59.90448%)" offset="0.316406"/><stop stop-opacity="1" stop-color="rgb(21.186829%, 76.564026%, 60.113525%)" offset="0.320312"/><stop stop-opacity="1" stop-color="rgb(21.054077%, 76.513672%, 60.322571%)" offset="0.324219"/><stop stop-opacity="1" stop-color="rgb(20.922852%, 76.464844%, 60.531616%)" offset="0.328125"/><stop stop-opacity="1" stop-color="rgb(20.7901%, 76.41449%, 60.740662%)" offset="0.332031"/><stop stop-opacity="1" stop-color="rgb(20.658875%, 76.365662%, 60.951233%)" offset="0.335938"/><stop stop-opacity="1" stop-color="rgb(20.526123%, 76.315308%, 61.160278%)" offset="0.339844"/><stop stop-opacity="1" stop-color="rgb(20.394897%, 76.266479%, 61.369324%)" offset="0.34375"/><stop stop-opacity="1" stop-color="rgb(20.262146%, 76.216125%, 61.578369%)" offset="0.347656"/><stop stop-opacity="1" stop-color="rgb(20.13092%, 76.167297%, 61.787415%)" offset="0.351562"/><stop stop-opacity="1" stop-color="rgb(19.998169%, 76.116943%, 61.99646%)" offset="0.355469"/><stop stop-opacity="1" stop-color="rgb(19.866943%, 76.068115%, 62.205505%)" offset="0.359375"/><stop stop-opacity="1" stop-color="rgb(19.734192%, 76.017761%, 62.414551%)" offset="0.363281"/><stop stop-opacity="1" stop-color="rgb(19.602966%, 75.968933%, 62.625122%)" offset="0.367187"/><stop stop-opacity="1" stop-color="rgb(19.470215%, 75.918579%, 62.834167%)" offset="0.371094"/><stop stop-opacity="1" stop-color="rgb(19.338989%, 75.868225%, 63.043213%)" offset="0.375"/><stop stop-opacity="1" stop-color="rgb(19.206238%, 75.817871%, 63.252258%)" offset="0.378906"/><stop stop-opacity="1" stop-color="rgb(19.075012%, 75.769043%, 63.461304%)" offset="0.382812"/><stop stop-opacity="1" stop-color="rgb(18.942261%, 75.718689%, 63.670349%)" offset="0.386719"/><stop stop-opacity="1" stop-color="rgb(18.811035%, 75.669861%, 63.879395%)" offset="0.390625"/><stop stop-opacity="1" stop-color="rgb(18.678284%, 75.619507%, 64.08844%)" offset="0.394531"/><stop stop-opacity="1" stop-color="rgb(18.547058%, 75.570679%, 64.299011%)" offset="0.398438"/><stop stop-opacity="1" stop-color="rgb(18.414307%, 75.520325%, 64.508057%)" offset="0.402344"/><stop stop-opacity="1" stop-color="rgb(18.283081%, 75.471497%, 64.717102%)" offset="0.40625"/><stop stop-opacity="1" stop-color="rgb(18.15033%, 75.421143%, 64.926147%)" offset="0.410156"/><stop stop-opacity="1" stop-color="rgb(18.019104%, 75.372314%, 65.135193%)" offset="0.414062"/><stop stop-opacity="1" stop-color="rgb(17.886353%, 75.32196%, 65.344238%)" offset="0.417969"/><stop stop-opacity="1" stop-color="rgb(17.755127%, 75.273132%, 65.553284%)" offset="0.421875"/><stop stop-opacity="1" stop-color="rgb(17.622375%, 75.222778%, 65.762329%)" offset="0.425781"/><stop stop-opacity="1" stop-color="rgb(17.49115%, 75.17395%, 65.9729%)" offset="0.429688"/><stop stop-opacity="1" stop-color="rgb(17.358398%, 75.123596%, 66.181946%)" offset="0.433594"/><stop stop-opacity="1" stop-color="rgb(17.227173%, 75.074768%, 66.390991%)" offset="0.4375"/><stop stop-opacity="1" stop-color="rgb(17.094421%, 75.024414%, 66.600037%)" offset="0.441406"/><stop stop-opacity="1" stop-color="rgb(16.963196%, 74.975586%, 66.809082%)" offset="0.445312"/><stop stop-opacity="1" stop-color="rgb(16.830444%, 74.925232%, 67.018127%)" offset="0.449219"/><stop stop-opacity="1" stop-color="rgb(16.699219%, 74.876404%, 67.227173%)" offset="0.453125"/><stop stop-opacity="1" stop-color="rgb(16.566467%, 74.82605%, 67.436218%)" offset="0.457031"/><stop stop-opacity="1" stop-color="rgb(16.435242%, 74.777222%, 67.64679%)" offset="0.460938"/><stop stop-opacity="1" stop-color="rgb(16.30249%, 74.726868%, 67.855835%)" offset="0.464844"/><stop stop-opacity="1" stop-color="rgb(16.171265%, 74.67804%, 68.06488%)" offset="0.46875"/><stop stop-opacity="1" stop-color="rgb(16.038513%, 74.627686%, 68.273926%)" offset="0.472656"/><stop stop-opacity="1" stop-color="rgb(15.907288%, 74.578857%, 68.482971%)" offset="0.476562"/><stop stop-opacity="1" stop-color="rgb(15.774536%, 74.528503%, 68.692017%)" offset="0.480469"/><stop stop-opacity="1" stop-color="rgb(15.643311%, 74.479675%, 68.901062%)" offset="0.484375"/><stop stop-opacity="1" stop-color="rgb(15.510559%, 74.429321%, 69.110107%)" offset="0.488281"/><stop stop-opacity="1" stop-color="rgb(15.379333%, 74.380493%, 69.319153%)" offset="0.492187"/><stop stop-opacity="1" stop-color="rgb(15.246582%, 74.330139%, 69.528198%)" offset="0.496094"/><stop stop-opacity="1" stop-color="rgb(15.115356%, 74.281311%, 69.73877%)" offset="0.5"/><stop stop-opacity="1" stop-color="rgb(14.982605%, 74.230957%, 69.947815%)" offset="0.503906"/><stop stop-opacity="1" stop-color="rgb(14.851379%, 74.182129%, 70.15686%)" offset="0.507812"/><stop stop-opacity="1" stop-color="rgb(14.718628%, 74.131775%, 70.365906%)" offset="0.511719"/><stop stop-opacity="1" stop-color="rgb(14.587402%, 74.082947%, 70.574951%)" offset="0.515625"/><stop stop-opacity="1" stop-color="rgb(14.454651%, 74.032593%, 70.783997%)" offset="0.519531"/><stop stop-opacity="1" stop-color="rgb(14.323425%, 73.983765%, 70.993042%)" offset="0.523437"/><stop stop-opacity="1" stop-color="rgb(14.190674%, 73.933411%, 71.202087%)" offset="0.527344"/><stop stop-opacity="1" stop-color="rgb(14.059448%, 73.884583%, 71.412659%)" offset="0.53125"/><stop stop-opacity="1" stop-color="rgb(13.926697%, 73.834229%, 71.621704%)" offset="0.535156"/><stop stop-opacity="1" stop-color="rgb(13.795471%, 73.7854%, 71.83075%)" offset="0.539062"/><stop stop-opacity="1" stop-color="rgb(13.66272%, 73.735046%, 72.039795%)" offset="0.542969"/><stop stop-opacity="1" stop-color="rgb(13.531494%, 73.686218%, 72.24884%)" offset="0.546875"/><stop stop-opacity="1" stop-color="rgb(13.398743%, 73.635864%, 72.457886%)" offset="0.550781"/><stop stop-opacity="1" stop-color="rgb(13.267517%, 73.587036%, 72.666931%)" offset="0.554688"/><stop stop-opacity="1" stop-color="rgb(13.134766%, 73.536682%, 72.875977%)" offset="0.558594"/><stop stop-opacity="1" stop-color="rgb(13.00354%, 73.487854%, 73.086548%)" offset="0.5625"/><stop stop-opacity="1" stop-color="rgb(12.870789%, 73.4375%, 73.295593%)" offset="0.566406"/><stop stop-opacity="1" stop-color="rgb(12.739563%, 73.388672%, 73.504639%)" offset="0.570312"/><stop stop-opacity="1" stop-color="rgb(12.606812%, 73.338318%, 73.713684%)" offset="0.574219"/><stop stop-opacity="1" stop-color="rgb(12.475586%, 73.28949%, 73.922729%)" offset="0.578125"/><stop stop-opacity="1" stop-color="rgb(12.342834%, 73.239136%, 74.131775%)" offset="0.582031"/><stop stop-opacity="1" stop-color="rgb(12.211609%, 73.190308%, 74.34082%)" offset="0.585938"/><stop stop-opacity="1" stop-color="rgb(12.078857%, 73.139954%, 74.549866%)" offset="0.589844"/><stop stop-opacity="1" stop-color="rgb(11.947632%, 73.091125%, 74.760437%)" offset="0.59375"/><stop stop-opacity="1" stop-color="rgb(11.81488%, 73.040771%, 74.969482%)" offset="0.597656"/><stop stop-opacity="1" stop-color="rgb(11.683655%, 72.991943%, 75.178528%)" offset="0.601562"/><stop stop-opacity="1" stop-color="rgb(11.550903%, 72.941589%, 75.387573%)" offset="0.605469"/><stop stop-opacity="1" stop-color="rgb(11.419678%, 72.892761%, 75.596619%)" offset="0.609375"/><stop stop-opacity="1" stop-color="rgb(11.286926%, 72.842407%, 75.805664%)" offset="0.613281"/><stop stop-opacity="1" stop-color="rgb(11.155701%, 72.792053%, 76.014709%)" offset="0.617187"/><stop stop-opacity="1" stop-color="rgb(11.022949%, 72.741699%, 76.223755%)" offset="0.621094"/><stop stop-opacity="1" stop-color="rgb(10.891724%, 72.692871%, 76.434326%)" offset="0.625"/><stop stop-opacity="1" stop-color="rgb(10.758972%, 72.642517%, 76.643372%)" offset="0.628906"/><stop stop-opacity="1" stop-color="rgb(10.627747%, 72.593689%, 76.852417%)" offset="0.632812"/><stop stop-opacity="1" stop-color="rgb(10.494995%, 72.543335%, 77.061462%)" offset="0.636719"/><stop stop-opacity="1" stop-color="rgb(10.36377%, 72.494507%, 77.270508%)" offset="0.640625"/><stop stop-opacity="1" stop-color="rgb(10.231018%, 72.444153%, 77.479553%)" offset="0.644531"/><stop stop-opacity="1" stop-color="rgb(10.099792%, 72.395325%, 77.688599%)" offset="0.648437"/><stop stop-opacity="1" stop-color="rgb(9.967041%, 72.344971%, 77.897644%)" offset="0.652344"/><stop stop-opacity="1" stop-color="rgb(9.835815%, 72.296143%, 78.106689%)" offset="0.65625"/><stop stop-opacity="1" stop-color="rgb(9.703064%, 72.245789%, 78.315735%)" offset="0.660156"/><stop stop-opacity="1" stop-color="rgb(9.571838%, 72.19696%, 78.526306%)" offset="0.664062"/><stop stop-opacity="1" stop-color="rgb(9.439087%, 72.146606%, 78.735352%)" offset="0.667969"/><stop stop-opacity="1" stop-color="rgb(9.307861%, 72.097778%, 78.944397%)" offset="0.671875"/><stop stop-opacity="1" stop-color="rgb(9.17511%, 72.047424%, 79.153442%)" offset="0.675781"/><stop stop-opacity="1" stop-color="rgb(9.043884%, 71.998596%, 79.362488%)" offset="0.679687"/><stop stop-opacity="1" stop-color="rgb(8.911133%, 71.948242%, 79.571533%)" offset="0.683594"/><stop stop-opacity="1" stop-color="rgb(8.779907%, 71.899414%, 79.780579%)" offset="0.6875"/><stop stop-opacity="1" stop-color="rgb(8.647156%, 71.84906%, 79.989624%)" offset="0.691406"/><stop stop-opacity="1" stop-color="rgb(8.51593%, 71.800232%, 80.200195%)" offset="0.695312"/><stop stop-opacity="1" stop-color="rgb(8.383179%, 71.749878%, 80.409241%)" offset="0.699219"/><stop stop-opacity="1" stop-color="rgb(8.251953%, 71.70105%, 80.618286%)" offset="0.703125"/><stop stop-opacity="1" stop-color="rgb(8.119202%, 71.650696%, 80.827332%)" offset="0.707031"/><stop stop-opacity="1" stop-color="rgb(7.987976%, 71.601868%, 81.036377%)" offset="0.710937"/><stop stop-opacity="1" stop-color="rgb(7.855225%, 71.551514%, 81.245422%)" offset="0.714844"/><stop stop-opacity="1" stop-color="rgb(7.723999%, 71.502686%, 81.454468%)" offset="0.71875"/><stop stop-opacity="1" stop-color="rgb(7.591248%, 71.452332%, 81.663513%)" offset="0.722656"/><stop stop-opacity="1" stop-color="rgb(7.460022%, 71.403503%, 81.874084%)" offset="0.726562"/><stop stop-opacity="1" stop-color="rgb(7.327271%, 71.353149%, 82.08313%)" offset="0.730469"/><stop stop-opacity="1" stop-color="rgb(7.196045%, 71.304321%, 82.292175%)" offset="0.734375"/><stop stop-opacity="1" stop-color="rgb(7.063293%, 71.253967%, 82.501221%)" offset="0.738281"/><stop stop-opacity="1" stop-color="rgb(6.932068%, 71.205139%, 82.710266%)" offset="0.742188"/><stop stop-opacity="1" stop-color="rgb(6.799316%, 71.154785%, 82.919312%)" offset="0.746094"/><stop stop-opacity="1" stop-color="rgb(6.668091%, 71.105957%, 83.128357%)" offset="0.75"/><stop stop-opacity="1" stop-color="rgb(6.535339%, 71.055603%, 83.337402%)" offset="0.753906"/><stop stop-opacity="1" stop-color="rgb(6.404114%, 71.006775%, 83.547974%)" offset="0.757812"/><stop stop-opacity="1" stop-color="rgb(6.271362%, 70.956421%, 83.757019%)" offset="0.761719"/><stop stop-opacity="1" stop-color="rgb(6.140137%, 70.907593%, 83.966064%)" offset="0.765625"/><stop stop-opacity="1" stop-color="rgb(6.007385%, 70.857239%, 84.17511%)" offset="0.769531"/><stop stop-opacity="1" stop-color="rgb(5.87616%, 70.808411%, 84.384155%)" offset="0.773437"/><stop stop-opacity="1" stop-color="rgb(5.743408%, 70.758057%, 84.593201%)" offset="0.777344"/><stop stop-opacity="1" stop-color="rgb(5.612183%, 70.709229%, 84.802246%)" offset="0.78125"/><stop stop-opacity="1" stop-color="rgb(5.479431%, 70.658875%, 85.011292%)" offset="0.785156"/><stop stop-opacity="1" stop-color="rgb(5.348206%, 70.610046%, 85.221863%)" offset="0.789062"/><stop stop-opacity="1" stop-color="rgb(5.215454%, 70.559692%, 85.430908%)" offset="0.792969"/><stop stop-opacity="1" stop-color="rgb(5.084229%, 70.510864%, 85.639954%)" offset="0.796875"/><stop stop-opacity="1" stop-color="rgb(4.951477%, 70.46051%, 85.848999%)" offset="0.800781"/><stop stop-opacity="1" stop-color="rgb(4.820251%, 70.411682%, 86.058044%)" offset="0.804687"/><stop stop-opacity="1" stop-color="rgb(4.6875%, 70.361328%, 86.26709%)" offset="0.808594"/><stop stop-opacity="1" stop-color="rgb(4.556274%, 70.3125%, 86.476135%)" offset="0.8125"/><stop stop-opacity="1" stop-color="rgb(4.423523%, 70.262146%, 86.685181%)" offset="0.816406"/><stop stop-opacity="1" stop-color="rgb(4.292297%, 70.213318%, 86.894226%)" offset="0.820312"/><stop stop-opacity="1" stop-color="rgb(4.159546%, 70.162964%, 87.103271%)" offset="0.824219"/><stop stop-opacity="1" stop-color="rgb(4.02832%, 70.114136%, 87.313843%)" offset="0.828125"/><stop stop-opacity="1" stop-color="rgb(3.895569%, 70.063782%, 87.522888%)" offset="0.832031"/><stop stop-opacity="1" stop-color="rgb(3.764343%, 70.014954%, 87.731934%)" offset="0.835938"/><stop stop-opacity="1" stop-color="rgb(3.631592%, 69.9646%, 87.940979%)" offset="0.839844"/><stop stop-opacity="1" stop-color="rgb(3.500366%, 69.915771%, 88.150024%)" offset="0.84375"/><stop stop-opacity="1" stop-color="rgb(3.367615%, 69.865417%, 88.35907%)" offset="0.847656"/><stop stop-opacity="1" stop-color="rgb(3.236389%, 69.816589%, 88.568115%)" offset="0.851562"/><stop stop-opacity="1" stop-color="rgb(3.103638%, 69.766235%, 88.777161%)" offset="0.855469"/><stop stop-opacity="1" stop-color="rgb(2.972412%, 69.715881%, 88.987732%)" offset="0.859375"/><stop stop-opacity="1" stop-color="rgb(2.839661%, 69.665527%, 89.196777%)" offset="0.863281"/><stop stop-opacity="1" stop-color="rgb(2.708435%, 69.616699%, 89.405823%)" offset="0.867187"/><stop stop-opacity="1" stop-color="rgb(2.575684%, 69.566345%, 89.614868%)" offset="0.871094"/><stop stop-opacity="1" stop-color="rgb(2.444458%, 69.517517%, 89.823914%)" offset="0.875"/><stop stop-opacity="1" stop-color="rgb(2.311707%, 69.467163%, 90.032959%)" offset="0.878906"/><stop stop-opacity="1" stop-color="rgb(2.180481%, 69.418335%, 90.242004%)" offset="0.882812"/><stop stop-opacity="1" stop-color="rgb(2.047729%, 69.367981%, 90.45105%)" offset="0.886719"/><stop stop-opacity="1" stop-color="rgb(1.916504%, 69.319153%, 90.661621%)" offset="0.890625"/><stop stop-opacity="1" stop-color="rgb(1.783752%, 69.268799%, 90.870667%)" offset="0.894531"/><stop stop-opacity="1" stop-color="rgb(1.652527%, 69.219971%, 91.079712%)" offset="0.898437"/><stop stop-opacity="1" stop-color="rgb(1.519775%, 69.169617%, 91.288757%)" offset="0.902344"/><stop stop-opacity="1" stop-color="rgb(1.38855%, 69.120789%, 91.497803%)" offset="0.90625"/><stop stop-opacity="1" stop-color="rgb(1.255798%, 69.070435%, 91.706848%)" offset="0.910156"/><stop stop-opacity="1" stop-color="rgb(1.124573%, 69.021606%, 91.915894%)" offset="0.914062"/><stop stop-opacity="1" stop-color="rgb(0.991821%, 68.971252%, 92.124939%)" offset="0.917969"/><stop stop-opacity="1" stop-color="rgb(0.860596%, 68.922424%, 92.33551%)" offset="0.921875"/><stop stop-opacity="1" stop-color="rgb(0.727844%, 68.87207%, 92.544556%)" offset="0.925781"/><stop stop-opacity="1" stop-color="rgb(0.596619%, 68.823242%, 92.753601%)" offset="0.929688"/><stop stop-opacity="1" stop-color="rgb(0.463867%, 68.772888%, 92.962646%)" offset="0.933594"/><stop stop-opacity="1" stop-color="rgb(0.332642%, 68.72406%, 93.171692%)" offset="0.9375"/><stop stop-opacity="1" stop-color="rgb(0.19989%, 68.673706%, 93.380737%)" offset="0.941406"/><stop stop-opacity="1" stop-color="rgb(0.0686646%, 68.624878%, 93.589783%)" offset="0.945312"/><stop stop-opacity="1" stop-color="rgb(0.0335693%, 68.611145%, 93.644714%)" offset="0.953125"/><stop stop-opacity="1" stop-color="rgb(0%, 68.598938%, 93.699646%)" offset="0.96875"/><stop stop-opacity="1" stop-color="rgb(0%, 68.598938%, 93.699646%)" offset="0.992733"/><stop stop-opacity="1" stop-color="rgb(0%, 68.598938%, 93.699646%)" offset="1"/></linearGradient></defs><rect x="-37.5" width="450" fill="#ffffff" y="-37.499999" height="449.999989" fill-opacity="1"/><rect x="-37.5" width="450" fill="#abc0ef" y="-37.499999" height="449.999989" fill-opacity="1"/><g clip-path="url(#7995d982f4)"><g clip-path="url(#0ae848f777)"><path fill="url(#0157734705)" d="M 126.351562 88.269531 L 126.351562 187.003906 L 248.601562 187.003906 L 248.601562 88.269531 Z M 126.351562 88.269531 " fill-rule="nonzero"/></g></g><g fill="#ffffff" fill-opacity="1"><g transform="translate(78.226713, 239.357972)"><g><path d="M 11.125 0 L 6.25 -15.90625 L 6.125 -15.90625 C 6.300781 -12.664062 6.390625 -10.503906 6.390625 -9.421875 L 6.390625 0 L 2.546875 0 L 2.546875 -20.265625 L 8.40625 -20.265625 L 13.203125 -4.765625 L 13.28125 -4.765625 L 18.375 -20.265625 L 24.21875 -20.265625 L 24.21875 0 L 20.21875 0 L 20.21875 -9.59375 C 20.21875 -10.039062 20.222656 -10.5625 20.234375 -11.15625 C 20.242188 -11.75 20.304688 -13.320312 20.421875 -15.875 L 20.296875 -15.875 L 15.0625 0 Z M 11.125 0 "/></g></g></g><g fill="#ffffff" fill-opacity="1"><g transform="translate(108.974703, 239.357972)"><g><path d="M 14.953125 0 L 13.484375 -4.828125 L 6.09375 -4.828125 L 4.625 0 L 0 0 L 7.15625 -20.34375 L 12.40625 -20.34375 L 19.59375 0 Z M 12.46875 -8.421875 C 11.101562 -12.796875 10.332031 -15.269531 10.15625 -15.84375 C 9.988281 -16.414062 9.867188 -16.867188 9.796875 -17.203125 C 9.492188 -16.015625 8.625 -13.085938 7.1875 -8.421875 Z M 12.46875 -8.421875 "/></g></g></g><g fill="#ffffff" fill-opacity="1"><g transform="translate(132.540873, 239.357972)"><g><path d="M 20.53125 0 L 15.0625 0 L 6.25 -15.328125 L 6.125 -15.328125 C 6.300781 -12.617188 6.390625 -10.6875 6.390625 -9.53125 L 6.390625 0 L 2.546875 0 L 2.546875 -20.265625 L 7.96875 -20.265625 L 16.78125 -5.09375 L 16.875 -5.09375 C 16.726562 -7.71875 16.65625 -9.578125 16.65625 -10.671875 L 16.65625 -20.265625 L 20.53125 -20.265625 Z M 20.53125 0 "/></g></g></g><g fill="#ffffff" fill-opacity="1"><g transform="translate(159.600901, 239.357972)"><g><path d="M 2.546875 0 L 2.546875 -20.265625 L 6.84375 -20.265625 L 6.84375 0 Z M 2.546875 0 "/></g></g></g><g fill="#ffffff" fill-opacity="1"><g transform="translate(172.976646, 239.357972)"><g><path d="M 6.78125 0 L 2.546875 0 L 2.546875 -20.265625 L 14.171875 -20.265625 L 14.171875 -16.75 L 6.78125 -16.75 L 6.78125 -11.515625 L 13.65625 -11.515625 L 13.65625 -8.015625 L 6.78125 -8.015625 Z M 6.78125 0 "/></g></g></g><g fill="#ffffff" fill-opacity="1"><g transform="translate(192.535971, 239.357972)"><g><path d="M 14.21875 0 L 2.546875 0 L 2.546875 -20.265625 L 14.21875 -20.265625 L 14.21875 -16.75 L 6.84375 -16.75 L 6.84375 -12.296875 L 13.703125 -12.296875 L 13.703125 -8.78125 L 6.84375 -8.78125 L 6.84375 -3.546875 L 14.21875 -3.546875 Z M 14.21875 0 "/></g></g></g><g fill="#ffffff" fill-opacity="1"><g transform="translate(212.414186, 239.357972)"><g><path d="M 14.515625 -5.625 C 14.515625 -3.800781 13.851562 -2.359375 12.53125 -1.296875 C 11.21875 -0.242188 9.390625 0.28125 7.046875 0.28125 C 4.878906 0.28125 2.960938 -0.125 1.296875 -0.9375 L 1.296875 -4.9375 C 2.671875 -4.320312 3.832031 -3.890625 4.78125 -3.640625 C 5.726562 -3.390625 6.59375 -3.265625 7.375 -3.265625 C 8.3125 -3.265625 9.03125 -3.445312 9.53125 -3.8125 C 10.039062 -4.175781 10.296875 -4.710938 10.296875 -5.421875 C 10.296875 -5.816406 10.1875 -6.164062 9.96875 -6.46875 C 9.75 -6.78125 9.421875 -7.078125 8.984375 -7.359375 C 8.554688 -7.648438 7.679688 -8.113281 6.359375 -8.75 C 5.117188 -9.332031 4.1875 -9.890625 3.5625 -10.421875 C 2.945312 -10.960938 2.453125 -11.585938 2.078125 -12.296875 C 1.710938 -13.003906 1.53125 -13.835938 1.53125 -14.796875 C 1.53125 -16.585938 2.140625 -17.992188 3.359375 -19.015625 C 4.578125 -20.046875 6.257812 -20.5625 8.40625 -20.5625 C 9.457031 -20.5625 10.457031 -20.4375 11.40625 -20.1875 C 12.363281 -19.9375 13.367188 -19.582031 14.421875 -19.125 L 13.03125 -15.796875 C 11.945312 -16.234375 11.050781 -16.539062 10.34375 -16.71875 C 9.632812 -16.894531 8.941406 -16.984375 8.265625 -16.984375 C 7.453125 -16.984375 6.828125 -16.789062 6.390625 -16.40625 C 5.953125 -16.03125 5.734375 -15.539062 5.734375 -14.9375 C 5.734375 -14.550781 5.820312 -14.21875 6 -13.9375 C 6.175781 -13.65625 6.457031 -13.378906 6.84375 -13.109375 C 7.226562 -12.847656 8.132812 -12.378906 9.5625 -11.703125 C 11.457031 -10.796875 12.753906 -9.882812 13.453125 -8.96875 C 14.160156 -8.0625 14.515625 -6.945312 14.515625 -5.625 Z M 14.515625 -5.625 "/></g></g></g><g fill="#ffffff" fill-opacity="1"><g transform="translate(232.028969, 239.357972)"><g><path d="M 10.375 0 L 6.078125 0 L 6.078125 -16.6875 L 0.5625 -16.6875 L 0.5625 -20.265625 L 15.875 -20.265625 L 15.875 -16.6875 L 10.375 -16.6875 Z M 10.375 0 "/></g></g></g><g fill="#ffffff" fill-opacity="1"><g transform="translate(252.447894, 239.357972)"><g/></g></g><g fill="#ffffff" fill-opacity="1"><g transform="translate(263.799425, 239.357972)"><g><path d="M 14.953125 0 L 13.484375 -4.828125 L 6.09375 -4.828125 L 4.625 0 L 0 0 L 7.15625 -20.34375 L 12.40625 -20.34375 L 19.59375 0 Z M 12.46875 -8.421875 C 11.101562 -12.796875 10.332031 -15.269531 10.15625 -15.84375 C 9.988281 -16.414062 9.867188 -16.867188 9.796875 -17.203125 C 9.492188 -16.015625 8.625 -13.085938 7.1875 -8.421875 Z M 12.46875 -8.421875 "/></g></g></g><g fill="#ffffff" fill-opacity="1"><g transform="translate(287.365601, 239.357972)"><g><path d="M 2.546875 0 L 2.546875 -20.265625 L 6.84375 -20.265625 L 6.84375 0 Z M 2.546875 0 "/></g></g></g><g fill="#ffffff" fill-opacity="1"><g transform="translate(77.864869, 260.59176)"><g><path d="M 2.046875 -10.90625 C 2.285156 -10.90625 2.492188 -10.816406 2.671875 -10.640625 C 2.859375 -10.460938 2.953125 -10.25 2.953125 -10 C 2.953125 -9.75 2.859375 -9.535156 2.671875 -9.359375 C 2.492188 -9.179688 2.285156 -9.09375 2.046875 -9.09375 C 1.796875 -9.09375 1.578125 -9.179688 1.390625 -9.359375 C 1.210938 -9.535156 1.125 -9.75 1.125 -10 C 1.125 -10.25 1.210938 -10.460938 1.390625 -10.640625 C 1.578125 -10.816406 1.796875 -10.90625 2.046875 -10.90625 Z M 2.78125 -1.328125 C 2.78125 -0.929688 2.859375 -0.660156 3.015625 -0.515625 C 3.179688 -0.367188 3.460938 -0.296875 3.859375 -0.296875 L 3.859375 0 C 2.984375 -0.0390625 2.410156 -0.0625 2.140625 -0.0625 C 1.859375 -0.0625 1.28125 -0.0390625 0.40625 0 L 0.40625 -0.296875 C 0.8125 -0.296875 1.09375 -0.367188 1.25 -0.515625 C 1.414062 -0.660156 1.5 -0.929688 1.5 -1.328125 L 1.5 -5.796875 C 1.5 -6.234375 1.414062 -6.550781 1.25 -6.75 C 1.09375 -6.945312 0.8125 -7.046875 0.40625 -7.046875 L 0.40625 -7.34375 C 0.71875 -7.3125 1.015625 -7.296875 1.296875 -7.296875 C 1.898438 -7.296875 2.394531 -7.363281 2.78125 -7.5 Z M 2.78125 -1.328125 "/></g></g></g><g fill="#ffffff" fill-opacity="1"><g transform="translate(83.826704, 260.59176)"><g><path d="M 9.5625 -9.8125 C 9.226562 -9.789062 8.976562 -9.738281 8.8125 -9.65625 C 8.65625 -9.582031 8.546875 -9.453125 8.484375 -9.265625 C 8.429688 -9.078125 8.40625 -8.800781 8.40625 -8.4375 L 8.40625 0.078125 L 8.078125 0.078125 L 2.078125 -9.1875 L 2.078125 -1.65625 C 2.078125 -1.28125 2.109375 -1.003906 2.171875 -0.828125 C 2.234375 -0.648438 2.351562 -0.519531 2.53125 -0.4375 C 2.71875 -0.351562 3 -0.300781 3.375 -0.28125 L 3.375 0 C 3.039062 -0.03125 2.554688 -0.046875 1.921875 -0.046875 C 1.347656 -0.046875 0.90625 -0.03125 0.59375 0 L 0.59375 -0.28125 C 0.925781 -0.300781 1.171875 -0.351562 1.328125 -0.4375 C 1.492188 -0.519531 1.601562 -0.648438 1.65625 -0.828125 C 1.71875 -1.015625 1.75 -1.289062 1.75 -1.65625 L 1.75 -8.59375 C 1.75 -8.945312 1.71875 -9.203125 1.65625 -9.359375 C 1.601562 -9.523438 1.5 -9.632812 1.34375 -9.6875 C 1.1875 -9.75 0.9375 -9.789062 0.59375 -9.8125 L 0.59375 -10.09375 C 0.90625 -10.070312 1.347656 -10.0625 1.921875 -10.0625 C 2.347656 -10.0625 2.71875 -10.070312 3.03125 -10.09375 L 8.078125 -2.34375 L 8.078125 -8.4375 C 8.078125 -8.8125 8.046875 -9.085938 7.984375 -9.265625 C 7.921875 -9.453125 7.796875 -9.582031 7.609375 -9.65625 C 7.429688 -9.738281 7.15625 -9.789062 6.78125 -9.8125 L 6.78125 -10.09375 C 7.125 -10.070312 7.609375 -10.0625 8.234375 -10.0625 C 8.804688 -10.0625 9.25 -10.070312 9.5625 -10.09375 Z M 9.5625 -9.8125 "/></g></g></g><g fill="#ffffff" fill-opacity="1"><g transform="translate(95.678595, 260.59176)"><g><path d="M 9.5625 -9.8125 C 9.226562 -9.789062 8.976562 -9.738281 8.8125 -9.65625 C 8.65625 -9.582031 8.546875 -9.453125 8.484375 -9.265625 C 8.429688 -9.078125 8.40625 -8.800781 8.40625 -8.4375 L 8.40625 0.078125 L 8.078125 0.078125 L 2.078125 -9.1875 L 2.078125 -1.65625 C 2.078125 -1.28125 2.109375 -1.003906 2.171875 -0.828125 C 2.234375 -0.648438 2.351562 -0.519531 2.53125 -0.4375 C 2.71875 -0.351562 3 -0.300781 3.375 -0.28125 L 3.375 0 C 3.039062 -0.03125 2.554688 -0.046875 1.921875 -0.046875 C 1.347656 -0.046875 0.90625 -0.03125 0.59375 0 L 0.59375 -0.28125 C 0.925781 -0.300781 1.171875 -0.351562 1.328125 -0.4375 C 1.492188 -0.519531 1.601562 -0.648438 1.65625 -0.828125 C 1.71875 -1.015625 1.75 -1.289062 1.75 -1.65625 L 1.75 -8.59375 C 1.75 -8.945312 1.71875 -9.203125 1.65625 -9.359375 C 1.601562 -9.523438 1.5 -9.632812 1.34375 -9.6875 C 1.1875 -9.75 0.9375 -9.789062 0.59375 -9.8125 L 0.59375 -10.09375 C 0.90625 -10.070312 1.347656 -10.0625 1.921875 -10.0625 C 2.347656 -10.0625 2.71875 -10.070312 3.03125 -10.09375 L 8.078125 -2.34375 L 8.078125 -8.4375 C 8.078125 -8.8125 8.046875 -9.085938 7.984375 -9.265625 C 7.921875 -9.453125 7.796875 -9.582031 7.609375 -9.65625 C 7.429688 -9.738281 7.15625 -9.789062 6.78125 -9.8125 L 6.78125 -10.09375 C 7.125 -10.070312 7.609375 -10.0625 8.234375 -10.0625 C 8.804688 -10.0625 9.25 -10.070312 9.5625 -10.09375 Z M 9.5625 -9.8125 "/></g></g></g><g fill="#ffffff" fill-opacity="1"><g transform="translate(107.530488, 260.59176)"><g><path d="M 5.296875 -10.296875 C 6.191406 -10.296875 6.976562 -10.09375 7.65625 -9.6875 C 8.34375 -9.28125 8.875 -8.6875 9.25 -7.90625 C 9.625 -7.132812 9.8125 -6.210938 9.8125 -5.140625 C 9.8125 -4.085938 9.617188 -3.15625 9.234375 -2.34375 C 8.847656 -1.539062 8.3125 -0.914062 7.625 -0.46875 C 6.9375 -0.0195312 6.15625 0.203125 5.28125 0.203125 C 4.375 0.203125 3.582031 0 2.90625 -0.40625 C 2.226562 -0.820312 1.695312 -1.414062 1.3125 -2.1875 C 0.9375 -2.96875 0.75 -3.894531 0.75 -4.96875 C 0.75 -6.007812 0.941406 -6.929688 1.328125 -7.734375 C 1.710938 -8.546875 2.25 -9.175781 2.9375 -9.625 C 3.632812 -10.070312 4.421875 -10.296875 5.296875 -10.296875 Z M 5.234375 -10.046875 C 4.628906 -10.046875 4.09375 -9.832031 3.625 -9.40625 C 3.164062 -8.976562 2.8125 -8.382812 2.5625 -7.625 C 2.3125 -6.863281 2.1875 -5.992188 2.1875 -5.015625 C 2.1875 -4.023438 2.328125 -3.15625 2.609375 -2.40625 C 2.890625 -1.65625 3.265625 -1.078125 3.734375 -0.671875 C 4.210938 -0.265625 4.742188 -0.0625 5.328125 -0.0625 C 5.941406 -0.0625 6.476562 -0.269531 6.9375 -0.6875 C 7.394531 -1.113281 7.75 -1.707031 8 -2.46875 C 8.257812 -3.226562 8.390625 -4.097656 8.390625 -5.078125 C 8.390625 -6.066406 8.25 -6.9375 7.96875 -7.6875 C 7.6875 -8.4375 7.304688 -9.015625 6.828125 -9.421875 C 6.359375 -9.835938 5.828125 -10.046875 5.234375 -10.046875 Z M 5.234375 -10.046875 "/></g></g></g><g fill="#ffffff" fill-opacity="1"><g transform="translate(119.881546, 260.59176)"><g><path d="M 8.015625 -10.0625 C 8.441406 -10.0625 8.800781 -10.070312 9.09375 -10.09375 L 9.09375 -9.8125 C 8.613281 -9.695312 8.234375 -9.285156 7.953125 -8.578125 L 4.609375 0.078125 L 4.375 0.078125 L 0.90625 -8.90625 C 0.675781 -9.488281 0.347656 -9.789062 -0.078125 -9.8125 L -0.078125 -10.09375 C 0.296875 -10.070312 0.800781 -10.0625 1.4375 -10.0625 C 2.257812 -10.0625 2.867188 -10.070312 3.265625 -10.09375 L 3.265625 -9.8125 C 2.898438 -9.789062 2.640625 -9.742188 2.484375 -9.671875 C 2.328125 -9.609375 2.25 -9.476562 2.25 -9.28125 C 2.25 -9.125 2.304688 -8.898438 2.421875 -8.609375 L 5 -1.75 L 7.328125 -7.78125 C 7.523438 -8.300781 7.625 -8.691406 7.625 -8.953125 C 7.625 -9.253906 7.519531 -9.46875 7.3125 -9.59375 C 7.101562 -9.726562 6.789062 -9.800781 6.375 -9.8125 L 6.375 -10.09375 C 6.914062 -10.070312 7.460938 -10.0625 8.015625 -10.0625 Z M 8.015625 -10.0625 "/></g></g></g><g fill="#ffffff" fill-opacity="1"><g transform="translate(130.649554, 260.59176)"><g><path d="M 8.09375 -1.203125 C 8.320312 -0.609375 8.648438 -0.300781 9.078125 -0.28125 L 9.078125 0 C 8.691406 -0.03125 8.179688 -0.046875 7.546875 -0.046875 C 6.722656 -0.046875 6.113281 -0.03125 5.71875 0 L 5.71875 -0.28125 C 6.082031 -0.300781 6.34375 -0.347656 6.5 -0.421875 C 6.65625 -0.492188 6.734375 -0.625 6.734375 -0.8125 C 6.734375 -0.976562 6.675781 -1.203125 6.5625 -1.484375 L 5.6875 -3.828125 L 2.234375 -3.828125 L 1.65625 -2.3125 C 1.46875 -1.800781 1.375 -1.410156 1.375 -1.140625 C 1.375 -0.847656 1.472656 -0.632812 1.671875 -0.5 C 1.878906 -0.363281 2.191406 -0.289062 2.609375 -0.28125 L 2.609375 0 C 2.066406 -0.03125 1.519531 -0.046875 0.96875 -0.046875 C 0.539062 -0.046875 0.1875 -0.03125 -0.09375 0 L -0.09375 -0.28125 C 0.375 -0.394531 0.75 -0.8125 1.03125 -1.53125 L 4.375 -10.171875 L 4.609375 -10.171875 Z M 5.578125 -4.109375 L 3.984375 -8.375 L 2.359375 -4.109375 Z M 5.578125 -4.109375 "/></g></g></g><g fill="#ffffff" fill-opacity="1"><g transform="translate(141.417563, 260.59176)"><g><path d="M 8.4375 -10.09375 C 8.375 -9.425781 8.34375 -8.820312 8.34375 -8.28125 C 8.34375 -7.800781 8.359375 -7.410156 8.390625 -7.109375 L 8.0625 -7.109375 C 7.988281 -7.835938 7.894531 -8.378906 7.78125 -8.734375 C 7.664062 -9.085938 7.460938 -9.347656 7.171875 -9.515625 C 6.890625 -9.679688 6.453125 -9.765625 5.859375 -9.765625 L 5.09375 -9.765625 L 5.09375 -1.65625 C 5.09375 -1.257812 5.128906 -0.96875 5.203125 -0.78125 C 5.285156 -0.601562 5.421875 -0.476562 5.609375 -0.40625 C 5.796875 -0.34375 6.101562 -0.300781 6.53125 -0.28125 L 6.53125 0 C 6.039062 -0.03125 5.34375 -0.046875 4.4375 -0.046875 C 3.488281 -0.046875 2.785156 -0.03125 2.328125 0 L 2.328125 -0.28125 C 2.753906 -0.300781 3.0625 -0.34375 3.25 -0.40625 C 3.4375 -0.476562 3.566406 -0.601562 3.640625 -0.78125 C 3.722656 -0.96875 3.765625 -1.257812 3.765625 -1.65625 L 3.765625 -9.765625 L 3 -9.765625 C 2.40625 -9.765625 1.960938 -9.679688 1.671875 -9.515625 C 1.390625 -9.347656 1.191406 -9.085938 1.078125 -8.734375 C 0.960938 -8.378906 0.867188 -7.835938 0.796875 -7.109375 L 0.46875 -7.109375 C 0.5 -7.410156 0.515625 -7.800781 0.515625 -8.28125 C 0.515625 -8.820312 0.476562 -9.425781 0.40625 -10.09375 C 1.195312 -10.070312 2.539062 -10.0625 4.4375 -10.0625 C 6.320312 -10.0625 7.65625 -10.070312 8.4375 -10.09375 Z M 8.4375 -10.09375 "/></g></g></g><g fill="#ffffff" fill-opacity="1"><g transform="translate(152.057214, 260.59176)"><g><path d="M 4.234375 -9.8125 C 3.890625 -9.789062 3.640625 -9.75 3.484375 -9.6875 C 3.328125 -9.632812 3.21875 -9.523438 3.15625 -9.359375 C 3.101562 -9.203125 3.078125 -8.945312 3.078125 -8.59375 L 3.078125 -1.515625 C 3.078125 -1.148438 3.101562 -0.882812 3.15625 -0.71875 C 3.21875 -0.5625 3.328125 -0.453125 3.484375 -0.390625 C 3.640625 -0.335938 3.890625 -0.300781 4.234375 -0.28125 L 4.234375 0 C 3.796875 -0.03125 3.191406 -0.046875 2.421875 -0.046875 C 1.609375 -0.046875 1 -0.03125 0.59375 0 L 0.59375 -0.28125 C 0.9375 -0.300781 1.1875 -0.335938 1.34375 -0.390625 C 1.5 -0.453125 1.601562 -0.5625 1.65625 -0.71875 C 1.71875 -0.882812 1.75 -1.148438 1.75 -1.515625 L 1.75 -8.59375 C 1.75 -8.945312 1.71875 -9.203125 1.65625 -9.359375 C 1.601562 -9.523438 1.5 -9.632812 1.34375 -9.6875 C 1.1875 -9.75 0.9375 -9.789062 0.59375 -9.8125 L 0.59375 -10.09375 C 1 -10.070312 1.609375 -10.0625 2.421875 -10.0625 C 3.179688 -10.0625 3.785156 -10.070312 4.234375 -10.09375 Z M 4.234375 -9.8125 "/></g></g></g><g fill="#ffffff" fill-opacity="1"><g transform="translate(158.67508, 260.59176)"><g><path d="M 9.5625 -9.8125 C 9.226562 -9.789062 8.976562 -9.738281 8.8125 -9.65625 C 8.65625 -9.582031 8.546875 -9.453125 8.484375 -9.265625 C 8.429688 -9.078125 8.40625 -8.800781 8.40625 -8.4375 L 8.40625 0.078125 L 8.078125 0.078125 L 2.078125 -9.1875 L 2.078125 -1.65625 C 2.078125 -1.28125 2.109375 -1.003906 2.171875 -0.828125 C 2.234375 -0.648438 2.351562 -0.519531 2.53125 -0.4375 C 2.71875 -0.351562 3 -0.300781 3.375 -0.28125 L 3.375 0 C 3.039062 -0.03125 2.554688 -0.046875 1.921875 -0.046875 C 1.347656 -0.046875 0.90625 -0.03125 0.59375 0 L 0.59375 -0.28125 C 0.925781 -0.300781 1.171875 -0.351562 1.328125 -0.4375 C 1.492188 -0.519531 1.601562 -0.648438 1.65625 -0.828125 C 1.71875 -1.015625 1.75 -1.289062 1.75 -1.65625 L 1.75 -8.59375 C 1.75 -8.945312 1.71875 -9.203125 1.65625 -9.359375 C 1.601562 -9.523438 1.5 -9.632812 1.34375 -9.6875 C 1.1875 -9.75 0.9375 -9.789062 0.59375 -9.8125 L 0.59375 -10.09375 C 0.90625 -10.070312 1.347656 -10.0625 1.921875 -10.0625 C 2.347656 -10.0625 2.71875 -10.070312 3.03125 -10.09375 L 8.078125 -2.34375 L 8.078125 -8.4375 C 8.078125 -8.8125 8.046875 -9.085938 7.984375 -9.265625 C 7.921875 -9.453125 7.796875 -9.582031 7.609375 -9.65625 C 7.429688 -9.738281 7.15625 -9.789062 6.78125 -9.8125 L 6.78125 -10.09375 C 7.125 -10.070312 7.609375 -10.0625 8.234375 -10.0625 C 8.804688 -10.0625 9.25 -10.070312 9.5625 -10.09375 Z M 9.5625 -9.8125 "/></g></g></g><g fill="#ffffff" fill-opacity="1"><g transform="translate(170.52697, 260.59176)"><g><path d="M 5.359375 -10.296875 C 5.921875 -10.296875 6.382812 -10.21875 6.75 -10.0625 C 7.113281 -9.90625 7.507812 -9.675781 7.9375 -9.375 C 8.050781 -9.28125 8.144531 -9.234375 8.21875 -9.234375 C 8.394531 -9.234375 8.515625 -9.519531 8.578125 -10.09375 L 8.90625 -10.09375 C 8.863281 -9.476562 8.84375 -8.382812 8.84375 -6.8125 L 8.515625 -6.8125 C 8.429688 -7.320312 8.34375 -7.738281 8.25 -8.0625 C 8.15625 -8.394531 8.003906 -8.6875 7.796875 -8.9375 C 7.523438 -9.269531 7.164062 -9.535156 6.71875 -9.734375 C 6.28125 -9.941406 5.816406 -10.046875 5.328125 -10.046875 C 4.703125 -10.046875 4.148438 -9.835938 3.671875 -9.421875 C 3.203125 -9.015625 2.835938 -8.429688 2.578125 -7.671875 C 2.328125 -6.921875 2.203125 -6.039062 2.203125 -5.03125 C 2.203125 -3.320312 2.472656 -2.066406 3.015625 -1.265625 C 3.566406 -0.472656 4.425781 -0.078125 5.59375 -0.078125 C 6.164062 -0.078125 6.660156 -0.226562 7.078125 -0.53125 C 7.242188 -0.644531 7.351562 -0.753906 7.40625 -0.859375 C 7.457031 -0.972656 7.484375 -1.125 7.484375 -1.3125 L 7.484375 -2.6875 C 7.484375 -3.082031 7.445312 -3.367188 7.375 -3.546875 C 7.300781 -3.734375 7.164062 -3.859375 6.96875 -3.921875 C 6.78125 -3.984375 6.472656 -4.023438 6.046875 -4.046875 L 6.046875 -4.34375 C 6.546875 -4.3125 7.21875 -4.296875 8.0625 -4.296875 C 8.707031 -4.296875 9.203125 -4.3125 9.546875 -4.34375 L 9.546875 -4.046875 C 9.328125 -4.023438 9.164062 -3.988281 9.0625 -3.9375 C 8.96875 -3.882812 8.898438 -3.773438 8.859375 -3.609375 C 8.828125 -3.441406 8.8125 -3.179688 8.8125 -2.828125 L 8.8125 0 L 8.53125 0 C 8.519531 -0.1875 8.476562 -0.367188 8.40625 -0.546875 C 8.34375 -0.722656 8.253906 -0.8125 8.140625 -0.8125 C 8.085938 -0.8125 8.03125 -0.796875 7.96875 -0.765625 C 7.914062 -0.742188 7.816406 -0.679688 7.671875 -0.578125 C 7.335938 -0.316406 6.992188 -0.125 6.640625 0 C 6.285156 0.132812 5.890625 0.203125 5.453125 0.203125 C 4.472656 0.203125 3.632812 0 2.9375 -0.40625 C 2.238281 -0.8125 1.703125 -1.394531 1.328125 -2.15625 C 0.953125 -2.914062 0.765625 -3.820312 0.765625 -4.875 C 0.765625 -5.957031 0.960938 -6.910156 1.359375 -7.734375 C 1.753906 -8.554688 2.296875 -9.1875 2.984375 -9.625 C 3.679688 -10.070312 4.472656 -10.296875 5.359375 -10.296875 Z M 5.359375 -10.296875 "/></g></g></g><g fill="#ffffff" fill-opacity="1"><g transform="translate(182.336088, 260.59176)"><g/></g></g><g fill="#ffffff" fill-opacity="1"><g transform="translate(187.670407, 260.59176)"><g><path d="M 11.875 -10.0625 C 12.300781 -10.0625 12.65625 -10.070312 12.9375 -10.09375 L 12.9375 -9.8125 C 12.40625 -9.6875 12.03125 -9.273438 11.8125 -8.578125 L 9.109375 0.078125 L 8.890625 0.078125 L 6.40625 -7.28125 L 4.140625 0.078125 L 3.90625 0.078125 L 0.890625 -8.90625 C 0.679688 -9.488281 0.351562 -9.789062 -0.09375 -9.8125 L -0.09375 -10.09375 C 0.289062 -10.070312 0.796875 -10.0625 1.421875 -10.0625 C 2.109375 -10.0625 2.625 -10.070312 2.96875 -10.09375 L 2.96875 -9.8125 C 2.707031 -9.789062 2.523438 -9.742188 2.421875 -9.671875 C 2.316406 -9.597656 2.265625 -9.476562 2.265625 -9.3125 C 2.265625 -9.164062 2.316406 -8.929688 2.421875 -8.609375 L 4.515625 -2.25 L 6.25 -7.78125 L 5.859375 -8.90625 C 5.671875 -9.488281 5.390625 -9.789062 5.015625 -9.8125 L 5.015625 -10.09375 C 5.359375 -10.070312 5.820312 -10.0625 6.40625 -10.0625 C 7.21875 -10.0625 7.828125 -10.070312 8.234375 -10.09375 L 8.234375 -9.8125 C 7.867188 -9.789062 7.613281 -9.75 7.46875 -9.6875 C 7.332031 -9.625 7.265625 -9.492188 7.265625 -9.296875 C 7.265625 -9.128906 7.3125 -8.898438 7.40625 -8.609375 L 9.453125 -2.265625 L 11.21875 -7.78125 C 11.363281 -8.25 11.4375 -8.632812 11.4375 -8.9375 C 11.4375 -9.257812 11.34375 -9.484375 11.15625 -9.609375 C 10.96875 -9.734375 10.660156 -9.800781 10.234375 -9.8125 L 10.234375 -10.09375 C 10.773438 -10.070312 11.320312 -10.0625 11.875 -10.0625 Z M 11.875 -10.0625 "/></g></g></g><g fill="#ffffff" fill-opacity="1"><g transform="translate(202.360374, 260.59176)"><g><path d="M 4.234375 -9.8125 C 3.890625 -9.789062 3.640625 -9.75 3.484375 -9.6875 C 3.328125 -9.632812 3.21875 -9.523438 3.15625 -9.359375 C 3.101562 -9.203125 3.078125 -8.945312 3.078125 -8.59375 L 3.078125 -1.515625 C 3.078125 -1.148438 3.101562 -0.882812 3.15625 -0.71875 C 3.21875 -0.5625 3.328125 -0.453125 3.484375 -0.390625 C 3.640625 -0.335938 3.890625 -0.300781 4.234375 -0.28125 L 4.234375 0 C 3.796875 -0.03125 3.191406 -0.046875 2.421875 -0.046875 C 1.609375 -0.046875 1 -0.03125 0.59375 0 L 0.59375 -0.28125 C 0.9375 -0.300781 1.1875 -0.335938 1.34375 -0.390625 C 1.5 -0.453125 1.601562 -0.5625 1.65625 -0.71875 C 1.71875 -0.882812 1.75 -1.148438 1.75 -1.515625 L 1.75 -8.59375 C 1.75 -8.945312 1.71875 -9.203125 1.65625 -9.359375 C 1.601562 -9.523438 1.5 -9.632812 1.34375 -9.6875 C 1.1875 -9.75 0.9375 -9.789062 0.59375 -9.8125 L 0.59375 -10.09375 C 1 -10.070312 1.609375 -10.0625 2.421875 -10.0625 C 3.179688 -10.0625 3.785156 -10.070312 4.234375 -10.09375 Z M 4.234375 -9.8125 "/></g></g></g><g fill="#ffffff" fill-opacity="1"><g transform="translate(208.978241, 260.59176)"><g><path d="M 8.4375 -10.09375 C 8.375 -9.425781 8.34375 -8.820312 8.34375 -8.28125 C 8.34375 -7.800781 8.359375 -7.410156 8.390625 -7.109375 L 8.0625 -7.109375 C 7.988281 -7.835938 7.894531 -8.378906 7.78125 -8.734375 C 7.664062 -9.085938 7.460938 -9.347656 7.171875 -9.515625 C 6.890625 -9.679688 6.453125 -9.765625 5.859375 -9.765625 L 5.09375 -9.765625 L 5.09375 -1.65625 C 5.09375 -1.257812 5.128906 -0.96875 5.203125 -0.78125 C 5.285156 -0.601562 5.421875 -0.476562 5.609375 -0.40625 C 5.796875 -0.34375 6.101562 -0.300781 6.53125 -0.28125 L 6.53125 0 C 6.039062 -0.03125 5.34375 -0.046875 4.4375 -0.046875 C 3.488281 -0.046875 2.785156 -0.03125 2.328125 0 L 2.328125 -0.28125 C 2.753906 -0.300781 3.0625 -0.34375 3.25 -0.40625 C 3.4375 -0.476562 3.566406 -0.601562 3.640625 -0.78125 C 3.722656 -0.96875 3.765625 -1.257812 3.765625 -1.65625 L 3.765625 -9.765625 L 3 -9.765625 C 2.40625 -9.765625 1.960938 -9.679688 1.671875 -9.515625 C 1.390625 -9.347656 1.191406 -9.085938 1.078125 -8.734375 C 0.960938 -8.378906 0.867188 -7.835938 0.796875 -7.109375 L 0.46875 -7.109375 C 0.5 -7.410156 0.515625 -7.800781 0.515625 -8.28125 C 0.515625 -8.820312 0.476562 -9.425781 0.40625 -10.09375 C 1.195312 -10.070312 2.539062 -10.0625 4.4375 -10.0625 C 6.320312 -10.0625 7.65625 -10.070312 8.4375 -10.09375 Z M 8.4375 -10.09375 "/></g></g></g><g fill="#ffffff" fill-opacity="1"><g transform="translate(219.617892, 260.59176)"><g><path d="M 10.203125 -9.8125 C 9.859375 -9.789062 9.609375 -9.75 9.453125 -9.6875 C 9.296875 -9.632812 9.1875 -9.523438 9.125 -9.359375 C 9.070312 -9.203125 9.046875 -8.945312 9.046875 -8.59375 L 9.046875 -1.515625 C 9.046875 -1.148438 9.070312 -0.882812 9.125 -0.71875 C 9.1875 -0.5625 9.296875 -0.453125 9.453125 -0.390625 C 9.609375 -0.335938 9.859375 -0.300781 10.203125 -0.28125 L 10.203125 0 C 9.796875 -0.03125 9.1875 -0.046875 8.375 -0.046875 C 7.601562 -0.046875 7 -0.03125 6.5625 0 L 6.5625 -0.28125 C 6.90625 -0.300781 7.15625 -0.335938 7.3125 -0.390625 C 7.46875 -0.453125 7.570312 -0.5625 7.625 -0.71875 C 7.6875 -0.882812 7.71875 -1.148438 7.71875 -1.515625 L 7.71875 -4.9375 L 3.078125 -4.9375 L 3.078125 -1.515625 C 3.078125 -1.148438 3.101562 -0.882812 3.15625 -0.71875 C 3.21875 -0.5625 3.328125 -0.453125 3.484375 -0.390625 C 3.640625 -0.335938 3.890625 -0.300781 4.234375 -0.28125 L 4.234375 0 C 3.796875 -0.03125 3.191406 -0.046875 2.421875 -0.046875 C 1.609375 -0.046875 1 -0.03125 0.59375 0 L 0.59375 -0.28125 C 0.9375 -0.300781 1.1875 -0.335938 1.34375 -0.390625 C 1.5 -0.453125 1.601562 -0.5625 1.65625 -0.71875 C 1.71875 -0.882812 1.75 -1.148438 1.75 -1.515625 L 1.75 -8.59375 C 1.75 -8.945312 1.71875 -9.203125 1.65625 -9.359375 C 1.601562 -9.523438 1.5 -9.632812 1.34375 -9.6875 C 1.1875 -9.75 0.9375 -9.789062 0.59375 -9.8125 L 0.59375 -10.09375 C 1 -10.070312 1.609375 -10.0625 2.421875 -10.0625 C 3.179688 -10.0625 3.785156 -10.070312 4.234375 -10.09375 L 4.234375 -9.8125 C 3.890625 -9.789062 3.640625 -9.75 3.484375 -9.6875 C 3.328125 -9.632812 3.21875 -9.523438 3.15625 -9.359375 C 3.101562 -9.203125 3.078125 -8.945312 3.078125 -8.59375 L 3.078125 -5.21875 L 7.71875 -5.21875 L 7.71875 -8.59375 C 7.71875 -8.945312 7.6875 -9.203125 7.625 -9.359375 C 7.570312 -9.523438 7.46875 -9.632812 7.3125 -9.6875 C 7.15625 -9.75 6.90625 -9.789062 6.5625 -9.8125 L 6.5625 -10.09375 C 7 -10.070312 7.601562 -10.0625 8.375 -10.0625 C 9.1875 -10.0625 9.796875 -10.070312 10.203125 -10.09375 Z M 10.203125 -9.8125 "/></g></g></g><g fill="#ffffff" fill-opacity="1"><g transform="translate(232.197134, 260.59176)"><g/></g></g><g fill="#ffffff" fill-opacity="1"><g transform="translate(237.531454, 260.59176)"><g><path d="M 7.90625 -1.828125 C 7.90625 -1.285156 7.9375 -0.675781 8 0 C 7.351562 -0.03125 6.265625 -0.046875 4.734375 -0.046875 C 2.910156 -0.046875 1.53125 -0.03125 0.59375 0 L 0.59375 -0.28125 C 0.9375 -0.300781 1.1875 -0.335938 1.34375 -0.390625 C 1.5 -0.453125 1.601562 -0.5625 1.65625 -0.71875 C 1.71875 -0.882812 1.75 -1.148438 1.75 -1.515625 L 1.75 -8.59375 C 1.75 -8.945312 1.71875 -9.203125 1.65625 -9.359375 C 1.601562 -9.523438 1.5 -9.632812 1.34375 -9.6875 C 1.1875 -9.75 0.9375 -9.789062 0.59375 -9.8125 L 0.59375 -10.09375 C 1.53125 -10.070312 2.910156 -10.0625 4.734375 -10.0625 C 6.128906 -10.0625 7.125 -10.070312 7.71875 -10.09375 C 7.65625 -9.46875 7.625 -8.910156 7.625 -8.421875 C 7.625 -8.046875 7.632812 -7.75 7.65625 -7.53125 L 7.328125 -7.53125 C 7.265625 -8.144531 7.179688 -8.601562 7.078125 -8.90625 C 6.972656 -9.207031 6.796875 -9.425781 6.546875 -9.5625 C 6.296875 -9.695312 5.921875 -9.765625 5.421875 -9.765625 L 4.234375 -9.765625 C 3.890625 -9.765625 3.640625 -9.738281 3.484375 -9.6875 C 3.328125 -9.632812 3.21875 -9.523438 3.15625 -9.359375 C 3.101562 -9.203125 3.078125 -8.945312 3.078125 -8.59375 L 3.078125 -5.21875 L 4.015625 -5.21875 C 4.347656 -5.21875 4.601562 -5.296875 4.78125 -5.453125 C 4.96875 -5.609375 5.09375 -5.789062 5.15625 -6 C 5.21875 -6.21875 5.269531 -6.488281 5.3125 -6.8125 L 5.34375 -7.109375 L 5.671875 -7.109375 C 5.648438 -6.703125 5.640625 -6.253906 5.640625 -5.765625 L 5.640625 -5.078125 C 5.640625 -4.585938 5.664062 -3.910156 5.71875 -3.046875 L 5.390625 -3.046875 C 5.378906 -3.117188 5.347656 -3.351562 5.296875 -3.75 C 5.253906 -4.144531 5.125 -4.441406 4.90625 -4.640625 C 4.695312 -4.835938 4.398438 -4.9375 4.015625 -4.9375 L 3.078125 -4.9375 L 3.078125 -1.515625 C 3.078125 -1.148438 3.101562 -0.882812 3.15625 -0.71875 C 3.21875 -0.5625 3.328125 -0.457031 3.484375 -0.40625 C 3.640625 -0.351562 3.890625 -0.328125 4.234375 -0.328125 L 5.28125 -0.328125 C 5.863281 -0.328125 6.3125 -0.40625 6.625 -0.5625 C 6.9375 -0.71875 7.160156 -0.96875 7.296875 -1.3125 C 7.441406 -1.664062 7.550781 -2.179688 7.625 -2.859375 L 7.953125 -2.859375 C 7.921875 -2.597656 7.90625 -2.253906 7.90625 -1.828125 Z M 7.90625 -1.828125 "/></g></g></g><g fill="#ffffff" fill-opacity="1"><g transform="translate(247.99997, 260.59176)"><g><path d="M 8.4375 -10.09375 C 8.375 -9.425781 8.34375 -8.820312 8.34375 -8.28125 C 8.34375 -7.800781 8.359375 -7.410156 8.390625 -7.109375 L 8.0625 -7.109375 C 7.988281 -7.835938 7.894531 -8.378906 7.78125 -8.734375 C 7.664062 -9.085938 7.460938 -9.347656 7.171875 -9.515625 C 6.890625 -9.679688 6.453125 -9.765625 5.859375 -9.765625 L 5.09375 -9.765625 L 5.09375 -1.65625 C 5.09375 -1.257812 5.128906 -0.96875 5.203125 -0.78125 C 5.285156 -0.601562 5.421875 -0.476562 5.609375 -0.40625 C 5.796875 -0.34375 6.101562 -0.300781 6.53125 -0.28125 L 6.53125 0 C 6.039062 -0.03125 5.34375 -0.046875 4.4375 -0.046875 C 3.488281 -0.046875 2.785156 -0.03125 2.328125 0 L 2.328125 -0.28125 C 2.753906 -0.300781 3.0625 -0.34375 3.25 -0.40625 C 3.4375 -0.476562 3.566406 -0.601562 3.640625 -0.78125 C 3.722656 -0.96875 3.765625 -1.257812 3.765625 -1.65625 L 3.765625 -9.765625 L 3 -9.765625 C 2.40625 -9.765625 1.960938 -9.679688 1.671875 -9.515625 C 1.390625 -9.347656 1.191406 -9.085938 1.078125 -8.734375 C 0.960938 -8.378906 0.867188 -7.835938 0.796875 -7.109375 L 0.46875 -7.109375 C 0.5 -7.410156 0.515625 -7.800781 0.515625 -8.28125 C 0.515625 -8.820312 0.476562 -9.425781 0.40625 -10.09375 C 1.195312 -10.070312 2.539062 -10.0625 4.4375 -10.0625 C 6.320312 -10.0625 7.65625 -10.070312 8.4375 -10.09375 Z M 8.4375 -10.09375 "/></g></g></g><g fill="#ffffff" fill-opacity="1"><g transform="translate(258.639622, 260.59176)"><g><path d="M 10.203125 -9.8125 C 9.859375 -9.789062 9.609375 -9.75 9.453125 -9.6875 C 9.296875 -9.632812 9.1875 -9.523438 9.125 -9.359375 C 9.070312 -9.203125 9.046875 -8.945312 9.046875 -8.59375 L 9.046875 -1.515625 C 9.046875 -1.148438 9.070312 -0.882812 9.125 -0.71875 C 9.1875 -0.5625 9.296875 -0.453125 9.453125 -0.390625 C 9.609375 -0.335938 9.859375 -0.300781 10.203125 -0.28125 L 10.203125 0 C 9.796875 -0.03125 9.1875 -0.046875 8.375 -0.046875 C 7.601562 -0.046875 7 -0.03125 6.5625 0 L 6.5625 -0.28125 C 6.90625 -0.300781 7.15625 -0.335938 7.3125 -0.390625 C 7.46875 -0.453125 7.570312 -0.5625 7.625 -0.71875 C 7.6875 -0.882812 7.71875 -1.148438 7.71875 -1.515625 L 7.71875 -4.9375 L 3.078125 -4.9375 L 3.078125 -1.515625 C 3.078125 -1.148438 3.101562 -0.882812 3.15625 -0.71875 C 3.21875 -0.5625 3.328125 -0.453125 3.484375 -0.390625 C 3.640625 -0.335938 3.890625 -0.300781 4.234375 -0.28125 L 4.234375 0 C 3.796875 -0.03125 3.191406 -0.046875 2.421875 -0.046875 C 1.609375 -0.046875 1 -0.03125 0.59375 0 L 0.59375 -0.28125 C 0.9375 -0.300781 1.1875 -0.335938 1.34375 -0.390625 C 1.5 -0.453125 1.601562 -0.5625 1.65625 -0.71875 C 1.71875 -0.882812 1.75 -1.148438 1.75 -1.515625 L 1.75 -8.59375 C 1.75 -8.945312 1.71875 -9.203125 1.65625 -9.359375 C 1.601562 -9.523438 1.5 -9.632812 1.34375 -9.6875 C 1.1875 -9.75 0.9375 -9.789062 0.59375 -9.8125 L 0.59375 -10.09375 C 1 -10.070312 1.609375 -10.0625 2.421875 -10.0625 C 3.179688 -10.0625 3.785156 -10.070312 4.234375 -10.09375 L 4.234375 -9.8125 C 3.890625 -9.789062 3.640625 -9.75 3.484375 -9.6875 C 3.328125 -9.632812 3.21875 -9.523438 3.15625 -9.359375 C 3.101562 -9.203125 3.078125 -8.945312 3.078125 -8.59375 L 3.078125 -5.21875 L 7.71875 -5.21875 L 7.71875 -8.59375 C 7.71875 -8.945312 7.6875 -9.203125 7.625 -9.359375 C 7.570312 -9.523438 7.46875 -9.632812 7.3125 -9.6875 C 7.15625 -9.75 6.90625 -9.789062 6.5625 -9.8125 L 6.5625 -10.09375 C 7 -10.070312 7.601562 -10.0625 8.375 -10.0625 C 9.1875 -10.0625 9.796875 -10.070312 10.203125 -10.09375 Z M 10.203125 -9.8125 "/></g></g></g><g fill="#ffffff" fill-opacity="1"><g transform="translate(271.218875, 260.59176)"><g><path d="M 4.234375 -9.8125 C 3.890625 -9.789062 3.640625 -9.75 3.484375 -9.6875 C 3.328125 -9.632812 3.21875 -9.523438 3.15625 -9.359375 C 3.101562 -9.203125 3.078125 -8.945312 3.078125 -8.59375 L 3.078125 -1.515625 C 3.078125 -1.148438 3.101562 -0.882812 3.15625 -0.71875 C 3.21875 -0.5625 3.328125 -0.453125 3.484375 -0.390625 C 3.640625 -0.335938 3.890625 -0.300781 4.234375 -0.28125 L 4.234375 0 C 3.796875 -0.03125 3.191406 -0.046875 2.421875 -0.046875 C 1.609375 -0.046875 1 -0.03125 0.59375 0 L 0.59375 -0.28125 C 0.9375 -0.300781 1.1875 -0.335938 1.34375 -0.390625 C 1.5 -0.453125 1.601562 -0.5625 1.65625 -0.71875 C 1.71875 -0.882812 1.75 -1.148438 1.75 -1.515625 L 1.75 -8.59375 C 1.75 -8.945312 1.71875 -9.203125 1.65625 -9.359375 C 1.601562 -9.523438 1.5 -9.632812 1.34375 -9.6875 C 1.1875 -9.75 0.9375 -9.789062 0.59375 -9.8125 L 0.59375 -10.09375 C 1 -10.070312 1.609375 -10.0625 2.421875 -10.0625 C 3.179688 -10.0625 3.785156 -10.070312 4.234375 -10.09375 Z M 4.234375 -9.8125 "/></g></g></g><g fill="#ffffff" fill-opacity="1"><g transform="translate(277.836741, 260.59176)"><g><path d="M 5.296875 -10.296875 C 5.867188 -10.296875 6.351562 -10.210938 6.75 -10.046875 C 7.144531 -9.890625 7.535156 -9.664062 7.921875 -9.375 C 8.023438 -9.289062 8.113281 -9.25 8.1875 -9.25 C 8.375 -9.25 8.5 -9.53125 8.5625 -10.09375 L 8.890625 -10.09375 C 8.847656 -9.476562 8.828125 -8.382812 8.828125 -6.8125 L 8.5 -6.8125 C 8.394531 -7.4375 8.300781 -7.882812 8.21875 -8.15625 C 8.132812 -8.425781 7.988281 -8.6875 7.78125 -8.9375 C 7.5 -9.300781 7.132812 -9.578125 6.6875 -9.765625 C 6.25 -9.953125 5.773438 -10.046875 5.265625 -10.046875 C 4.648438 -10.046875 4.109375 -9.835938 3.640625 -9.421875 C 3.179688 -9.015625 2.820312 -8.429688 2.5625 -7.671875 C 2.3125 -6.921875 2.1875 -6.035156 2.1875 -5.015625 C 2.1875 -3.984375 2.320312 -3.09375 2.59375 -2.34375 C 2.875 -1.601562 3.257812 -1.039062 3.75 -0.65625 C 4.238281 -0.269531 4.789062 -0.078125 5.40625 -0.078125 C 5.882812 -0.078125 6.34375 -0.164062 6.78125 -0.34375 C 7.226562 -0.53125 7.582031 -0.804688 7.84375 -1.171875 C 8.03125 -1.429688 8.164062 -1.710938 8.25 -2.015625 C 8.34375 -2.328125 8.425781 -2.796875 8.5 -3.421875 L 8.828125 -3.421875 C 8.828125 -1.785156 8.847656 -0.644531 8.890625 0 L 8.5625 0 C 8.53125 -0.300781 8.488281 -0.515625 8.4375 -0.640625 C 8.382812 -0.773438 8.3125 -0.84375 8.21875 -0.84375 C 8.144531 -0.84375 8.046875 -0.804688 7.921875 -0.734375 C 7.492188 -0.421875 7.082031 -0.1875 6.6875 -0.03125 C 6.300781 0.125 5.832031 0.203125 5.28125 0.203125 C 4.375 0.203125 3.582031 0 2.90625 -0.40625 C 2.226562 -0.820312 1.695312 -1.414062 1.3125 -2.1875 C 0.9375 -2.96875 0.75 -3.894531 0.75 -4.96875 C 0.75 -6.007812 0.941406 -6.929688 1.328125 -7.734375 C 1.710938 -8.546875 2.25 -9.175781 2.9375 -9.625 C 3.632812 -10.070312 4.421875 -10.296875 5.296875 -10.296875 Z M 5.296875 -10.296875 "/></g></g></g><g fill="#ffffff" fill-opacity="1"><g transform="translate(289.43194, 260.59176)"><g><path d="M 3.65625 -10.25 C 4.070312 -10.25 4.398438 -10.203125 4.640625 -10.109375 C 4.878906 -10.023438 5.128906 -9.898438 5.390625 -9.734375 C 5.597656 -9.597656 5.757812 -9.53125 5.875 -9.53125 C 5.957031 -9.53125 6.023438 -9.578125 6.078125 -9.671875 C 6.128906 -9.773438 6.164062 -9.9375 6.1875 -10.15625 L 6.515625 -10.15625 C 6.472656 -9.601562 6.453125 -8.632812 6.453125 -7.25 L 6.125 -7.25 C 6.0625 -8.019531 5.835938 -8.664062 5.453125 -9.1875 C 5.066406 -9.71875 4.507812 -9.984375 3.78125 -9.984375 C 3.269531 -9.984375 2.851562 -9.828125 2.53125 -9.515625 C 2.207031 -9.210938 2.046875 -8.816406 2.046875 -8.328125 C 2.046875 -7.960938 2.128906 -7.644531 2.296875 -7.375 C 2.460938 -7.113281 2.671875 -6.890625 2.921875 -6.703125 C 3.179688 -6.515625 3.546875 -6.273438 4.015625 -5.984375 L 4.4375 -5.71875 C 5.03125 -5.351562 5.5 -5.03125 5.84375 -4.75 C 6.195312 -4.46875 6.476562 -4.144531 6.6875 -3.78125 C 6.894531 -3.414062 7 -2.992188 7 -2.515625 C 7 -1.648438 6.710938 -0.976562 6.140625 -0.5 C 5.578125 -0.03125 4.859375 0.203125 3.984375 0.203125 C 3.523438 0.203125 3.148438 0.15625 2.859375 0.0625 C 2.566406 -0.03125 2.289062 -0.160156 2.03125 -0.328125 C 1.820312 -0.460938 1.660156 -0.53125 1.546875 -0.53125 C 1.453125 -0.53125 1.378906 -0.476562 1.328125 -0.375 C 1.285156 -0.28125 1.253906 -0.125 1.234375 0.09375 L 0.90625 0.09375 C 0.9375 -0.425781 0.953125 -1.566406 0.953125 -3.328125 L 1.28125 -3.328125 C 1.351562 -2.367188 1.59375 -1.585938 2 -0.984375 C 2.40625 -0.378906 3.03125 -0.078125 3.875 -0.078125 C 4.394531 -0.078125 4.832031 -0.238281 5.1875 -0.5625 C 5.550781 -0.882812 5.734375 -1.359375 5.734375 -1.984375 C 5.734375 -2.515625 5.554688 -2.960938 5.203125 -3.328125 C 4.847656 -3.703125 4.285156 -4.125 3.515625 -4.59375 C 2.953125 -4.9375 2.492188 -5.238281 2.140625 -5.5 C 1.796875 -5.769531 1.515625 -6.09375 1.296875 -6.46875 C 1.078125 -6.84375 0.96875 -7.28125 0.96875 -7.78125 C 0.96875 -8.582031 1.222656 -9.191406 1.734375 -9.609375 C 2.253906 -10.035156 2.894531 -10.25 3.65625 -10.25 Z M 3.65625 -10.25 "/></g></g></g></svg>