<svg xmlns="http://www.w3.org/2000/svg" xmlns:xlink="http://www.w3.org/1999/xlink" width="500" zoomAndPan="magnify" viewBox="0 0 375 374.999991" height="500" preserveAspectRatio="xMidYMid meet" version="1.0"><defs><clipPath id="e8548ae01c"><path d="M 0 35.15625 L 375 35.15625 L 375 339.65625 L 0 339.65625 Z M 0 35.15625 " clip-rule="nonzero"/></clipPath><clipPath id="a44bc1a1cd"><path d="M 329.714844 202.84375 C 329.714844 190.320312 339.855469 180.242188 352.386719 180.242188 C 364.917969 180.242188 375 190.375 375 202.84375 C 375 215.367188 364.859375 225.441406 352.386719 225.441406 C 348.480469 225.441406 344.75 224.453125 341.542969 222.703125 L 325.226562 246.703125 C 329.070312 250.082031 331.519531 255.03125 331.519531 260.625 C 331.519531 270.816406 323.242188 279.089844 313.042969 279.089844 C 302.84375 279.089844 294.566406 270.816406 294.566406 260.625 C 294.566406 253.632812 298.472656 247.519531 304.242188 244.429688 L 299.636719 232.78125 C 298.589844 233.015625 297.480469 233.132812 296.375 233.132812 C 288.273438 233.132812 281.746094 226.550781 281.746094 218.511719 C 281.746094 210.414062 288.332031 203.832031 296.375 203.832031 C 297.714844 203.832031 299.054688 204.007812 300.28125 204.355469 L 309.78125 183.269531 C 307.449219 181.464844 305.933594 178.667969 305.933594 175.523438 C 305.933594 170.105469 310.304688 165.738281 315.726562 165.738281 C 318.113281 165.738281 320.269531 166.554688 321.960938 168.007812 L 338.980469 155.078125 C 337.757812 152.863281 337.058594 150.242188 337.058594 147.507812 C 337.058594 142.960938 339.039062 138.828125 342.128906 135.972656 L 331.636719 120.539062 C 329.65625 121.46875 327.441406 121.992188 325.109375 121.992188 C 319.628906 121.992188 314.851562 119.082031 312.226562 114.769531 L 296.257812 121.46875 C 296.257812 121.703125 296.316406 121.933594 296.316406 122.109375 C 296.316406 125.78125 293.636719 128.808594 290.136719 129.390625 L 287.980469 144.886719 C 293.34375 146.574219 297.191406 151.582031 297.191406 157.464844 C 297.191406 164.746094 291.246094 170.6875 283.960938 170.6875 C 279.0625 170.6875 274.808594 168.007812 272.476562 164.046875 L 253.535156 171.039062 C 253.535156 171.097656 253.535156 171.15625 253.535156 171.269531 C 253.535156 175.175781 250.386719 178.320312 246.484375 178.320312 C 246.074219 178.320312 245.609375 178.261719 245.203125 178.203125 L 235.585938 195.675781 C 236.75 196.726562 237.742188 198.007812 238.382812 199.464844 L 264.960938 193.871094 C 265.367188 190.375 268.339844 187.640625 271.953125 187.640625 C 275.859375 187.640625 279.007812 190.785156 279.007812 194.6875 C 279.007812 198.296875 276.265625 201.269531 272.769531 201.675781 L 264.960938 238.957031 C 273.234375 241.636719 279.179688 249.382812 279.179688 258.527344 C 279.179688 269.886719 269.972656 279.148438 258.546875 279.148438 C 258.199219 279.148438 257.847656 279.148438 257.5 279.148438 L 254.410156 298.253906 C 257.207031 299.535156 259.1875 302.386719 259.1875 305.707031 C 259.1875 309.4375 256.742188 312.523438 253.359375 313.570312 L 253.652344 328.015625 C 255.808594 328.832031 257.382812 330.988281 257.382812 333.433594 C 257.382812 336.636719 254.761719 339.257812 251.554688 339.257812 C 248.347656 339.257812 245.726562 336.636719 245.726562 333.433594 C 245.726562 332.851562 245.84375 332.269531 246.015625 331.6875 L 235.816406 323.183594 C 234.535156 324.054688 232.960938 324.582031 231.214844 324.582031 C 226.726562 324.582031 223.113281 320.96875 223.113281 316.484375 C 223.113281 313.28125 224.976562 310.542969 227.65625 309.203125 L 225.910156 299.535156 C 225.792969 299.535156 225.617188 299.535156 225.5 299.535156 C 217.339844 299.535156 210.695312 292.894531 210.695312 284.738281 C 210.695312 276.585938 217.339844 269.945312 225.5 269.945312 C 229.40625 269.945312 232.902344 271.457031 235.527344 273.90625 L 241.179688 269.417969 C 239.140625 266.214844 237.972656 262.488281 237.972656 258.410156 C 237.972656 254.507812 239.082031 250.839844 241.003906 247.691406 L 226.550781 236.625 C 225.441406 237.382812 224.101562 237.847656 222.644531 237.847656 C 221.070312 237.847656 219.613281 237.324219 218.449219 236.453125 L 209.296875 242.800781 C 210.929688 245.769531 211.804688 249.148438 211.804688 252.761719 C 211.804688 264.292969 202.480469 273.613281 190.9375 273.613281 C 181.148438 273.613281 172.988281 266.914062 170.714844 257.828125 L 155.09375 259.984375 C 154.917969 267.382812 148.859375 273.324219 141.398438 273.324219 C 133.820312 273.324219 127.699219 267.207031 127.699219 259.632812 C 127.699219 252.0625 133.820312 245.945312 141.398438 245.945312 C 142.796875 245.945312 144.136719 246.179688 145.359375 246.527344 L 162.03125 212.800781 C 157.773438 209.949219 154.859375 205.289062 154.335938 199.929688 L 140.582031 199.464844 C 139.589844 202.027344 137.140625 203.832031 134.226562 203.832031 C 133.46875 203.832031 132.769531 203.714844 132.070312 203.484375 L 121.054688 217.753906 C 124.496094 221.132812 126.59375 225.792969 126.59375 230.976562 C 126.59375 241.226562 118.257812 249.558594 108 249.558594 C 99.375 249.558594 92.089844 243.617188 89.992188 235.636719 L 77.226562 237.324219 C 76.992188 244.605469 70.988281 250.488281 63.644531 250.488281 C 56.128906 250.488281 50.066406 244.429688 50.066406 236.917969 C 50.066406 229.8125 55.542969 223.984375 62.539062 223.402344 L 63.761719 208.492188 C 61.316406 207.445312 59.625 204.996094 59.625 202.144531 C 59.625 198.355469 62.714844 195.210938 66.558594 195.210938 C 67.433594 195.210938 68.191406 195.386719 68.949219 195.621094 L 95.003906 163.582031 C 94.363281 162.535156 93.953125 161.253906 93.953125 159.914062 C 93.953125 158.050781 94.710938 156.359375 95.878906 155.136719 L 91.855469 147.332031 C 89.816406 148.089844 87.660156 148.496094 85.386719 148.496094 C 82.121094 148.496094 79.03125 147.621094 76.410156 146.167969 L 60.730469 167.894531 C 62.363281 169.699219 63.355469 172.144531 63.355469 174.824219 C 63.355469 180.53125 58.691406 185.191406 52.980469 185.191406 C 51.816406 185.191406 50.648438 185.019531 49.601562 184.609375 L 33.222656 211.289062 C 36.953125 214.316406 39.285156 218.917969 39.285156 224.101562 C 39.285156 233.246094 31.882812 240.644531 22.730469 240.644531 C 13.582031 240.644531 6.179688 233.246094 6.179688 224.101562 C 6.179688 216.648438 11.132812 210.355469 17.894531 208.257812 L 16.609375 200.394531 C 16.496094 200.394531 16.4375 200.394531 16.320312 200.394531 C 7.808594 200.394531 0.933594 193.523438 0.933594 185.019531 C 0.933594 176.570312 7.75 169.699219 16.203125 169.640625 L 17.136719 162.824219 C 7.285156 160.4375 -0.0585938 151.523438 -0.0585938 140.925781 C -0.0585938 128.515625 10.023438 118.441406 22.4375 118.441406 C 32.753906 118.441406 41.5 125.371094 44.121094 134.867188 L 66.792969 130.847656 C 66.792969 130.496094 66.792969 130.207031 66.792969 129.855469 C 66.792969 126.710938 67.609375 123.742188 68.949219 121.121094 L 52.222656 109.410156 C 50.355469 111.160156 47.851562 112.207031 45.113281 112.207031 C 39.339844 112.207031 34.621094 107.488281 34.621094 101.722656 C 34.621094 95.957031 39.339844 91.238281 45.113281 91.238281 C 50.882812 91.238281 55.601562 95.957031 55.601562 101.722656 C 55.601562 103.179688 55.3125 104.519531 54.785156 105.742188 L 71.515625 117.449219 C 73.902344 114.769531 77.109375 112.789062 80.664062 111.859375 L 80.605469 94.90625 C 74.3125 93.859375 69.53125 88.441406 69.53125 81.859375 C 69.53125 74.578125 75.476562 68.636719 82.761719 68.636719 C 87.078125 68.636719 90.863281 70.675781 93.253906 73.820312 L 114.410156 62.753906 C 113.886719 61.183594 113.59375 59.550781 113.59375 57.804688 C 113.59375 49.472656 120.355469 42.660156 128.75 42.660156 C 137.085938 42.660156 143.902344 49.417969 143.902344 57.804688 C 143.902344 63.335938 140.929688 68.230469 136.441406 70.851562 L 143.4375 88.09375 C 144.542969 87.859375 145.652344 87.683594 146.875 87.683594 C 149.617188 87.683594 152.238281 88.441406 154.453125 89.78125 L 170.304688 70.558594 C 166.691406 66.832031 164.417969 61.765625 164.417969 56.171875 C 164.417969 44.816406 173.628906 35.554688 185.050781 35.554688 C 196.417969 35.554688 205.683594 44.757812 205.683594 56.171875 C 205.683594 61.242188 203.820312 65.898438 200.789062 69.453125 L 216.527344 85.996094 C 217.457031 85.53125 218.507812 85.296875 219.613281 85.296875 C 219.90625 85.296875 220.199219 85.296875 220.429688 85.355469 L 228.824219 67.238281 C 225.382812 64.851562 223.113281 60.890625 223.113281 56.347656 C 223.113281 49.066406 229.054688 43.125 236.34375 43.125 C 243.628906 43.125 249.574219 49.066406 249.574219 56.347656 C 249.574219 57.980469 249.28125 59.550781 248.757812 60.949219 L 262.105469 68.695312 C 265.425781 64.328125 270.730469 61.472656 276.617188 61.472656 C 286.699219 61.472656 294.859375 69.628906 294.859375 79.707031 C 294.859375 82.152344 294.394531 84.480469 293.519531 86.578125 L 313.21875 97.585938 C 315.957031 94.035156 320.269531 91.703125 325.167969 91.703125 C 333.5 91.703125 340.261719 98.460938 340.261719 106.789062 C 340.261719 111.160156 338.398438 115.121094 335.425781 117.859375 L 345.917969 133.292969 C 347.957031 132.304688 350.289062 131.722656 352.734375 131.722656 C 361.363281 131.722656 368.355469 138.710938 368.355469 147.332031 C 368.355469 155.953125 361.363281 162.941406 352.734375 162.941406 C 348.480469 162.941406 344.574219 161.253906 341.777344 158.457031 L 324.757812 171.386719 C 325.285156 172.609375 325.574219 173.949219 325.574219 175.347656 C 325.574219 180.765625 321.203125 185.132812 315.785156 185.132812 C 315.140625 185.132812 314.5 185.078125 313.917969 184.960938 L 304.417969 206.046875 C 308.4375 208.667969 311.121094 213.210938 311.121094 218.335938 C 311.121094 223.695312 308.207031 228.414062 303.894531 230.976562 L 308.496094 242.625 C 310.011719 242.21875 311.527344 242.042969 313.160156 242.042969 C 316.191406 242.042969 319.105469 242.800781 321.613281 244.082031 L 337.929688 220.082031 C 332.976562 215.949219 329.828125 209.714844 329.828125 202.726562 Z M 85.152344 111.390625 L 85.09375 94.964844 C 91.332031 93.917969 96.050781 88.441406 96.050781 81.917969 C 96.050781 80.519531 95.820312 79.121094 95.410156 77.839844 L 116.566406 66.773438 C 119.308594 70.558594 123.796875 73.007812 128.808594 73.007812 C 130.03125 73.007812 131.199219 72.890625 132.363281 72.597656 L 139.355469 89.839844 C 135.042969 92.402344 132.128906 97.121094 132.128906 102.539062 C 132.128906 109.0625 136.386719 114.597656 142.273438 116.578125 L 139.125 135.214844 C 138.714844 135.214844 138.308594 135.15625 137.84375 135.15625 C 126.300781 135.15625 116.976562 144.476562 116.976562 156.011719 C 116.976562 167.542969 126.300781 176.863281 137.84375 176.863281 C 148.800781 176.863281 157.773438 168.417969 158.648438 157.699219 L 170.714844 157.351562 C 171.703125 159.972656 174.210938 161.835938 177.183594 161.835938 C 179.28125 161.835938 181.148438 160.902344 182.429688 159.390625 L 198.222656 165.679688 C 198.050781 166.613281 197.933594 167.542969 197.933594 168.476562 C 197.933594 175.816406 203.9375 181.8125 211.28125 181.8125 C 218.625 181.8125 224.628906 175.816406 224.628906 168.476562 C 224.628906 165.273438 223.460938 162.300781 221.597656 159.972656 L 238.324219 140.632812 C 241.238281 142.554688 244.734375 143.71875 248.464844 143.71875 C 258.546875 143.71875 266.707031 135.566406 266.707031 125.488281 C 266.707031 115.410156 258.546875 107.257812 248.464844 107.257812 C 244.675781 107.257812 241.121094 108.421875 238.207031 110.402344 L 225.734375 96.132812 C 226.375 95.082031 226.726562 93.800781 226.726562 92.460938 C 226.726562 90.421875 225.851562 88.558594 224.453125 87.21875 L 232.785156 69.105469 C 233.894531 69.394531 235.058594 69.570312 236.226562 69.570312 C 240.304688 69.570312 243.976562 67.707031 246.367188 64.792969 L 259.714844 72.539062 C 258.78125 74.753906 258.257812 77.140625 258.257812 79.707031 C 258.257812 89.78125 266.417969 97.9375 276.5 97.9375 C 277.492188 97.9375 278.480469 97.878906 279.414062 97.703125 L 284.660156 115.820312 C 282.679688 117.160156 281.394531 119.371094 281.394531 121.933594 C 281.394531 124.90625 283.144531 127.410156 285.59375 128.632812 L 283.4375 144.128906 C 276.324219 144.359375 270.613281 150.1875 270.613281 157.351562 C 270.613281 158.164062 270.671875 158.980469 270.847656 159.796875 L 251.902344 166.785156 C 250.621094 165.15625 248.640625 164.164062 246.425781 164.164062 C 242.519531 164.164062 239.371094 167.3125 239.371094 171.214844 C 239.371094 173.078125 240.074219 174.707031 241.238281 175.988281 L 231.621094 193.464844 C 230.628906 193.171875 229.582031 193 228.53125 193 C 222.585938 193 217.808594 197.773438 217.808594 203.714844 C 217.808594 209.65625 222.585938 214.433594 228.53125 214.433594 C 234.476562 214.433594 239.257812 209.65625 239.257812 203.714844 L 265.832031 198.066406 C 266.476562 199.113281 267.292969 199.988281 268.339844 200.570312 L 260.53125 237.847656 C 259.890625 237.789062 259.191406 237.734375 258.488281 237.734375 C 252.660156 237.734375 247.359375 240.179688 243.570312 244.082031 L 229.113281 233.015625 C 229.347656 232.316406 229.523438 231.5 229.523438 230.742188 C 229.523438 226.839844 226.375 223.695312 222.46875 223.695312 C 218.566406 223.695312 215.417969 226.839844 215.417969 230.742188 C 215.417969 231.441406 215.535156 232.082031 215.710938 232.722656 L 206.558594 239.074219 C 202.710938 234.644531 197.058594 231.851562 190.765625 231.851562 C 179.222656 231.851562 169.898438 241.167969 169.898438 252.703125 C 169.898438 252.933594 169.898438 253.167969 169.898438 253.34375 L 154.277344 255.5 C 153.402344 252.644531 151.539062 250.140625 149.148438 248.449219 L 165.820312 214.726562 C 167.566406 215.308594 169.492188 215.65625 171.472656 215.65625 C 181.089844 215.65625 188.898438 207.851562 188.898438 198.242188 C 188.898438 188.628906 181.089844 180.882812 171.472656 180.882812 C 162.847656 180.882812 155.675781 187.171875 154.277344 195.445312 L 140.523438 194.976562 C 139.648438 192.183594 137.085938 190.203125 134.054688 190.203125 C 130.324219 190.203125 127.234375 193.230469 127.234375 197.015625 C 127.234375 198.414062 127.640625 199.636719 128.339844 200.746094 L 117.324219 215.015625 C 114.527344 213.328125 111.265625 212.394531 107.824219 212.394531 C 97.566406 212.394531 89.234375 220.722656 89.234375 230.976562 C 89.234375 231.035156 89.234375 231.152344 89.234375 231.207031 L 76.46875 232.898438 C 75.070312 228.414062 71.398438 224.859375 66.792969 223.695312 L 68.019531 208.785156 C 71.046875 208.027344 73.261719 205.289062 73.261719 202.085938 C 73.261719 200.746094 72.855469 199.464844 72.214844 198.414062 L 98.265625 166.378906 C 99.023438 166.667969 99.839844 166.785156 100.65625 166.785156 C 104.503906 166.785156 107.59375 163.699219 107.59375 159.855469 C 107.59375 156.070312 104.503906 152.921875 100.65625 152.921875 C 100.308594 152.921875 99.957031 152.921875 99.664062 152.980469 L 95.644531 145.175781 C 100.539062 141.855469 103.804688 136.207031 103.804688 129.796875 C 103.804688 119.546875 95.46875 111.21875 85.210938 111.21875 C 85.09375 111.21875 85.035156 111.21875 84.976562 111.21875 Z M 143.496094 135.972656 L 146.644531 117.332031 C 146.699219 117.332031 146.816406 117.332031 146.875 117.332031 C 152.238281 117.332031 156.902344 114.480469 159.523438 110.226562 L 181.089844 119.140625 C 180.796875 120.363281 180.621094 121.585938 180.621094 122.925781 C 180.621094 131.429688 187.5 138.304688 196.007812 138.304688 C 204.519531 138.304688 211.398438 131.429688 211.398438 122.925781 C 211.398438 118.789062 209.765625 115.0625 207.140625 112.265625 L 217.226562 99.277344 C 217.984375 99.566406 218.796875 99.683594 219.613281 99.683594 C 220.605469 99.683594 221.539062 99.507812 222.414062 99.101562 L 234.886719 113.371094 C 231.972656 116.578125 230.222656 120.886719 230.222656 125.546875 C 230.222656 130.265625 232.027344 134.515625 234.941406 137.777344 L 218.214844 157.117188 C 216.175781 155.894531 213.84375 155.195312 211.28125 155.195312 C 206.441406 155.195312 202.246094 157.757812 199.855469 161.601562 L 184.0625 155.3125 C 184.0625 155.195312 184.0625 155.078125 184.0625 154.960938 C 184.0625 151.117188 180.972656 148.03125 177.125 148.03125 C 174.035156 148.03125 171.414062 150.070312 170.539062 152.921875 L 158.472656 153.273438 C 157.367188 144.941406 151.363281 138.246094 143.4375 135.972656 Z M 197.523438 72.597656 L 213.261719 89.140625 C 212.738281 90.132812 212.386719 91.296875 212.386719 92.519531 C 212.386719 93.976562 212.855469 95.375 213.609375 96.539062 L 203.527344 109.527344 C 201.3125 108.246094 198.691406 107.546875 195.953125 107.546875 C 190.355469 107.546875 185.460938 110.578125 182.777344 115.003906 L 161.214844 106.035156 C 161.503906 104.925781 161.621094 103.703125 161.621094 102.480469 C 161.621094 98.695312 160.164062 95.257812 157.832031 92.636719 L 173.6875 73.414062 C 176.949219 75.570312 180.796875 76.792969 184.992188 76.792969 C 189.714844 76.792969 194.027344 75.21875 197.523438 72.539062 Z M 288.972656 114.710938 L 283.726562 96.539062 C 286.757812 95.257812 289.324219 93.160156 291.246094 90.539062 L 310.945312 101.546875 C 310.304688 103.179688 309.953125 104.984375 309.953125 106.847656 C 309.953125 108.128906 310.128906 109.355469 310.421875 110.578125 L 294.453125 117.273438 C 293.109375 115.703125 291.1875 114.710938 288.972656 114.652344 Z M 253.1875 278.332031 L 250.097656 297.4375 C 246.015625 297.902344 242.8125 301.398438 242.8125 305.59375 C 242.8125 309.4375 245.433594 312.640625 248.988281 313.570312 L 249.28125 328.015625 C 249.164062 328.074219 248.988281 328.132812 248.875 328.191406 L 238.671875 319.6875 C 239.140625 318.699219 239.371094 317.589844 239.371094 316.425781 C 239.371094 312.230469 236.167969 308.796875 232.085938 308.386719 L 230.339844 298.71875 C 236.167969 296.738281 240.363281 291.203125 240.363281 284.738281 C 240.363281 282.058594 239.664062 279.554688 238.382812 277.398438 L 244.035156 272.914062 C 246.542969 275.417969 249.6875 277.339844 253.246094 278.273438 Z M 72.796875 143.605469 L 57.117188 165.332031 C 55.835938 164.804688 54.4375 164.457031 52.980469 164.457031 C 47.269531 164.457031 42.605469 169.117188 42.605469 174.824219 C 42.605469 177.738281 43.828125 180.417969 45.8125 182.28125 L 29.433594 208.957031 C 27.394531 208.027344 25.121094 207.558594 22.730469 207.558594 C 22.554688 207.558594 22.4375 207.558594 22.265625 207.558594 L 20.980469 199.695312 C 27.21875 197.714844 31.707031 191.890625 31.707031 185.078125 C 31.707031 178.085938 27.042969 172.203125 20.632812 170.339844 L 21.566406 163.523438 C 21.855469 163.523438 22.148438 163.523438 22.496094 163.523438 C 34.914062 163.523438 44.996094 153.449219 44.996094 141.039062 C 44.996094 140.457031 44.996094 139.933594 44.9375 139.351562 L 67.609375 135.390625 C 68.601562 138.59375 70.40625 141.449219 72.796875 143.660156 Z M 89.816406 188.921875 C 89.816406 181.640625 95.761719 175.699219 103.046875 175.699219 C 110.332031 175.699219 116.277344 181.640625 116.277344 188.921875 C 116.277344 196.203125 110.332031 202.144531 103.046875 202.144531 C 95.761719 202.144531 89.816406 196.203125 89.816406 188.921875 Z M 103.980469 100.207031 C 103.980469 96.363281 107.066406 93.277344 110.914062 93.277344 C 114.761719 93.277344 117.851562 96.363281 117.851562 100.207031 C 117.851562 103.996094 114.761719 107.140625 110.914062 107.140625 C 107.125 107.140625 103.980469 104.054688 103.980469 100.207031 Z M 103.980469 100.207031 " clip-rule="evenodd"/></clipPath><linearGradient x1="39.985145" gradientTransform="matrix(5.828411, 0, 0, 5.824825, 0.0000045, 35.611299)" y1="-0.154474" x2="39.673595" gradientUnits="userSpaceOnUse" y2="52.365341" id="9eae05a095"><stop stop-opacity="1" stop-color="rgb(28.199768%, 79.199219%, 48.999023%)" offset="0"/><stop stop-opacity="1" stop-color="rgb(28.199768%, 79.199219%, 48.999023%)" offset="0.00726688"/><stop stop-opacity="1" stop-color="rgb(28.199768%, 79.199219%, 48.999023%)" offset="0.0625"/><stop stop-opacity="1" stop-color="rgb(28.199768%, 79.199219%, 48.999023%)" offset="0.09375"/><stop stop-opacity="1" stop-color="rgb(28.199768%, 79.199219%, 48.999023%)" offset="0.109375"/><stop stop-opacity="1" stop-color="rgb(28.125%, 79.171753%, 49.116516%)" offset="0.117188"/><stop stop-opacity="1" stop-color="rgb(27.919006%, 79.093933%, 49.443054%)" offset="0.121094"/><stop stop-opacity="1" stop-color="rgb(27.787781%, 79.043579%, 49.6521%)" offset="0.125"/><stop stop-opacity="1" stop-color="rgb(27.655029%, 78.993225%, 49.861145%)" offset="0.128906"/><stop stop-opacity="1" stop-color="rgb(27.523804%, 78.944397%, 50.07019%)" offset="0.132812"/><stop stop-opacity="1" stop-color="rgb(27.391052%, 78.894043%, 50.279236%)" offset="0.136719"/><stop stop-opacity="1" stop-color="rgb(27.259827%, 78.845215%, 50.489807%)" offset="0.140625"/><stop stop-opacity="1" stop-color="rgb(27.127075%, 78.794861%, 50.698853%)" offset="0.144531"/><stop stop-opacity="1" stop-color="rgb(26.99585%, 78.746033%, 50.907898%)" offset="0.148438"/><stop stop-opacity="1" stop-color="rgb(26.863098%, 78.695679%, 51.116943%)" offset="0.152344"/><stop stop-opacity="1" stop-color="rgb(26.731873%, 78.646851%, 51.325989%)" offset="0.15625"/><stop stop-opacity="1" stop-color="rgb(26.599121%, 78.596497%, 51.535034%)" offset="0.160156"/><stop stop-opacity="1" stop-color="rgb(26.467896%, 78.547668%, 51.74408%)" offset="0.164063"/><stop stop-opacity="1" stop-color="rgb(26.335144%, 78.497314%, 51.953125%)" offset="0.167969"/><stop stop-opacity="1" stop-color="rgb(26.203918%, 78.448486%, 52.163696%)" offset="0.171875"/><stop stop-opacity="1" stop-color="rgb(26.071167%, 78.398132%, 52.372742%)" offset="0.175781"/><stop stop-opacity="1" stop-color="rgb(25.939941%, 78.349304%, 52.581787%)" offset="0.179688"/><stop stop-opacity="1" stop-color="rgb(25.80719%, 78.29895%, 52.790833%)" offset="0.183594"/><stop stop-opacity="1" stop-color="rgb(25.675964%, 78.250122%, 52.999878%)" offset="0.1875"/><stop stop-opacity="1" stop-color="rgb(25.543213%, 78.199768%, 53.208923%)" offset="0.191406"/><stop stop-opacity="1" stop-color="rgb(25.410461%, 78.15094%, 53.417969%)" offset="0.195313"/><stop stop-opacity="1" stop-color="rgb(25.27771%, 78.100586%, 53.627014%)" offset="0.199219"/><stop stop-opacity="1" stop-color="rgb(25.146484%, 78.051758%, 53.837585%)" offset="0.203125"/><stop stop-opacity="1" stop-color="rgb(25.013733%, 78.001404%, 54.046631%)" offset="0.207031"/><stop stop-opacity="1" stop-color="rgb(24.882507%, 77.952576%, 54.255676%)" offset="0.210938"/><stop stop-opacity="1" stop-color="rgb(24.749756%, 77.902222%, 54.464722%)" offset="0.214844"/><stop stop-opacity="1" stop-color="rgb(24.61853%, 77.853394%, 54.673767%)" offset="0.21875"/><stop stop-opacity="1" stop-color="rgb(24.485779%, 77.80304%, 54.882812%)" offset="0.222656"/><stop stop-opacity="1" stop-color="rgb(24.354553%, 77.754211%, 55.091858%)" offset="0.226562"/><stop stop-opacity="1" stop-color="rgb(24.221802%, 77.703857%, 55.300903%)" offset="0.230469"/><stop stop-opacity="1" stop-color="rgb(24.090576%, 77.655029%, 55.511475%)" offset="0.234375"/><stop stop-opacity="1" stop-color="rgb(23.957825%, 77.604675%, 55.72052%)" offset="0.238281"/><stop stop-opacity="1" stop-color="rgb(23.826599%, 77.555847%, 55.929565%)" offset="0.242188"/><stop stop-opacity="1" stop-color="rgb(23.693848%, 77.505493%, 56.138611%)" offset="0.246094"/><stop stop-opacity="1" stop-color="rgb(23.562622%, 77.456665%, 56.347656%)" offset="0.25"/><stop stop-opacity="1" stop-color="rgb(23.429871%, 77.406311%, 56.556702%)" offset="0.253906"/><stop stop-opacity="1" stop-color="rgb(23.298645%, 77.357483%, 56.765747%)" offset="0.257812"/><stop stop-opacity="1" stop-color="rgb(23.165894%, 77.307129%, 56.974792%)" offset="0.261719"/><stop stop-opacity="1" stop-color="rgb(23.034668%, 77.258301%, 57.185364%)" offset="0.265625"/><stop stop-opacity="1" stop-color="rgb(22.901917%, 77.207947%, 57.394409%)" offset="0.269531"/><stop stop-opacity="1" stop-color="rgb(22.770691%, 77.159119%, 57.603455%)" offset="0.273438"/><stop stop-opacity="1" stop-color="rgb(22.637939%, 77.108765%, 57.8125%)" offset="0.277344"/><stop stop-opacity="1" stop-color="rgb(22.506714%, 77.059937%, 58.021545%)" offset="0.28125"/><stop stop-opacity="1" stop-color="rgb(22.373962%, 77.009583%, 58.230591%)" offset="0.285156"/><stop stop-opacity="1" stop-color="rgb(22.242737%, 76.960754%, 58.439636%)" offset="0.289063"/><stop stop-opacity="1" stop-color="rgb(22.109985%, 76.9104%, 58.648682%)" offset="0.292969"/><stop stop-opacity="1" stop-color="rgb(21.97876%, 76.861572%, 58.857727%)" offset="0.296875"/><stop stop-opacity="1" stop-color="rgb(21.846008%, 76.811218%, 59.066772%)" offset="0.300781"/><stop stop-opacity="1" stop-color="rgb(21.714783%, 76.76239%, 59.277344%)" offset="0.304688"/><stop stop-opacity="1" stop-color="rgb(21.582031%, 76.712036%, 59.486389%)" offset="0.308594"/><stop stop-opacity="1" stop-color="rgb(21.450806%, 76.663208%, 59.695435%)" offset="0.3125"/><stop stop-opacity="1" stop-color="rgb(21.318054%, 76.612854%, 59.90448%)" offset="0.316406"/><stop stop-opacity="1" stop-color="rgb(21.186829%, 76.564026%, 60.113525%)" offset="0.320312"/><stop stop-opacity="1" stop-color="rgb(21.054077%, 76.513672%, 60.322571%)" offset="0.324219"/><stop stop-opacity="1" stop-color="rgb(20.922852%, 76.464844%, 60.531616%)" offset="0.328125"/><stop stop-opacity="1" stop-color="rgb(20.7901%, 76.41449%, 60.740662%)" offset="0.332031"/><stop stop-opacity="1" stop-color="rgb(20.658875%, 76.365662%, 60.951233%)" offset="0.335938"/><stop stop-opacity="1" stop-color="rgb(20.526123%, 76.315308%, 61.160278%)" offset="0.339844"/><stop stop-opacity="1" stop-color="rgb(20.394897%, 76.266479%, 61.369324%)" offset="0.34375"/><stop stop-opacity="1" stop-color="rgb(20.262146%, 76.216125%, 61.578369%)" offset="0.347656"/><stop stop-opacity="1" stop-color="rgb(20.13092%, 76.167297%, 61.787415%)" offset="0.351563"/><stop stop-opacity="1" stop-color="rgb(19.998169%, 76.116943%, 61.99646%)" offset="0.355469"/><stop stop-opacity="1" stop-color="rgb(19.866943%, 76.068115%, 62.205505%)" offset="0.359375"/><stop stop-opacity="1" stop-color="rgb(19.734192%, 76.017761%, 62.414551%)" offset="0.363281"/><stop stop-opacity="1" stop-color="rgb(19.602966%, 75.968933%, 62.625122%)" offset="0.367188"/><stop stop-opacity="1" stop-color="rgb(19.470215%, 75.918579%, 62.834167%)" offset="0.371094"/><stop stop-opacity="1" stop-color="rgb(19.338989%, 75.868225%, 63.043213%)" offset="0.375"/><stop stop-opacity="1" stop-color="rgb(19.206238%, 75.817871%, 63.252258%)" offset="0.378906"/><stop stop-opacity="1" stop-color="rgb(19.075012%, 75.769043%, 63.461304%)" offset="0.382813"/><stop stop-opacity="1" stop-color="rgb(18.942261%, 75.718689%, 63.670349%)" offset="0.386719"/><stop stop-opacity="1" stop-color="rgb(18.811035%, 75.669861%, 63.879395%)" offset="0.390625"/><stop stop-opacity="1" stop-color="rgb(18.678284%, 75.619507%, 64.08844%)" offset="0.394531"/><stop stop-opacity="1" stop-color="rgb(18.547058%, 75.570679%, 64.299011%)" offset="0.398438"/><stop stop-opacity="1" stop-color="rgb(18.414307%, 75.520325%, 64.508057%)" offset="0.402344"/><stop stop-opacity="1" stop-color="rgb(18.283081%, 75.471497%, 64.717102%)" offset="0.40625"/><stop stop-opacity="1" stop-color="rgb(18.15033%, 75.421143%, 64.926147%)" offset="0.410156"/><stop stop-opacity="1" stop-color="rgb(18.019104%, 75.372314%, 65.135193%)" offset="0.414063"/><stop stop-opacity="1" stop-color="rgb(17.886353%, 75.32196%, 65.344238%)" offset="0.417969"/><stop stop-opacity="1" stop-color="rgb(17.755127%, 75.273132%, 65.553284%)" offset="0.421875"/><stop stop-opacity="1" stop-color="rgb(17.622375%, 75.222778%, 65.762329%)" offset="0.425781"/><stop stop-opacity="1" stop-color="rgb(17.49115%, 75.17395%, 65.9729%)" offset="0.429688"/><stop stop-opacity="1" stop-color="rgb(17.358398%, 75.123596%, 66.181946%)" offset="0.433594"/><stop stop-opacity="1" stop-color="rgb(17.227173%, 75.074768%, 66.390991%)" offset="0.4375"/><stop stop-opacity="1" stop-color="rgb(17.094421%, 75.024414%, 66.600037%)" offset="0.441406"/><stop stop-opacity="1" stop-color="rgb(16.963196%, 74.975586%, 66.809082%)" offset="0.445312"/><stop stop-opacity="1" stop-color="rgb(16.830444%, 74.925232%, 67.018127%)" offset="0.449219"/><stop stop-opacity="1" stop-color="rgb(16.699219%, 74.876404%, 67.227173%)" offset="0.453125"/><stop stop-opacity="1" stop-color="rgb(16.566467%, 74.82605%, 67.436218%)" offset="0.457031"/><stop stop-opacity="1" stop-color="rgb(16.435242%, 74.777222%, 67.64679%)" offset="0.460938"/><stop stop-opacity="1" stop-color="rgb(16.30249%, 74.726868%, 67.855835%)" offset="0.464844"/><stop stop-opacity="1" stop-color="rgb(16.171265%, 74.67804%, 68.06488%)" offset="0.46875"/><stop stop-opacity="1" stop-color="rgb(16.038513%, 74.627686%, 68.273926%)" offset="0.472656"/><stop stop-opacity="1" stop-color="rgb(15.907288%, 74.578857%, 68.482971%)" offset="0.476562"/><stop stop-opacity="1" stop-color="rgb(15.774536%, 74.528503%, 68.692017%)" offset="0.480469"/><stop stop-opacity="1" stop-color="rgb(15.643311%, 74.479675%, 68.901062%)" offset="0.484375"/><stop stop-opacity="1" stop-color="rgb(15.510559%, 74.429321%, 69.110107%)" offset="0.488281"/><stop stop-opacity="1" stop-color="rgb(15.379333%, 74.380493%, 69.319153%)" offset="0.492188"/><stop stop-opacity="1" stop-color="rgb(15.246582%, 74.330139%, 69.528198%)" offset="0.496094"/><stop stop-opacity="1" stop-color="rgb(15.115356%, 74.281311%, 69.73877%)" offset="0.5"/><stop stop-opacity="1" stop-color="rgb(14.982605%, 74.230957%, 69.947815%)" offset="0.503906"/><stop stop-opacity="1" stop-color="rgb(14.851379%, 74.182129%, 70.15686%)" offset="0.507812"/><stop stop-opacity="1" stop-color="rgb(14.718628%, 74.131775%, 70.365906%)" offset="0.511719"/><stop stop-opacity="1" stop-color="rgb(14.587402%, 74.082947%, 70.574951%)" offset="0.515625"/><stop stop-opacity="1" stop-color="rgb(14.454651%, 74.032593%, 70.783997%)" offset="0.519531"/><stop stop-opacity="1" stop-color="rgb(14.323425%, 73.983765%, 70.993042%)" offset="0.523438"/><stop stop-opacity="1" stop-color="rgb(14.190674%, 73.933411%, 71.202087%)" offset="0.527344"/><stop stop-opacity="1" stop-color="rgb(14.059448%, 73.884583%, 71.412659%)" offset="0.53125"/><stop stop-opacity="1" stop-color="rgb(13.926697%, 73.834229%, 71.621704%)" offset="0.535156"/><stop stop-opacity="1" stop-color="rgb(13.795471%, 73.7854%, 71.83075%)" offset="0.539062"/><stop stop-opacity="1" stop-color="rgb(13.66272%, 73.735046%, 72.039795%)" offset="0.542969"/><stop stop-opacity="1" stop-color="rgb(13.531494%, 73.686218%, 72.24884%)" offset="0.546875"/><stop stop-opacity="1" stop-color="rgb(13.398743%, 73.635864%, 72.457886%)" offset="0.550781"/><stop stop-opacity="1" stop-color="rgb(13.267517%, 73.587036%, 72.666931%)" offset="0.554688"/><stop stop-opacity="1" stop-color="rgb(13.134766%, 73.536682%, 72.875977%)" offset="0.558594"/><stop stop-opacity="1" stop-color="rgb(13.00354%, 73.487854%, 73.086548%)" offset="0.5625"/><stop stop-opacity="1" stop-color="rgb(12.870789%, 73.4375%, 73.295593%)" offset="0.566406"/><stop stop-opacity="1" stop-color="rgb(12.739563%, 73.388672%, 73.504639%)" offset="0.570312"/><stop stop-opacity="1" stop-color="rgb(12.606812%, 73.338318%, 73.713684%)" offset="0.574219"/><stop stop-opacity="1" stop-color="rgb(12.475586%, 73.28949%, 73.922729%)" offset="0.578125"/><stop stop-opacity="1" stop-color="rgb(12.342834%, 73.239136%, 74.131775%)" offset="0.582031"/><stop stop-opacity="1" stop-color="rgb(12.211609%, 73.190308%, 74.34082%)" offset="0.585937"/><stop stop-opacity="1" stop-color="rgb(12.078857%, 73.139954%, 74.549866%)" offset="0.589844"/><stop stop-opacity="1" stop-color="rgb(11.947632%, 73.091125%, 74.760437%)" offset="0.59375"/><stop stop-opacity="1" stop-color="rgb(11.81488%, 73.040771%, 74.969482%)" offset="0.597656"/><stop stop-opacity="1" stop-color="rgb(11.683655%, 72.991943%, 75.178528%)" offset="0.601562"/><stop stop-opacity="1" stop-color="rgb(11.550903%, 72.941589%, 75.387573%)" offset="0.605469"/><stop stop-opacity="1" stop-color="rgb(11.419678%, 72.892761%, 75.596619%)" offset="0.609375"/><stop stop-opacity="1" stop-color="rgb(11.286926%, 72.842407%, 75.805664%)" offset="0.613281"/><stop stop-opacity="1" stop-color="rgb(11.155701%, 72.792053%, 76.014709%)" offset="0.617188"/><stop stop-opacity="1" stop-color="rgb(11.022949%, 72.741699%, 76.223755%)" offset="0.621094"/><stop stop-opacity="1" stop-color="rgb(10.891724%, 72.692871%, 76.434326%)" offset="0.625"/><stop stop-opacity="1" stop-color="rgb(10.758972%, 72.642517%, 76.643372%)" offset="0.628906"/><stop stop-opacity="1" stop-color="rgb(10.627747%, 72.593689%, 76.852417%)" offset="0.632812"/><stop stop-opacity="1" stop-color="rgb(10.494995%, 72.543335%, 77.061462%)" offset="0.636719"/><stop stop-opacity="1" stop-color="rgb(10.36377%, 72.494507%, 77.270508%)" offset="0.640625"/><stop stop-opacity="1" stop-color="rgb(10.231018%, 72.444153%, 77.479553%)" offset="0.644531"/><stop stop-opacity="1" stop-color="rgb(10.099792%, 72.395325%, 77.688599%)" offset="0.648438"/><stop stop-opacity="1" stop-color="rgb(9.967041%, 72.344971%, 77.897644%)" offset="0.652344"/><stop stop-opacity="1" stop-color="rgb(9.835815%, 72.296143%, 78.106689%)" offset="0.65625"/><stop stop-opacity="1" stop-color="rgb(9.703064%, 72.245789%, 78.315735%)" offset="0.660156"/><stop stop-opacity="1" stop-color="rgb(9.571838%, 72.19696%, 78.526306%)" offset="0.664062"/><stop stop-opacity="1" stop-color="rgb(9.439087%, 72.146606%, 78.735352%)" offset="0.667969"/><stop stop-opacity="1" stop-color="rgb(9.307861%, 72.097778%, 78.944397%)" offset="0.671875"/><stop stop-opacity="1" stop-color="rgb(9.17511%, 72.047424%, 79.153442%)" offset="0.675781"/><stop stop-opacity="1" stop-color="rgb(9.043884%, 71.998596%, 79.362488%)" offset="0.679688"/><stop stop-opacity="1" stop-color="rgb(8.911133%, 71.948242%, 79.571533%)" offset="0.683594"/><stop stop-opacity="1" stop-color="rgb(8.779907%, 71.899414%, 79.780579%)" offset="0.6875"/><stop stop-opacity="1" stop-color="rgb(8.647156%, 71.84906%, 79.989624%)" offset="0.691406"/><stop stop-opacity="1" stop-color="rgb(8.51593%, 71.800232%, 80.200195%)" offset="0.695312"/><stop stop-opacity="1" stop-color="rgb(8.383179%, 71.749878%, 80.409241%)" offset="0.699219"/><stop stop-opacity="1" stop-color="rgb(8.251953%, 71.70105%, 80.618286%)" offset="0.703125"/><stop stop-opacity="1" stop-color="rgb(8.119202%, 71.650696%, 80.827332%)" offset="0.707031"/><stop stop-opacity="1" stop-color="rgb(7.987976%, 71.601868%, 81.036377%)" offset="0.710938"/><stop stop-opacity="1" stop-color="rgb(7.855225%, 71.551514%, 81.245422%)" offset="0.714844"/><stop stop-opacity="1" stop-color="rgb(7.723999%, 71.502686%, 81.454468%)" offset="0.71875"/><stop stop-opacity="1" stop-color="rgb(7.591248%, 71.452332%, 81.663513%)" offset="0.722656"/><stop stop-opacity="1" stop-color="rgb(7.460022%, 71.403503%, 81.874084%)" offset="0.726563"/><stop stop-opacity="1" stop-color="rgb(7.327271%, 71.353149%, 82.08313%)" offset="0.730469"/><stop stop-opacity="1" stop-color="rgb(7.196045%, 71.304321%, 82.292175%)" offset="0.734375"/><stop stop-opacity="1" stop-color="rgb(7.063293%, 71.253967%, 82.501221%)" offset="0.738281"/><stop stop-opacity="1" stop-color="rgb(6.932068%, 71.205139%, 82.710266%)" offset="0.742188"/><stop stop-opacity="1" stop-color="rgb(6.799316%, 71.154785%, 82.919312%)" offset="0.746094"/><stop stop-opacity="1" stop-color="rgb(6.668091%, 71.105957%, 83.128357%)" offset="0.75"/><stop stop-opacity="1" stop-color="rgb(6.535339%, 71.055603%, 83.337402%)" offset="0.753906"/><stop stop-opacity="1" stop-color="rgb(6.404114%, 71.006775%, 83.547974%)" offset="0.757813"/><stop stop-opacity="1" stop-color="rgb(6.271362%, 70.956421%, 83.757019%)" offset="0.761719"/><stop stop-opacity="1" stop-color="rgb(6.140137%, 70.907593%, 83.966064%)" offset="0.765625"/><stop stop-opacity="1" stop-color="rgb(6.007385%, 70.857239%, 84.17511%)" offset="0.769531"/><stop stop-opacity="1" stop-color="rgb(5.87616%, 70.808411%, 84.384155%)" offset="0.773438"/><stop stop-opacity="1" stop-color="rgb(5.743408%, 70.758057%, 84.593201%)" offset="0.777344"/><stop stop-opacity="1" stop-color="rgb(5.612183%, 70.709229%, 84.802246%)" offset="0.78125"/><stop stop-opacity="1" stop-color="rgb(5.479431%, 70.658875%, 85.011292%)" offset="0.785156"/><stop stop-opacity="1" stop-color="rgb(5.348206%, 70.610046%, 85.221863%)" offset="0.789063"/><stop stop-opacity="1" stop-color="rgb(5.215454%, 70.559692%, 85.430908%)" offset="0.792969"/><stop stop-opacity="1" stop-color="rgb(5.084229%, 70.510864%, 85.639954%)" offset="0.796875"/><stop stop-opacity="1" stop-color="rgb(4.951477%, 70.46051%, 85.848999%)" offset="0.800781"/><stop stop-opacity="1" stop-color="rgb(4.820251%, 70.411682%, 86.058044%)" offset="0.804688"/><stop stop-opacity="1" stop-color="rgb(4.6875%, 70.361328%, 86.26709%)" offset="0.808594"/><stop stop-opacity="1" stop-color="rgb(4.556274%, 70.3125%, 86.476135%)" offset="0.8125"/><stop stop-opacity="1" stop-color="rgb(4.423523%, 70.262146%, 86.685181%)" offset="0.816406"/><stop stop-opacity="1" stop-color="rgb(4.292297%, 70.213318%, 86.895752%)" offset="0.820312"/><stop stop-opacity="1" stop-color="rgb(4.159546%, 70.162964%, 87.104797%)" offset="0.824219"/><stop stop-opacity="1" stop-color="rgb(4.02832%, 70.114136%, 87.313843%)" offset="0.828125"/><stop stop-opacity="1" stop-color="rgb(3.895569%, 70.063782%, 87.522888%)" offset="0.832031"/><stop stop-opacity="1" stop-color="rgb(3.764343%, 70.014954%, 87.731934%)" offset="0.835938"/><stop stop-opacity="1" stop-color="rgb(3.631592%, 69.9646%, 87.940979%)" offset="0.839844"/><stop stop-opacity="1" stop-color="rgb(3.500366%, 69.915771%, 88.150024%)" offset="0.84375"/><stop stop-opacity="1" stop-color="rgb(3.367615%, 69.865417%, 88.35907%)" offset="0.847656"/><stop stop-opacity="1" stop-color="rgb(3.236389%, 69.816589%, 88.568115%)" offset="0.851563"/><stop stop-opacity="1" stop-color="rgb(3.103638%, 69.766235%, 88.777161%)" offset="0.855469"/><stop stop-opacity="1" stop-color="rgb(2.972412%, 69.715881%, 88.987732%)" offset="0.859375"/><stop stop-opacity="1" stop-color="rgb(2.839661%, 69.665527%, 89.196777%)" offset="0.863281"/><stop stop-opacity="1" stop-color="rgb(2.708435%, 69.616699%, 89.405823%)" offset="0.867188"/><stop stop-opacity="1" stop-color="rgb(2.575684%, 69.566345%, 89.614868%)" offset="0.871094"/><stop stop-opacity="1" stop-color="rgb(2.444458%, 69.517517%, 89.823914%)" offset="0.875"/><stop stop-opacity="1" stop-color="rgb(2.311707%, 69.467163%, 90.032959%)" offset="0.878906"/><stop stop-opacity="1" stop-color="rgb(2.180481%, 69.418335%, 90.242004%)" offset="0.882812"/><stop stop-opacity="1" stop-color="rgb(2.047729%, 69.367981%, 90.45105%)" offset="0.886719"/><stop stop-opacity="1" stop-color="rgb(1.916504%, 69.319153%, 90.661621%)" offset="0.890625"/><stop stop-opacity="1" stop-color="rgb(1.783752%, 69.268799%, 90.870667%)" offset="0.894531"/><stop stop-opacity="1" stop-color="rgb(1.652527%, 69.219971%, 91.079712%)" offset="0.898438"/><stop stop-opacity="1" stop-color="rgb(1.519775%, 69.169617%, 91.288757%)" offset="0.902344"/><stop stop-opacity="1" stop-color="rgb(1.38855%, 69.120789%, 91.497803%)" offset="0.90625"/><stop stop-opacity="1" stop-color="rgb(1.255798%, 69.070435%, 91.706848%)" offset="0.910156"/><stop stop-opacity="1" stop-color="rgb(1.124573%, 69.021606%, 91.915894%)" offset="0.914062"/><stop stop-opacity="1" stop-color="rgb(0.991821%, 68.971252%, 92.124939%)" offset="0.917969"/><stop stop-opacity="1" stop-color="rgb(0.860596%, 68.922424%, 92.33551%)" offset="0.921875"/><stop stop-opacity="1" stop-color="rgb(0.727844%, 68.87207%, 92.544556%)" offset="0.925781"/><stop stop-opacity="1" stop-color="rgb(0.596619%, 68.823242%, 92.753601%)" offset="0.929688"/><stop stop-opacity="1" stop-color="rgb(0.463867%, 68.772888%, 92.962646%)" offset="0.933594"/><stop stop-opacity="1" stop-color="rgb(0.332642%, 68.72406%, 93.171692%)" offset="0.9375"/><stop stop-opacity="1" stop-color="rgb(0.19989%, 68.673706%, 93.380737%)" offset="0.941406"/><stop stop-opacity="1" stop-color="rgb(0.0686646%, 68.624878%, 93.589783%)" offset="0.945313"/><stop stop-opacity="1" stop-color="rgb(0.0335693%, 68.611145%, 93.644714%)" offset="0.953125"/><stop stop-opacity="1" stop-color="rgb(0%, 68.598938%, 93.699646%)" offset="0.96875"/><stop stop-opacity="1" stop-color="rgb(0%, 68.598938%, 93.699646%)" offset="0.992733"/><stop stop-opacity="1" stop-color="rgb(0%, 68.598938%, 93.699646%)" offset="1"/></linearGradient></defs><g clip-path="url(#e8548ae01c)"><g clip-path="url(#a44bc1a1cd)"><path fill="url(#9eae05a095)" d="M 0 35.554688 L 0 339.257812 L 375 339.257812 L 375 35.554688 Z M 0 35.554688 " fill-rule="nonzero"/></g></g></svg>