<svg xmlns="http://www.w3.org/2000/svg" xmlns:xlink="http://www.w3.org/1999/xlink" width="490" zoomAndPan="magnify" viewBox="0 0 367.5 131.249995" height="175" preserveAspectRatio="xMidYMid meet" version="1.0"><defs><g/><clipPath id="308a37cc06"><path d="M 38.261719 37.503906 L 106.964844 37.503906 L 106.964844 92.761719 L 38.261719 92.761719 Z M 38.261719 37.503906 " clip-rule="nonzero"/></clipPath><clipPath id="fab3e4736b"><path d="M 98.667969 67.933594 C 98.667969 65.660156 100.523438 63.832031 102.820312 63.832031 C 105.117188 63.832031 106.964844 65.671875 106.964844 67.933594 C 106.964844 70.207031 105.105469 72.035156 102.820312 72.035156 C 102.105469 72.035156 101.421875 71.855469 100.835938 71.539062 L 97.84375 75.894531 C 98.550781 76.507812 98.996094 77.40625 98.996094 78.421875 C 98.996094 80.269531 97.480469 81.769531 95.613281 81.769531 C 93.746094 81.769531 92.226562 80.269531 92.226562 78.421875 C 92.226562 77.152344 92.945312 76.042969 94 75.480469 L 93.15625 73.367188 C 92.964844 73.410156 92.761719 73.429688 92.558594 73.429688 C 91.074219 73.429688 89.878906 72.238281 89.878906 70.777344 C 89.878906 69.308594 91.085938 68.113281 92.558594 68.113281 C 92.804688 68.113281 93.050781 68.144531 93.273438 68.210938 L 95.015625 64.382812 C 94.589844 64.054688 94.308594 63.546875 94.308594 62.976562 C 94.308594 61.992188 95.109375 61.199219 96.105469 61.199219 C 96.542969 61.199219 96.9375 61.347656 97.246094 61.613281 L 100.363281 59.265625 C 100.140625 58.863281 100.011719 58.390625 100.011719 57.890625 C 100.011719 57.066406 100.375 56.316406 100.941406 55.800781 L 99.019531 53 C 98.65625 53.167969 98.25 53.261719 97.824219 53.261719 C 96.820312 53.261719 95.945312 52.734375 95.464844 51.953125 L 92.539062 53.167969 C 92.539062 53.210938 92.546875 53.25 92.546875 53.285156 C 92.546875 53.949219 92.058594 54.5 91.417969 54.605469 L 91.023438 57.417969 C 92.003906 57.722656 92.707031 58.632812 92.707031 59.699219 C 92.707031 61.019531 91.621094 62.097656 90.285156 62.097656 C 89.386719 62.097656 88.609375 61.613281 88.179688 60.894531 L 84.710938 62.164062 C 84.710938 62.171875 84.710938 62.183594 84.710938 62.207031 C 84.710938 62.914062 84.132812 63.484375 83.417969 63.484375 C 83.34375 63.484375 83.257812 63.472656 83.183594 63.464844 L 81.421875 66.632812 C 81.636719 66.824219 81.816406 67.058594 81.933594 67.320312 L 86.804688 66.304688 C 86.878906 65.671875 87.421875 65.175781 88.085938 65.175781 C 88.800781 65.175781 89.378906 65.746094 89.378906 66.453125 C 89.378906 67.109375 88.875 67.648438 88.234375 67.722656 L 86.804688 74.488281 C 88.320312 74.972656 89.410156 76.378906 89.410156 78.039062 C 89.410156 80.101562 87.722656 81.78125 85.628906 81.78125 C 85.566406 81.78125 85.5 81.78125 85.4375 81.78125 L 84.871094 85.25 C 85.382812 85.480469 85.746094 86 85.746094 86.601562 C 85.746094 87.277344 85.296875 87.839844 84.679688 88.027344 L 84.730469 90.652344 C 85.128906 90.796875 85.414062 91.191406 85.414062 91.632812 C 85.414062 92.214844 84.933594 92.691406 84.347656 92.691406 C 83.761719 92.691406 83.28125 92.214844 83.28125 91.632812 C 83.28125 91.527344 83.300781 91.421875 83.332031 91.316406 L 81.464844 89.773438 C 81.230469 89.933594 80.941406 90.027344 80.621094 90.027344 C 79.800781 90.027344 79.136719 89.371094 79.136719 88.558594 C 79.136719 87.976562 79.480469 87.480469 79.96875 87.238281 L 79.648438 85.480469 C 79.628906 85.480469 79.597656 85.480469 79.574219 85.480469 C 78.082031 85.480469 76.863281 84.277344 76.863281 82.796875 C 76.863281 81.316406 78.082031 80.113281 79.574219 80.113281 C 80.289062 80.113281 80.929688 80.386719 81.410156 80.832031 L 82.449219 80.015625 C 82.074219 79.433594 81.859375 78.757812 81.859375 78.019531 C 81.859375 77.3125 82.0625 76.644531 82.414062 76.074219 L 79.765625 74.066406 C 79.5625 74.203125 79.320312 74.289062 79.050781 74.289062 C 78.761719 74.289062 78.496094 74.191406 78.28125 74.035156 L 76.605469 75.1875 C 76.90625 75.726562 77.066406 76.339844 77.066406 76.992188 C 77.066406 79.085938 75.355469 80.777344 73.242188 80.777344 C 71.449219 80.777344 69.953125 79.5625 69.539062 77.914062 L 66.675781 78.304688 C 66.644531 79.648438 65.535156 80.726562 64.167969 80.726562 C 62.777344 80.726562 61.65625 79.613281 61.65625 78.242188 C 61.65625 76.867188 62.777344 75.757812 64.167969 75.757812 C 64.421875 75.757812 64.667969 75.800781 64.894531 75.863281 L 67.945312 69.742188 C 67.167969 69.222656 66.632812 68.378906 66.539062 67.40625 L 64.015625 67.320312 C 63.835938 67.785156 63.386719 68.113281 62.851562 68.113281 C 62.714844 68.113281 62.585938 68.09375 62.457031 68.050781 L 60.441406 70.640625 C 61.070312 71.253906 61.453125 72.097656 61.453125 73.039062 C 61.453125 74.902344 59.929688 76.410156 58.046875 76.410156 C 56.46875 76.410156 55.132812 75.332031 54.75 73.886719 L 52.410156 74.191406 C 52.367188 75.511719 51.269531 76.582031 49.921875 76.582031 C 48.546875 76.582031 47.433594 75.480469 47.433594 74.117188 C 47.433594 72.828125 48.4375 71.773438 49.71875 71.664062 L 49.945312 68.960938 C 49.496094 68.769531 49.1875 68.324219 49.1875 67.808594 C 49.1875 67.121094 49.75 66.550781 50.457031 66.550781 C 50.617188 66.550781 50.753906 66.582031 50.894531 66.625 L 55.667969 60.808594 C 55.550781 60.621094 55.476562 60.386719 55.476562 60.144531 C 55.476562 59.804688 55.613281 59.5 55.828125 59.277344 L 55.089844 57.859375 C 54.71875 58 54.320312 58.070312 53.90625 58.070312 C 53.308594 58.070312 52.742188 57.914062 52.261719 57.648438 L 49.390625 61.59375 C 49.6875 61.917969 49.871094 62.363281 49.871094 62.851562 C 49.871094 63.886719 49.015625 64.730469 47.96875 64.730469 C 47.753906 64.730469 47.542969 64.699219 47.347656 64.625 L 44.347656 69.46875 C 45.03125 70.015625 45.460938 70.851562 45.460938 71.792969 C 45.460938 73.453125 44.101562 74.792969 42.425781 74.792969 C 40.75 74.792969 39.394531 73.453125 39.394531 71.792969 C 39.394531 70.441406 40.300781 69.296875 41.539062 68.917969 L 41.304688 67.492188 C 41.285156 67.492188 41.273438 67.492188 41.253906 67.492188 C 39.691406 67.492188 38.433594 66.242188 38.433594 64.699219 C 38.433594 63.167969 39.683594 61.917969 41.230469 61.910156 L 41.402344 60.671875 C 39.597656 60.238281 38.25 58.621094 38.25 56.699219 C 38.25 54.445312 40.097656 52.617188 42.375 52.617188 C 44.261719 52.617188 45.863281 53.875 46.34375 55.597656 L 50.5 54.871094 C 50.5 54.804688 50.5 54.753906 50.5 54.691406 C 50.5 54.117188 50.648438 53.578125 50.894531 53.105469 L 47.828125 50.980469 C 47.488281 51.296875 47.027344 51.488281 46.527344 51.488281 C 45.46875 51.488281 44.605469 50.628906 44.605469 49.582031 C 44.605469 48.539062 45.46875 47.679688 46.527344 47.679688 C 47.585938 47.679688 48.449219 48.539062 48.449219 49.582031 C 48.449219 49.847656 48.394531 50.089844 48.300781 50.3125 L 51.363281 52.4375 C 51.800781 51.953125 52.390625 51.59375 53.039062 51.421875 L 53.03125 48.347656 C 51.875 48.15625 51 47.175781 51 45.980469 C 51 44.65625 52.089844 43.578125 53.425781 43.578125 C 54.214844 43.578125 54.910156 43.949219 55.347656 44.519531 L 59.222656 42.511719 C 59.125 42.226562 59.074219 41.929688 59.074219 41.613281 C 59.074219 40.101562 60.3125 38.867188 61.851562 38.867188 C 63.375 38.867188 64.625 40.089844 64.625 41.613281 C 64.625 42.617188 64.082031 43.503906 63.257812 43.980469 L 64.539062 47.109375 C 64.742188 47.066406 64.945312 47.035156 65.171875 47.035156 C 65.671875 47.035156 66.152344 47.175781 66.558594 47.417969 L 69.464844 43.929688 C 68.800781 43.253906 68.382812 42.332031 68.382812 41.316406 C 68.382812 39.257812 70.070312 37.574219 72.164062 37.574219 C 74.246094 37.574219 75.945312 39.246094 75.945312 41.316406 C 75.945312 42.238281 75.601562 43.082031 75.046875 43.726562 L 77.929688 46.730469 C 78.101562 46.644531 78.292969 46.601562 78.496094 46.601562 C 78.550781 46.601562 78.601562 46.601562 78.644531 46.613281 L 80.183594 43.324219 C 79.554688 42.894531 79.136719 42.175781 79.136719 41.347656 C 79.136719 40.027344 80.226562 38.949219 81.5625 38.949219 C 82.894531 38.949219 83.984375 40.027344 83.984375 41.347656 C 83.984375 41.644531 83.929688 41.929688 83.835938 42.183594 L 86.28125 43.589844 C 86.890625 42.796875 87.859375 42.28125 88.941406 42.28125 C 90.785156 42.28125 92.28125 43.757812 92.28125 45.589844 C 92.28125 46.03125 92.195312 46.453125 92.035156 46.835938 L 95.644531 48.832031 C 96.148438 48.1875 96.9375 47.765625 97.835938 47.765625 C 99.359375 47.765625 100.601562 48.992188 100.601562 50.503906 C 100.601562 51.296875 100.257812 52.015625 99.714844 52.511719 L 101.636719 55.3125 C 102.007812 55.132812 102.4375 55.027344 102.886719 55.027344 C 104.464844 55.027344 105.746094 56.296875 105.746094 57.859375 C 105.746094 59.425781 104.464844 60.695312 102.886719 60.695312 C 102.105469 60.695312 101.390625 60.386719 100.878906 59.878906 L 97.757812 62.226562 C 97.855469 62.449219 97.910156 62.691406 97.910156 62.945312 C 97.910156 63.929688 97.109375 64.722656 96.113281 64.722656 C 95.996094 64.722656 95.878906 64.710938 95.773438 64.6875 L 94.03125 68.515625 C 94.769531 68.992188 95.261719 69.816406 95.261719 70.746094 C 95.261719 71.71875 94.726562 72.574219 93.9375 73.039062 L 94.78125 75.152344 C 95.058594 75.082031 95.335938 75.046875 95.632812 75.046875 C 96.191406 75.046875 96.722656 75.1875 97.183594 75.417969 L 100.171875 71.0625 C 99.265625 70.3125 98.6875 69.183594 98.6875 67.914062 Z M 53.863281 51.339844 L 53.851562 48.359375 C 54.996094 48.167969 55.859375 47.175781 55.859375 45.988281 C 55.859375 45.734375 55.816406 45.484375 55.742188 45.25 L 59.617188 43.242188 C 60.121094 43.929688 60.941406 44.371094 61.859375 44.371094 C 62.085938 44.371094 62.296875 44.351562 62.511719 44.296875 L 63.792969 47.425781 C 63.003906 47.894531 62.46875 48.75 62.46875 49.730469 C 62.46875 50.914062 63.25 51.921875 64.328125 52.28125 L 63.75 55.660156 C 63.675781 55.660156 63.601562 55.652344 63.515625 55.652344 C 61.402344 55.652344 59.691406 57.34375 59.691406 59.4375 C 59.691406 61.527344 61.402344 63.21875 63.515625 63.21875 C 65.523438 63.21875 67.167969 61.6875 67.328125 59.742188 L 69.539062 59.679688 C 69.71875 60.15625 70.179688 60.492188 70.722656 60.492188 C 71.109375 60.492188 71.449219 60.324219 71.683594 60.046875 L 74.578125 61.191406 C 74.546875 61.359375 74.523438 61.527344 74.523438 61.699219 C 74.523438 63.03125 75.625 64.117188 76.96875 64.117188 C 78.316406 64.117188 79.414062 63.03125 79.414062 61.699219 C 79.414062 61.117188 79.203125 60.578125 78.859375 60.15625 L 81.925781 56.644531 C 82.457031 56.992188 83.097656 57.207031 83.78125 57.207031 C 85.628906 57.207031 87.125 55.726562 87.125 53.898438 C 87.125 52.066406 85.628906 50.589844 83.78125 50.589844 C 83.089844 50.589844 82.4375 50.800781 81.902344 51.160156 L 79.617188 48.570312 C 79.734375 48.378906 79.800781 48.144531 79.800781 47.902344 C 79.800781 47.535156 79.640625 47.195312 79.382812 46.953125 L 80.910156 43.664062 C 81.113281 43.71875 81.328125 43.75 81.539062 43.75 C 82.289062 43.75 82.960938 43.410156 83.398438 42.882812 L 85.84375 44.289062 C 85.671875 44.691406 85.574219 45.125 85.574219 45.589844 C 85.574219 47.417969 87.070312 48.898438 88.917969 48.898438 C 89.101562 48.898438 89.28125 48.886719 89.453125 48.855469 L 90.414062 52.140625 C 90.050781 52.386719 89.816406 52.785156 89.816406 53.25 C 89.816406 53.792969 90.136719 54.246094 90.582031 54.46875 L 90.1875 57.28125 C 88.886719 57.320312 87.839844 58.378906 87.839844 59.679688 C 87.839844 59.828125 87.851562 59.976562 87.882812 60.121094 L 84.414062 61.390625 C 84.175781 61.09375 83.8125 60.914062 83.410156 60.914062 C 82.691406 60.914062 82.117188 61.488281 82.117188 62.195312 C 82.117188 62.53125 82.246094 62.828125 82.457031 63.0625 L 80.695312 66.234375 C 80.515625 66.179688 80.324219 66.148438 80.128906 66.148438 C 79.042969 66.148438 78.164062 67.015625 78.164062 68.09375 C 78.164062 69.171875 79.042969 70.039062 80.128906 70.039062 C 81.21875 70.039062 82.09375 69.171875 82.09375 68.09375 L 86.964844 67.066406 C 87.082031 67.257812 87.230469 67.417969 87.421875 67.523438 L 85.992188 74.289062 C 85.875 74.277344 85.746094 74.265625 85.617188 74.265625 C 84.550781 74.265625 83.578125 74.710938 82.886719 75.417969 L 80.238281 73.410156 C 80.28125 73.28125 80.3125 73.136719 80.3125 72.996094 C 80.3125 72.289062 79.734375 71.71875 79.019531 71.71875 C 78.304688 71.71875 77.726562 72.289062 77.726562 72.996094 C 77.726562 73.125 77.75 73.242188 77.78125 73.355469 L 76.105469 74.507812 C 75.398438 73.707031 74.363281 73.199219 73.210938 73.199219 C 71.097656 73.199219 69.386719 74.890625 69.386719 76.984375 C 69.386719 77.023438 69.386719 77.066406 69.386719 77.097656 L 66.527344 77.492188 C 66.367188 76.972656 66.023438 76.519531 65.585938 76.210938 L 68.640625 70.089844 C 68.960938 70.195312 69.3125 70.261719 69.675781 70.261719 C 71.4375 70.261719 72.871094 68.84375 72.871094 67.097656 C 72.871094 65.355469 71.4375 63.949219 69.675781 63.949219 C 68.097656 63.949219 66.78125 65.089844 66.527344 66.59375 L 64.007812 66.507812 C 63.847656 66 63.375 65.640625 62.820312 65.640625 C 62.136719 65.640625 61.570312 66.191406 61.570312 66.878906 C 61.570312 67.132812 61.648438 67.351562 61.773438 67.554688 L 59.757812 70.144531 C 59.246094 69.835938 58.644531 69.667969 58.015625 69.667969 C 56.136719 69.667969 54.609375 71.179688 54.609375 73.039062 C 54.609375 73.050781 54.609375 73.070312 54.609375 73.082031 L 52.273438 73.390625 C 52.015625 72.574219 51.34375 71.929688 50.5 71.71875 L 50.722656 69.011719 C 51.277344 68.875 51.683594 68.378906 51.683594 67.796875 C 51.683594 67.554688 51.609375 67.320312 51.492188 67.132812 L 56.265625 61.316406 C 56.402344 61.371094 56.554688 61.390625 56.703125 61.390625 C 57.40625 61.390625 57.972656 60.832031 57.972656 60.132812 C 57.972656 59.445312 57.40625 58.875 56.703125 58.875 C 56.640625 58.875 56.574219 58.875 56.523438 58.886719 L 55.785156 57.46875 C 56.683594 56.867188 57.28125 55.839844 57.28125 54.679688 C 57.28125 52.820312 55.753906 51.308594 53.875 51.308594 C 53.851562 51.308594 53.839844 51.308594 53.832031 51.308594 Z M 64.550781 55.800781 L 65.128906 52.417969 C 65.136719 52.417969 65.160156 52.417969 65.171875 52.417969 C 66.152344 52.417969 67.007812 51.898438 67.488281 51.128906 L 71.4375 52.746094 C 71.386719 52.964844 71.351562 53.1875 71.351562 53.429688 C 71.351562 54.976562 72.613281 56.222656 74.171875 56.222656 C 75.730469 56.222656 76.992188 54.976562 76.992188 53.429688 C 76.992188 52.679688 76.691406 52.003906 76.210938 51.496094 L 78.058594 49.140625 C 78.199219 49.191406 78.347656 49.214844 78.496094 49.214844 C 78.679688 49.214844 78.847656 49.183594 79.007812 49.109375 L 81.292969 51.699219 C 80.761719 52.28125 80.441406 53.0625 80.441406 53.90625 C 80.441406 54.761719 80.769531 55.535156 81.304688 56.128906 L 78.242188 59.636719 C 77.867188 59.414062 77.441406 59.289062 76.96875 59.289062 C 76.082031 59.289062 75.316406 59.753906 74.875 60.449219 L 71.984375 59.308594 C 71.984375 59.289062 71.984375 59.265625 71.984375 59.246094 C 71.984375 58.546875 71.417969 57.988281 70.710938 57.988281 C 70.148438 57.988281 69.664062 58.359375 69.503906 58.875 L 67.296875 58.9375 C 67.09375 57.425781 65.992188 56.210938 64.539062 55.800781 Z M 74.449219 44.296875 L 77.332031 47.300781 C 77.238281 47.480469 77.171875 47.691406 77.171875 47.914062 C 77.171875 48.179688 77.257812 48.433594 77.398438 48.644531 L 75.550781 51 C 75.144531 50.769531 74.664062 50.640625 74.160156 50.640625 C 73.136719 50.640625 72.238281 51.191406 71.75 51.992188 L 67.796875 50.367188 C 67.851562 50.164062 67.871094 49.941406 67.871094 49.722656 C 67.871094 49.035156 67.605469 48.410156 67.179688 47.933594 L 70.082031 44.445312 C 70.679688 44.835938 71.386719 45.058594 72.152344 45.058594 C 73.019531 45.058594 73.808594 44.773438 74.449219 44.289062 Z M 91.203125 51.941406 L 90.242188 48.644531 C 90.796875 48.410156 91.265625 48.03125 91.621094 47.554688 L 95.230469 49.550781 C 95.109375 49.847656 95.046875 50.175781 95.046875 50.515625 C 95.046875 50.746094 95.078125 50.96875 95.132812 51.191406 L 92.207031 52.40625 C 91.960938 52.121094 91.609375 51.941406 91.203125 51.929688 Z M 84.648438 81.632812 L 84.082031 85.101562 C 83.332031 85.1875 82.746094 85.820312 82.746094 86.582031 C 82.746094 87.277344 83.226562 87.859375 83.878906 88.027344 L 83.929688 90.652344 C 83.910156 90.660156 83.878906 90.671875 83.855469 90.683594 L 81.988281 89.140625 C 82.074219 88.960938 82.117188 88.757812 82.117188 88.546875 C 82.117188 87.785156 81.527344 87.164062 80.78125 87.089844 L 80.460938 85.332031 C 81.527344 84.972656 82.296875 83.96875 82.296875 82.796875 C 82.296875 82.308594 82.167969 81.855469 81.933594 81.464844 L 82.96875 80.652344 C 83.429688 81.105469 84.007812 81.453125 84.65625 81.625 Z M 51.597656 57.183594 L 48.726562 61.128906 C 48.492188 61.03125 48.234375 60.96875 47.96875 60.96875 C 46.921875 60.96875 46.066406 61.8125 46.066406 62.851562 C 46.066406 63.378906 46.292969 63.863281 46.65625 64.203125 L 43.65625 69.042969 C 43.28125 68.875 42.863281 68.789062 42.425781 68.789062 C 42.394531 68.789062 42.375 68.789062 42.339844 68.789062 L 42.105469 67.363281 C 43.25 67.003906 44.070312 65.945312 44.070312 64.710938 C 44.070312 63.441406 43.21875 62.375 42.042969 62.035156 L 42.214844 60.800781 C 42.265625 60.800781 42.320312 60.800781 42.382812 60.800781 C 44.660156 60.800781 46.503906 58.96875 46.503906 56.71875 C 46.503906 56.613281 46.503906 56.519531 46.496094 56.414062 L 50.648438 55.695312 C 50.832031 56.273438 51.160156 56.792969 51.597656 57.195312 Z M 54.71875 65.40625 C 54.71875 64.085938 55.804688 63.007812 57.140625 63.007812 C 58.476562 63.007812 59.566406 64.085938 59.566406 65.40625 C 59.566406 66.730469 58.476562 67.808594 57.140625 67.808594 C 55.804688 67.808594 54.71875 66.730469 54.71875 65.40625 Z M 57.3125 49.308594 C 57.3125 48.613281 57.878906 48.050781 58.582031 48.050781 C 59.289062 48.050781 59.851562 48.613281 59.851562 49.308594 C 59.851562 49.996094 59.289062 50.566406 58.582031 50.566406 C 57.886719 50.566406 57.3125 50.007812 57.3125 49.308594 Z M 57.3125 49.308594 " clip-rule="evenodd"/></clipPath></defs><g clip-path="url(#308a37cc06)"><g clip-path="url(#fab3e4736b)"><path fill="#ffffff" d="M 38.261719 37.574219 L 38.261719 92.691406 L 106.964844 92.691406 L 106.964844 37.574219 Z M 38.261719 37.574219 " fill-opacity="1" fill-rule="nonzero"/></g></g><g fill="#ffffff" fill-opacity="1"><g transform="translate(112.718261, 75.397542)"><g><path d="M 11.703125 0 L 6.578125 -16.71875 L 6.4375 -16.71875 C 6.625 -13.320312 6.71875 -11.054688 6.71875 -9.921875 L 6.71875 0 L 2.6875 0 L 2.6875 -21.3125 L 8.828125 -21.3125 L 13.875 -5.015625 L 13.96875 -5.015625 L 19.3125 -21.3125 L 25.46875 -21.3125 L 25.46875 0 L 21.25 0 L 21.25 -10.09375 C 21.25 -10.5625 21.253906 -11.109375 21.265625 -11.734375 C 21.285156 -12.359375 21.351562 -14.007812 21.46875 -16.6875 L 21.34375 -16.6875 L 15.84375 0 Z M 11.703125 0 "/></g></g></g><g fill="#ffffff" fill-opacity="1"><g transform="translate(143.589121, 75.397542)"><g><path d="M 15.734375 0 L 14.1875 -5.078125 L 6.421875 -5.078125 L 4.875 0 L 0 0 L 7.515625 -21.40625 L 13.046875 -21.40625 L 20.59375 0 Z M 13.109375 -8.859375 C 11.679688 -13.460938 10.875 -16.0625 10.6875 -16.65625 C 10.507812 -17.257812 10.382812 -17.738281 10.3125 -18.09375 C 9.988281 -16.851562 9.066406 -13.773438 7.546875 -8.859375 Z M 13.109375 -8.859375 "/></g></g></g><g fill="#ffffff" fill-opacity="1"><g transform="translate(166.907889, 75.397542)"><g><path d="M 21.59375 0 L 15.84375 0 L 6.578125 -16.125 L 6.4375 -16.125 C 6.625 -13.28125 6.71875 -11.25 6.71875 -10.03125 L 6.71875 0 L 2.6875 0 L 2.6875 -21.3125 L 8.390625 -21.3125 L 17.640625 -5.34375 L 17.75 -5.34375 C 17.601562 -8.113281 17.53125 -10.070312 17.53125 -11.21875 L 17.53125 -21.3125 L 21.59375 -21.3125 Z M 21.59375 0 "/></g></g></g><g fill="#ffffff" fill-opacity="1"><g transform="translate(193.900648, 75.397542)"><g><path d="M 2.6875 0 L 2.6875 -21.3125 L 7.203125 -21.3125 L 7.203125 0 Z M 2.6875 0 "/></g></g></g><g fill="#ffffff" fill-opacity="1"><g transform="translate(206.503607, 75.397542)"><g><path d="M 7.125 0 L 2.6875 0 L 2.6875 -21.3125 L 14.90625 -21.3125 L 14.90625 -17.609375 L 7.125 -17.609375 L 7.125 -12.109375 L 14.359375 -12.109375 L 14.359375 -8.421875 L 7.125 -8.421875 Z M 7.125 0 "/></g></g></g><g fill="#ffffff" fill-opacity="1"><g transform="translate(225.608939, 75.397542)"><g><path d="M 14.953125 0 L 2.6875 0 L 2.6875 -21.3125 L 14.953125 -21.3125 L 14.953125 -17.609375 L 7.203125 -17.609375 L 7.203125 -12.9375 L 14.421875 -12.9375 L 14.421875 -9.234375 L 7.203125 -9.234375 L 7.203125 -3.734375 L 14.953125 -3.734375 Z M 14.953125 0 "/></g></g></g><g fill="#ffffff" fill-opacity="1"><g transform="translate(245.049613, 75.397542)"><g><path d="M 15.265625 -5.921875 C 15.265625 -3.992188 14.570312 -2.472656 13.1875 -1.359375 C 11.800781 -0.253906 9.875 0.296875 7.40625 0.296875 C 5.132812 0.296875 3.125 -0.128906 1.375 -0.984375 L 1.375 -5.1875 C 2.8125 -4.550781 4.023438 -4.097656 5.015625 -3.828125 C 6.015625 -3.566406 6.925781 -3.4375 7.75 -3.4375 C 8.75 -3.4375 9.507812 -3.625 10.03125 -4 C 10.5625 -4.382812 10.828125 -4.953125 10.828125 -5.703125 C 10.828125 -6.117188 10.710938 -6.488281 10.484375 -6.8125 C 10.253906 -7.132812 9.910156 -7.445312 9.453125 -7.75 C 9.003906 -8.050781 8.082031 -8.535156 6.6875 -9.203125 C 5.382812 -9.816406 4.40625 -10.40625 3.75 -10.96875 C 3.101562 -11.53125 2.585938 -12.1875 2.203125 -12.9375 C 1.816406 -13.6875 1.625 -14.5625 1.625 -15.5625 C 1.625 -17.445312 2.257812 -18.925781 3.53125 -20 C 4.8125 -21.082031 6.578125 -21.625 8.828125 -21.625 C 9.941406 -21.625 11 -21.488281 12 -21.21875 C 13.007812 -20.957031 14.0625 -20.59375 15.15625 -20.125 L 13.703125 -16.609375 C 12.566406 -17.078125 11.625 -17.398438 10.875 -17.578125 C 10.132812 -17.765625 9.40625 -17.859375 8.6875 -17.859375 C 7.832031 -17.859375 7.175781 -17.660156 6.71875 -17.265625 C 6.257812 -16.867188 6.03125 -16.347656 6.03125 -15.703125 C 6.03125 -15.304688 6.125 -14.957031 6.3125 -14.65625 C 6.5 -14.363281 6.789062 -14.078125 7.1875 -13.796875 C 7.59375 -13.523438 8.550781 -13.03125 10.0625 -12.3125 C 12.050781 -11.351562 13.414062 -10.394531 14.15625 -9.4375 C 14.894531 -8.476562 15.265625 -7.304688 15.265625 -5.921875 Z M 15.265625 -5.921875 "/></g></g></g><g fill="#ffffff" fill-opacity="1"><g transform="translate(264.213262, 75.397542)"><g><path d="M 10.90625 0 L 6.390625 0 L 6.390625 -17.546875 L 0.59375 -17.546875 L 0.59375 -21.3125 L 16.6875 -21.3125 L 16.6875 -17.546875 L 10.90625 -17.546875 Z M 10.90625 0 "/></g></g></g><g fill="#ffffff" fill-opacity="1"><g transform="translate(284.222523, 75.397542)"><g/></g></g><g fill="#ffffff" fill-opacity="1"><g transform="translate(294.696895, 75.397542)"><g><path d="M 15.734375 0 L 14.1875 -5.078125 L 6.421875 -5.078125 L 4.875 0 L 0 0 L 7.515625 -21.40625 L 13.046875 -21.40625 L 20.59375 0 Z M 13.109375 -8.859375 C 11.679688 -13.460938 10.875 -16.0625 10.6875 -16.65625 C 10.507812 -17.257812 10.382812 -17.738281 10.3125 -18.09375 C 9.988281 -16.851562 9.066406 -13.773438 7.546875 -8.859375 Z M 13.109375 -8.859375 "/></g></g></g><g fill="#ffffff" fill-opacity="1"><g transform="translate(318.015658, 75.397542)"><g><path d="M 2.6875 0 L 2.6875 -21.3125 L 7.203125 -21.3125 L 7.203125 0 Z M 2.6875 0 "/></g></g></g></svg>