<svg xmlns="http://www.w3.org/2000/svg" xmlns:xlink="http://www.w3.org/1999/xlink" width="500" zoomAndPan="magnify" viewBox="0 0 375 374.999991" height="500" preserveAspectRatio="xMidYMid meet" version="1.0"><defs><clipPath id="329aca0dee"><path d="M 0 35.15625 L 375 35.15625 L 375 339.65625 L 0 339.65625 Z M 0 35.15625 " clip-rule="nonzero"/></clipPath><clipPath id="ed3b19ef03"><path d="M 329.714844 202.84375 C 329.714844 190.320312 339.855469 180.242188 352.386719 180.242188 C 364.917969 180.242188 375 190.375 375 202.84375 C 375 215.367188 364.859375 225.441406 352.386719 225.441406 C 348.480469 225.441406 344.75 224.453125 341.542969 222.703125 L 325.226562 246.703125 C 329.070312 250.082031 331.519531 255.03125 331.519531 260.625 C 331.519531 270.816406 323.242188 279.089844 313.042969 279.089844 C 302.84375 279.089844 294.566406 270.816406 294.566406 260.625 C 294.566406 253.632812 298.472656 247.519531 304.242188 244.429688 L 299.636719 232.78125 C 298.589844 233.015625 297.480469 233.132812 296.375 233.132812 C 288.273438 233.132812 281.746094 226.550781 281.746094 218.511719 C 281.746094 210.414062 288.332031 203.832031 296.375 203.832031 C 297.714844 203.832031 299.054688 204.007812 300.28125 204.355469 L 309.78125 183.269531 C 307.449219 181.464844 305.933594 178.667969 305.933594 175.523438 C 305.933594 170.105469 310.304688 165.738281 315.726562 165.738281 C 318.113281 165.738281 320.269531 166.554688 321.960938 168.007812 L 338.980469 155.078125 C 337.757812 152.863281 337.058594 150.242188 337.058594 147.507812 C 337.058594 142.960938 339.039062 138.828125 342.128906 135.972656 L 331.636719 120.539062 C 329.65625 121.46875 327.441406 121.992188 325.109375 121.992188 C 319.628906 121.992188 314.851562 119.082031 312.226562 114.769531 L 296.257812 121.46875 C 296.257812 121.703125 296.316406 121.933594 296.316406 122.109375 C 296.316406 125.78125 293.636719 128.808594 290.136719 129.390625 L 287.980469 144.886719 C 293.34375 146.574219 297.191406 151.582031 297.191406 157.464844 C 297.191406 164.746094 291.246094 170.6875 283.960938 170.6875 C 279.0625 170.6875 274.808594 168.007812 272.476562 164.046875 L 253.535156 171.039062 C 253.535156 171.097656 253.535156 171.15625 253.535156 171.269531 C 253.535156 175.175781 250.386719 178.320312 246.484375 178.320312 C 246.074219 178.320312 245.609375 178.261719 245.203125 178.203125 L 235.585938 195.675781 C 236.75 196.726562 237.742188 198.007812 238.382812 199.464844 L 264.960938 193.871094 C 265.367188 190.375 268.339844 187.640625 271.953125 187.640625 C 275.859375 187.640625 279.007812 190.785156 279.007812 194.6875 C 279.007812 198.296875 276.265625 201.269531 272.769531 201.675781 L 264.960938 238.957031 C 273.234375 241.636719 279.179688 249.382812 279.179688 258.527344 C 279.179688 269.886719 269.972656 279.148438 258.546875 279.148438 C 258.199219 279.148438 257.847656 279.148438 257.5 279.148438 L 254.410156 298.253906 C 257.207031 299.535156 259.1875 302.386719 259.1875 305.707031 C 259.1875 309.4375 256.742188 312.523438 253.359375 313.570312 L 253.652344 328.015625 C 255.808594 328.832031 257.382812 330.988281 257.382812 333.433594 C 257.382812 336.636719 254.761719 339.257812 251.554688 339.257812 C 248.347656 339.257812 245.726562 336.636719 245.726562 333.433594 C 245.726562 332.851562 245.84375 332.269531 246.015625 331.6875 L 235.816406 323.183594 C 234.535156 324.054688 232.960938 324.582031 231.214844 324.582031 C 226.726562 324.582031 223.113281 320.96875 223.113281 316.484375 C 223.113281 313.28125 224.976562 310.542969 227.65625 309.203125 L 225.910156 299.535156 C 225.792969 299.535156 225.617188 299.535156 225.5 299.535156 C 217.339844 299.535156 210.695312 292.894531 210.695312 284.738281 C 210.695312 276.585938 217.339844 269.945312 225.5 269.945312 C 229.40625 269.945312 232.902344 271.457031 235.527344 273.90625 L 241.179688 269.417969 C 239.140625 266.214844 237.972656 262.488281 237.972656 258.410156 C 237.972656 254.507812 239.082031 250.839844 241.003906 247.691406 L 226.550781 236.625 C 225.441406 237.382812 224.101562 237.847656 222.644531 237.847656 C 221.070312 237.847656 219.613281 237.324219 218.449219 236.453125 L 209.296875 242.800781 C 210.929688 245.769531 211.804688 249.148438 211.804688 252.761719 C 211.804688 264.292969 202.480469 273.613281 190.9375 273.613281 C 181.148438 273.613281 172.988281 266.914062 170.714844 257.828125 L 155.09375 259.984375 C 154.917969 267.382812 148.859375 273.324219 141.398438 273.324219 C 133.820312 273.324219 127.699219 267.207031 127.699219 259.632812 C 127.699219 252.0625 133.820312 245.945312 141.398438 245.945312 C 142.796875 245.945312 144.136719 246.179688 145.359375 246.527344 L 162.03125 212.800781 C 157.773438 209.949219 154.859375 205.289062 154.335938 199.929688 L 140.582031 199.464844 C 139.589844 202.027344 137.140625 203.832031 134.226562 203.832031 C 133.46875 203.832031 132.769531 203.714844 132.070312 203.484375 L 121.054688 217.753906 C 124.496094 221.132812 126.59375 225.792969 126.59375 230.976562 C 126.59375 241.226562 118.257812 249.558594 108 249.558594 C 99.375 249.558594 92.089844 243.617188 89.992188 235.636719 L 77.226562 237.324219 C 76.992188 244.605469 70.988281 250.488281 63.644531 250.488281 C 56.128906 250.488281 50.066406 244.429688 50.066406 236.917969 C 50.066406 229.8125 55.542969 223.984375 62.539062 223.402344 L 63.761719 208.492188 C 61.316406 207.445312 59.625 204.996094 59.625 202.144531 C 59.625 198.355469 62.714844 195.210938 66.558594 195.210938 C 67.433594 195.210938 68.191406 195.386719 68.949219 195.621094 L 95.003906 163.582031 C 94.363281 162.535156 93.953125 161.253906 93.953125 159.914062 C 93.953125 158.050781 94.710938 156.359375 95.878906 155.136719 L 91.855469 147.332031 C 89.816406 148.089844 87.660156 148.496094 85.386719 148.496094 C 82.121094 148.496094 79.03125 147.621094 76.410156 146.167969 L 60.730469 167.894531 C 62.363281 169.699219 63.355469 172.144531 63.355469 174.824219 C 63.355469 180.53125 58.691406 185.191406 52.980469 185.191406 C 51.816406 185.191406 50.648438 185.019531 49.601562 184.609375 L 33.222656 211.289062 C 36.953125 214.316406 39.285156 218.917969 39.285156 224.101562 C 39.285156 233.246094 31.882812 240.644531 22.730469 240.644531 C 13.582031 240.644531 6.179688 233.246094 6.179688 224.101562 C 6.179688 216.648438 11.132812 210.355469 17.894531 208.257812 L 16.609375 200.394531 C 16.496094 200.394531 16.4375 200.394531 16.320312 200.394531 C 7.808594 200.394531 0.933594 193.523438 0.933594 185.019531 C 0.933594 176.570312 7.75 169.699219 16.203125 169.640625 L 17.136719 162.824219 C 7.285156 160.4375 -0.0585938 151.523438 -0.0585938 140.925781 C -0.0585938 128.515625 10.023438 118.441406 22.4375 118.441406 C 32.753906 118.441406 41.5 125.371094 44.121094 134.867188 L 66.792969 130.847656 C 66.792969 130.496094 66.792969 130.207031 66.792969 129.855469 C 66.792969 126.710938 67.609375 123.742188 68.949219 121.121094 L 52.222656 109.410156 C 50.355469 111.160156 47.851562 112.207031 45.113281 112.207031 C 39.339844 112.207031 34.621094 107.488281 34.621094 101.722656 C 34.621094 95.957031 39.339844 91.238281 45.113281 91.238281 C 50.882812 91.238281 55.601562 95.957031 55.601562 101.722656 C 55.601562 103.179688 55.3125 104.519531 54.785156 105.742188 L 71.515625 117.449219 C 73.902344 114.769531 77.109375 112.789062 80.664062 111.859375 L 80.605469 94.90625 C 74.3125 93.859375 69.53125 88.441406 69.53125 81.859375 C 69.53125 74.578125 75.476562 68.636719 82.761719 68.636719 C 87.078125 68.636719 90.863281 70.675781 93.253906 73.820312 L 114.410156 62.753906 C 113.886719 61.183594 113.59375 59.550781 113.59375 57.804688 C 113.59375 49.472656 120.355469 42.660156 128.75 42.660156 C 137.085938 42.660156 143.902344 49.417969 143.902344 57.804688 C 143.902344 63.335938 140.929688 68.230469 136.441406 70.851562 L 143.4375 88.09375 C 144.542969 87.859375 145.652344 87.683594 146.875 87.683594 C 149.617188 87.683594 152.238281 88.441406 154.453125 89.78125 L 170.304688 70.558594 C 166.691406 66.832031 164.417969 61.765625 164.417969 56.171875 C 164.417969 44.816406 173.628906 35.554688 185.050781 35.554688 C 196.417969 35.554688 205.683594 44.757812 205.683594 56.171875 C 205.683594 61.242188 203.820312 65.898438 200.789062 69.453125 L 216.527344 85.996094 C 217.457031 85.53125 218.507812 85.296875 219.613281 85.296875 C 219.90625 85.296875 220.199219 85.296875 220.429688 85.355469 L 228.824219 67.238281 C 225.382812 64.851562 223.113281 60.890625 223.113281 56.347656 C 223.113281 49.066406 229.054688 43.125 236.34375 43.125 C 243.628906 43.125 249.574219 49.066406 249.574219 56.347656 C 249.574219 57.980469 249.28125 59.550781 248.757812 60.949219 L 262.105469 68.695312 C 265.425781 64.328125 270.730469 61.472656 276.617188 61.472656 C 286.699219 61.472656 294.859375 69.628906 294.859375 79.707031 C 294.859375 82.152344 294.394531 84.480469 293.519531 86.578125 L 313.21875 97.585938 C 315.957031 94.035156 320.269531 91.703125 325.167969 91.703125 C 333.5 91.703125 340.261719 98.460938 340.261719 106.789062 C 340.261719 111.160156 338.398438 115.121094 335.425781 117.859375 L 345.917969 133.292969 C 347.957031 132.304688 350.289062 131.722656 352.734375 131.722656 C 361.363281 131.722656 368.355469 138.710938 368.355469 147.332031 C 368.355469 155.953125 361.363281 162.941406 352.734375 162.941406 C 348.480469 162.941406 344.574219 161.253906 341.777344 158.457031 L 324.757812 171.386719 C 325.285156 172.609375 325.574219 173.949219 325.574219 175.347656 C 325.574219 180.765625 321.203125 185.132812 315.785156 185.132812 C 315.140625 185.132812 314.5 185.078125 313.917969 184.960938 L 304.417969 206.046875 C 308.4375 208.667969 311.121094 213.210938 311.121094 218.335938 C 311.121094 223.695312 308.207031 228.414062 303.894531 230.976562 L 308.496094 242.625 C 310.011719 242.21875 311.527344 242.042969 313.160156 242.042969 C 316.191406 242.042969 319.105469 242.800781 321.613281 244.082031 L 337.929688 220.082031 C 332.976562 215.949219 329.828125 209.714844 329.828125 202.726562 Z M 85.152344 111.390625 L 85.09375 94.964844 C 91.332031 93.917969 96.050781 88.441406 96.050781 81.917969 C 96.050781 80.519531 95.820312 79.121094 95.410156 77.839844 L 116.566406 66.773438 C 119.308594 70.558594 123.796875 73.007812 128.808594 73.007812 C 130.03125 73.007812 131.199219 72.890625 132.363281 72.597656 L 139.355469 89.839844 C 135.042969 92.402344 132.128906 97.121094 132.128906 102.539062 C 132.128906 109.0625 136.386719 114.597656 142.273438 116.578125 L 139.125 135.214844 C 138.714844 135.214844 138.308594 135.15625 137.84375 135.15625 C 126.300781 135.15625 116.976562 144.476562 116.976562 156.011719 C 116.976562 167.542969 126.300781 176.863281 137.84375 176.863281 C 148.800781 176.863281 157.773438 168.417969 158.648438 157.699219 L 170.714844 157.351562 C 171.703125 159.972656 174.210938 161.835938 177.183594 161.835938 C 179.28125 161.835938 181.148438 160.902344 182.429688 159.390625 L 198.222656 165.679688 C 198.050781 166.613281 197.933594 167.542969 197.933594 168.476562 C 197.933594 175.816406 203.9375 181.8125 211.28125 181.8125 C 218.625 181.8125 224.628906 175.816406 224.628906 168.476562 C 224.628906 165.273438 223.460938 162.300781 221.597656 159.972656 L 238.324219 140.632812 C 241.238281 142.554688 244.734375 143.71875 248.464844 143.71875 C 258.546875 143.71875 266.707031 135.566406 266.707031 125.488281 C 266.707031 115.410156 258.546875 107.257812 248.464844 107.257812 C 244.675781 107.257812 241.121094 108.421875 238.207031 110.402344 L 225.734375 96.132812 C 226.375 95.082031 226.726562 93.800781 226.726562 92.460938 C 226.726562 90.421875 225.851562 88.558594 224.453125 87.21875 L 232.785156 69.105469 C 233.894531 69.394531 235.058594 69.570312 236.226562 69.570312 C 240.304688 69.570312 243.976562 67.707031 246.367188 64.792969 L 259.714844 72.539062 C 258.78125 74.753906 258.257812 77.140625 258.257812 79.707031 C 258.257812 89.78125 266.417969 97.9375 276.5 97.9375 C 277.492188 97.9375 278.480469 97.878906 279.414062 97.703125 L 284.660156 115.820312 C 282.679688 117.160156 281.394531 119.371094 281.394531 121.933594 C 281.394531 124.90625 283.144531 127.410156 285.59375 128.632812 L 283.4375 144.128906 C 276.324219 144.359375 270.613281 150.1875 270.613281 157.351562 C 270.613281 158.164062 270.671875 158.980469 270.847656 159.796875 L 251.902344 166.785156 C 250.621094 165.15625 248.640625 164.164062 246.425781 164.164062 C 242.519531 164.164062 239.371094 167.3125 239.371094 171.214844 C 239.371094 173.078125 240.074219 174.707031 241.238281 175.988281 L 231.621094 193.464844 C 230.628906 193.171875 229.582031 193 228.53125 193 C 222.585938 193 217.808594 197.773438 217.808594 203.714844 C 217.808594 209.65625 222.585938 214.433594 228.53125 214.433594 C 234.476562 214.433594 239.257812 209.65625 239.257812 203.714844 L 265.832031 198.066406 C 266.476562 199.113281 267.292969 199.988281 268.339844 200.570312 L 260.53125 237.847656 C 259.890625 237.789062 259.191406 237.734375 258.488281 237.734375 C 252.660156 237.734375 247.359375 240.179688 243.570312 244.082031 L 229.113281 233.015625 C 229.347656 232.316406 229.523438 231.5 229.523438 230.742188 C 229.523438 226.839844 226.375 223.695312 222.46875 223.695312 C 218.566406 223.695312 215.417969 226.839844 215.417969 230.742188 C 215.417969 231.441406 215.535156 232.082031 215.710938 232.722656 L 206.558594 239.074219 C 202.710938 234.644531 197.058594 231.851562 190.765625 231.851562 C 179.222656 231.851562 169.898438 241.167969 169.898438 252.703125 C 169.898438 252.933594 169.898438 253.167969 169.898438 253.34375 L 154.277344 255.5 C 153.402344 252.644531 151.539062 250.140625 149.148438 248.449219 L 165.820312 214.726562 C 167.566406 215.308594 169.492188 215.65625 171.472656 215.65625 C 181.089844 215.65625 188.898438 207.851562 188.898438 198.242188 C 188.898438 188.628906 181.089844 180.882812 171.472656 180.882812 C 162.847656 180.882812 155.675781 187.171875 154.277344 195.445312 L 140.523438 194.976562 C 139.648438 192.183594 137.085938 190.203125 134.054688 190.203125 C 130.324219 190.203125 127.234375 193.230469 127.234375 197.015625 C 127.234375 198.414062 127.640625 199.636719 128.339844 200.746094 L 117.324219 215.015625 C 114.527344 213.328125 111.265625 212.394531 107.824219 212.394531 C 97.566406 212.394531 89.234375 220.722656 89.234375 230.976562 C 89.234375 231.035156 89.234375 231.152344 89.234375 231.207031 L 76.46875 232.898438 C 75.070312 228.414062 71.398438 224.859375 66.792969 223.695312 L 68.019531 208.785156 C 71.046875 208.027344 73.261719 205.289062 73.261719 202.085938 C 73.261719 200.746094 72.855469 199.464844 72.214844 198.414062 L 98.265625 166.378906 C 99.023438 166.667969 99.839844 166.785156 100.65625 166.785156 C 104.503906 166.785156 107.59375 163.699219 107.59375 159.855469 C 107.59375 156.070312 104.503906 152.921875 100.65625 152.921875 C 100.308594 152.921875 99.957031 152.921875 99.664062 152.980469 L 95.644531 145.175781 C 100.539062 141.855469 103.804688 136.207031 103.804688 129.796875 C 103.804688 119.546875 95.46875 111.21875 85.210938 111.21875 C 85.09375 111.21875 85.035156 111.21875 84.976562 111.21875 Z M 143.496094 135.972656 L 146.644531 117.332031 C 146.699219 117.332031 146.816406 117.332031 146.875 117.332031 C 152.238281 117.332031 156.902344 114.480469 159.523438 110.226562 L 181.089844 119.140625 C 180.796875 120.363281 180.621094 121.585938 180.621094 122.925781 C 180.621094 131.429688 187.5 138.304688 196.007812 138.304688 C 204.519531 138.304688 211.398438 131.429688 211.398438 122.925781 C 211.398438 118.789062 209.765625 115.0625 207.140625 112.265625 L 217.226562 99.277344 C 217.984375 99.566406 218.796875 99.683594 219.613281 99.683594 C 220.605469 99.683594 221.539062 99.507812 222.414062 99.101562 L 234.886719 113.371094 C 231.972656 116.578125 230.222656 120.886719 230.222656 125.546875 C 230.222656 130.265625 232.027344 134.515625 234.941406 137.777344 L 218.214844 157.117188 C 216.175781 155.894531 213.84375 155.195312 211.28125 155.195312 C 206.441406 155.195312 202.246094 157.757812 199.855469 161.601562 L 184.0625 155.3125 C 184.0625 155.195312 184.0625 155.078125 184.0625 154.960938 C 184.0625 151.117188 180.972656 148.03125 177.125 148.03125 C 174.035156 148.03125 171.414062 150.070312 170.539062 152.921875 L 158.472656 153.273438 C 157.367188 144.941406 151.363281 138.246094 143.4375 135.972656 Z M 197.523438 72.597656 L 213.261719 89.140625 C 212.738281 90.132812 212.386719 91.296875 212.386719 92.519531 C 212.386719 93.976562 212.855469 95.375 213.609375 96.539062 L 203.527344 109.527344 C 201.3125 108.246094 198.691406 107.546875 195.953125 107.546875 C 190.355469 107.546875 185.460938 110.578125 182.777344 115.003906 L 161.214844 106.035156 C 161.503906 104.925781 161.621094 103.703125 161.621094 102.480469 C 161.621094 98.695312 160.164062 95.257812 157.832031 92.636719 L 173.6875 73.414062 C 176.949219 75.570312 180.796875 76.792969 184.992188 76.792969 C 189.714844 76.792969 194.027344 75.21875 197.523438 72.539062 Z M 288.972656 114.710938 L 283.726562 96.539062 C 286.757812 95.257812 289.324219 93.160156 291.246094 90.539062 L 310.945312 101.546875 C 310.304688 103.179688 309.953125 104.984375 309.953125 106.847656 C 309.953125 108.128906 310.128906 109.355469 310.421875 110.578125 L 294.453125 117.273438 C 293.109375 115.703125 291.1875 114.710938 288.972656 114.652344 Z M 253.1875 278.332031 L 250.097656 297.4375 C 246.015625 297.902344 242.8125 301.398438 242.8125 305.59375 C 242.8125 309.4375 245.433594 312.640625 248.988281 313.570312 L 249.28125 328.015625 C 249.164062 328.074219 248.988281 328.132812 248.875 328.191406 L 238.671875 319.6875 C 239.140625 318.699219 239.371094 317.589844 239.371094 316.425781 C 239.371094 312.230469 236.167969 308.796875 232.085938 308.386719 L 230.339844 298.71875 C 236.167969 296.738281 240.363281 291.203125 240.363281 284.738281 C 240.363281 282.058594 239.664062 279.554688 238.382812 277.398438 L 244.035156 272.914062 C 246.542969 275.417969 249.6875 277.339844 253.246094 278.273438 Z M 72.796875 143.605469 L 57.117188 165.332031 C 55.835938 164.804688 54.4375 164.457031 52.980469 164.457031 C 47.269531 164.457031 42.605469 169.117188 42.605469 174.824219 C 42.605469 177.738281 43.828125 180.417969 45.8125 182.28125 L 29.433594 208.957031 C 27.394531 208.027344 25.121094 207.558594 22.730469 207.558594 C 22.554688 207.558594 22.4375 207.558594 22.265625 207.558594 L 20.980469 199.695312 C 27.21875 197.714844 31.707031 191.890625 31.707031 185.078125 C 31.707031 178.085938 27.042969 172.203125 20.632812 170.339844 L 21.566406 163.523438 C 21.855469 163.523438 22.148438 163.523438 22.496094 163.523438 C 34.914062 163.523438 44.996094 153.449219 44.996094 141.039062 C 44.996094 140.457031 44.996094 139.933594 44.9375 139.351562 L 67.609375 135.390625 C 68.601562 138.59375 70.40625 141.449219 72.796875 143.660156 Z M 89.816406 188.921875 C 89.816406 181.640625 95.761719 175.699219 103.046875 175.699219 C 110.332031 175.699219 116.277344 181.640625 116.277344 188.921875 C 116.277344 196.203125 110.332031 202.144531 103.046875 202.144531 C 95.761719 202.144531 89.816406 196.203125 89.816406 188.921875 Z M 103.980469 100.207031 C 103.980469 96.363281 107.066406 93.277344 110.914062 93.277344 C 114.761719 93.277344 117.851562 96.363281 117.851562 100.207031 C 117.851562 103.996094 114.761719 107.140625 110.914062 107.140625 C 107.125 107.140625 103.980469 104.054688 103.980469 100.207031 Z M 103.980469 100.207031 " clip-rule="evenodd"/></clipPath></defs><g clip-path="url(#329aca0dee)"><g clip-path="url(#ed3b19ef03)"><path fill="#00afef" d="M 0 35.554688 L 0 339.257812 L 375 339.257812 L 375 35.554688 Z M 0 35.554688 " fill-opacity="1" fill-rule="nonzero"/></g></g></svg>