<svg width="383" height="73" viewBox="0 0 383 73" fill="none" xmlns="http://www.w3.org/2000/svg">
<g clip-path="url(#clip0_136_88)">
<mask id="mask0_136_88" style="mask-type:luminance" maskUnits="userSpaceOnUse" x="0" y="-1" width="92" height="75">
<path d="M0.015625 -0.494751H91.6198V73.1823H0.015625V-0.494751Z" fill="white"/>
</mask>
<g mask="url(#mask0_136_88)">
<mask id="mask1_136_88" style="mask-type:luminance" maskUnits="userSpaceOnUse" x="0" y="-1" width="92" height="75">
<path fill-rule="evenodd" clip-rule="evenodd" d="M80.5573 40.0782C80.5573 37.0469 83.0313 34.6094 86.0938 34.6094C89.1563 34.6094 91.6198 37.0625 91.6198 40.0782C91.6198 43.1094 89.1406 45.5469 86.0938 45.5469C85.1406 45.5469 84.2292 45.3073 83.4479 44.8855L79.4583 50.6928C80.401 51.5105 80.9948 52.7084 80.9948 54.0625C80.9948 56.5261 78.974 58.5261 76.4844 58.5261C73.9948 58.5261 71.9688 56.5261 71.9688 54.0625C71.9688 52.3698 72.9271 50.8907 74.3333 50.1407L73.2083 47.323C72.9531 47.3802 72.6823 47.4063 72.4115 47.4063C70.4323 47.4063 68.8385 45.8177 68.8385 43.8698C68.8385 41.9115 70.4479 40.3178 72.4115 40.3178C72.7396 40.3178 73.0677 40.3594 73.3646 40.448L75.6875 35.3438C75.1198 34.9063 74.7448 34.2292 74.7448 33.4688C74.7448 32.1563 75.8125 31.099 77.1406 31.099C77.724 31.099 78.25 31.2969 78.6615 31.6511L82.8177 28.5209C82.5208 27.9844 82.349 27.3542 82.349 26.6875C82.349 25.5886 82.8333 24.5886 83.5885 23.9011L81.026 20.1667C80.5417 20.3907 80 20.5157 79.4323 20.5157C78.0938 20.5157 76.9271 19.8125 76.2865 18.7709L72.3854 20.3907C72.3854 20.448 72.3958 20.5 72.3958 20.5469C72.3958 21.4323 71.7448 22.1667 70.8906 22.3073L70.3646 26.0573C71.6719 26.4636 72.6094 27.6771 72.6094 29.099C72.6094 30.8594 71.1615 32.2969 69.3802 32.2969C68.1823 32.2969 67.1458 31.6511 66.5729 30.6927L61.9479 32.3855C61.9479 32.3959 61.9479 32.4115 61.9479 32.4428C61.9479 33.3855 61.1771 34.1459 60.224 34.1459C60.125 34.1459 60.0104 34.1302 59.9115 34.1198L57.5625 38.3438C57.849 38.599 58.0885 38.9115 58.2448 39.2605L64.7396 37.9063C64.8385 37.0625 65.5625 36.4011 66.4479 36.4011C67.401 36.4011 68.1719 37.1615 68.1719 38.1042C68.1719 38.9792 67.5 39.698 66.6458 39.7969L64.7396 48.8178C66.7604 49.4636 68.2135 51.3386 68.2135 53.5521C68.2135 56.3021 65.9635 58.5417 63.1719 58.5417C63.0885 58.5417 63 58.5417 62.9167 58.5417L62.1615 63.1667C62.8438 63.474 63.3281 64.1667 63.3281 64.9688C63.3281 65.8698 62.7292 66.6198 61.9063 66.8698L61.974 70.3698C62.5052 70.5625 62.8854 71.0886 62.8854 71.6771C62.8854 72.4532 62.2448 73.0886 61.4635 73.0886C60.6823 73.0886 60.0417 72.4532 60.0417 71.6771C60.0417 71.5365 60.0677 71.3959 60.1094 71.2553L57.6198 69.198C57.3073 69.4115 56.9219 69.5365 56.4948 69.5365C55.401 69.5365 54.5156 68.6615 54.5156 67.5782C54.5156 66.8021 54.974 66.1407 55.625 65.8178L55.1979 63.474C55.1719 63.474 55.1302 63.474 55.099 63.474C53.1094 63.474 51.4844 61.8698 51.4844 59.8959C51.4844 57.9219 53.1094 56.3178 55.099 56.3178C56.0521 56.3178 56.9063 56.6823 57.5469 57.2761L58.9323 56.1875C58.4323 55.4115 58.1458 54.5105 58.1458 53.5261C58.1458 52.5834 58.4167 51.6927 58.8854 50.9323L55.3542 48.2553C55.0833 48.4375 54.7604 48.5521 54.401 48.5521C54.0156 48.5521 53.6615 48.4219 53.375 48.2136L51.1406 49.75C51.5417 50.4688 51.7552 51.2865 51.7552 52.1563C51.7552 54.948 49.474 57.2032 46.6563 57.2032C44.2656 57.2032 42.2708 55.5834 41.7188 53.3855L37.901 53.9063C37.8594 55.698 36.3802 57.1355 34.5573 57.1355C32.7031 57.1355 31.2083 55.6511 31.2083 53.823C31.2083 51.9896 32.7031 50.5105 34.5573 50.5105C34.8958 50.5105 35.224 50.5678 35.526 50.6511L39.5938 42.4896C38.5573 41.7969 37.8438 40.6719 37.7188 39.375L34.3542 39.2605C34.1146 39.8803 33.5156 40.3178 32.8021 40.3178C32.6198 40.3178 32.4479 40.2917 32.276 40.2344L29.5885 43.6875C30.4271 44.5053 30.9375 45.6303 30.9375 46.8855C30.9375 49.3698 28.9063 51.3803 26.3958 51.3803C24.2917 51.3803 22.5104 49.9427 22 48.0157L18.8802 48.4219C18.8229 50.1823 17.3594 51.6094 15.5625 51.6094C13.7292 51.6094 12.2448 50.1407 12.2448 48.323C12.2448 46.6042 13.5833 45.198 15.2917 45.0521L15.5938 41.448C14.9948 41.1927 14.5833 40.599 14.5833 39.9115C14.5833 38.9948 15.3333 38.2344 16.276 38.2344C16.4896 38.2344 16.6719 38.2761 16.8594 38.3334L23.224 30.5782C23.0677 30.3282 22.9688 30.0157 22.9688 29.6927C22.9688 29.2396 23.151 28.8334 23.4375 28.5365L22.4531 26.6459C21.9583 26.8334 21.4271 26.9271 20.875 26.9271C20.0781 26.9271 19.3229 26.7188 18.6823 26.3646L14.8542 31.625C15.25 32.0573 15.4948 32.6511 15.4948 33.3021C15.4948 34.6823 14.3542 35.8073 12.9583 35.8073C12.6719 35.8073 12.3906 35.7657 12.1302 35.6667L8.13021 42.125C9.04167 42.8542 9.61458 43.9688 9.61458 45.224C9.61458 47.4375 7.80208 49.224 5.56771 49.224C3.33333 49.224 1.52604 47.4375 1.52604 45.224C1.52604 43.4219 2.73438 41.8959 4.38542 41.3907L4.07292 39.4896C4.04687 39.4896 4.03125 39.4896 4.00521 39.4896C1.92188 39.4896 0.244792 37.823 0.244792 35.7657C0.244792 33.724 1.91146 32.0573 3.97396 32.0469L4.20313 30.3959C1.79687 29.8177 0 27.6615 0 25.099C0 22.0938 2.46354 19.6563 5.5 19.6563C8.01563 19.6563 10.151 21.3334 10.7917 23.6302L16.3333 22.6615C16.3333 22.573 16.3333 22.5052 16.3333 22.4219C16.3333 21.6563 16.5313 20.9375 16.8594 20.3073L12.7708 17.474C12.3177 17.8959 11.7031 18.1511 11.0365 18.1511C9.625 18.1511 8.47396 17.0052 8.47396 15.6094C8.47396 14.2188 9.625 13.073 11.0365 13.073C12.4479 13.073 13.599 14.2188 13.599 15.6094C13.599 15.9636 13.526 16.2865 13.401 16.5834L17.4844 19.4167C18.0677 18.7709 18.8542 18.2917 19.7188 18.0625L19.7083 13.9636C18.1667 13.7084 17 12.4011 17 10.8073C17 9.04171 18.4531 7.60421 20.2344 7.60421C21.2865 7.60421 22.2135 8.099 22.7969 8.85942L27.9635 6.18233C27.8333 5.80212 27.7656 5.40629 27.7656 4.98442C27.7656 2.96879 29.4167 1.32296 31.4688 1.32296C33.5 1.32296 35.1667 2.95317 35.1667 4.98442C35.1667 6.32296 34.4427 7.50525 33.3438 8.14067L35.0521 12.3125C35.3229 12.2552 35.5938 12.2136 35.8958 12.2136C36.5625 12.2136 37.2031 12.4011 37.7448 12.724L41.6198 8.07296C40.7344 7.17191 40.1771 5.94275 40.1771 4.58858C40.1771 1.84379 42.4271 -0.401001 45.2188 -0.401001C47.9948 -0.401001 50.2604 1.82817 50.2604 4.58858C50.2604 5.81775 49.8021 6.94275 49.0625 7.80212L52.9063 11.8073C53.1354 11.6927 53.3906 11.6355 53.6615 11.6355C53.7344 11.6355 53.8021 11.6355 53.8594 11.6511L55.9115 7.26567C55.0729 6.69275 54.5156 5.73442 54.5156 4.63025C54.5156 2.86983 55.9688 1.43233 57.75 1.43233C59.526 1.43233 60.9792 2.86983 60.9792 4.63025C60.9792 5.02608 60.9063 5.40629 60.7813 5.74483L64.0417 7.61983C64.8542 6.56254 66.1458 5.87504 67.5885 5.87504C70.0469 5.87504 72.0417 7.84379 72.0417 10.2865C72.0417 10.875 71.9271 11.4375 71.7135 11.948L76.526 14.6094C77.1979 13.75 78.25 13.1875 79.4479 13.1875C81.4792 13.1875 83.1354 14.823 83.1354 16.8386C83.1354 17.8959 82.6771 18.8542 81.9531 19.5157L84.5156 23.25C85.0104 23.0105 85.5833 22.8698 86.1823 22.8698C88.2865 22.8698 89.9948 24.5625 89.9948 26.6459C89.9948 28.7344 88.2865 30.4271 86.1823 30.4271C85.1406 30.4271 84.1875 30.0157 83.5052 29.3386L79.3438 32.4688C79.474 32.7657 79.5469 33.0886 79.5469 33.4271C79.5469 34.7396 78.4792 35.7969 77.151 35.7969C76.9948 35.7969 76.8385 35.7813 76.6979 35.75L74.375 40.8542C75.3594 41.4896 76.0156 42.5886 76.0156 43.8282C76.0156 45.125 75.3021 46.2657 74.25 46.8855L75.375 49.7032C75.7448 49.6094 76.1146 49.5625 76.5104 49.5625C77.2552 49.5625 77.9635 49.75 78.5781 50.0573L82.5625 44.25C81.3542 43.25 80.5833 41.7448 80.5833 40.0521L80.5573 40.0782ZM20.8177 17.9532L20.8021 13.9792C22.3281 13.724 23.4792 12.4011 23.4792 10.8177C23.4792 10.4792 23.4219 10.1459 23.3229 9.83337L28.4896 7.15629C29.1615 8.07296 30.2552 8.6615 31.4792 8.6615C31.7813 8.6615 32.0625 8.63546 32.349 8.56254L34.0573 12.7344C33.0052 13.3594 32.2917 14.5 32.2917 15.8073C32.2917 17.3855 33.3333 18.7292 34.7708 19.2084L34 23.7136C33.901 23.7136 33.8021 23.7032 33.6875 23.7032C30.8698 23.7032 28.5885 25.9584 28.5885 28.75C28.5885 31.5365 30.8698 33.7917 33.6875 33.7917C36.3646 33.7917 38.5573 31.75 38.7708 29.1563L41.7188 29.073C41.9583 29.7084 42.5729 30.1563 43.2969 30.1563C43.8125 30.1563 44.2656 29.9323 44.5781 29.5625L48.4375 31.0886C48.3958 31.3125 48.3646 31.5365 48.3646 31.7657C48.3646 33.5417 49.8333 34.9896 51.625 34.9896C53.4219 34.9896 54.8854 33.5417 54.8854 31.7657C54.8854 30.9896 54.6042 30.2709 54.1458 29.7084L58.2344 25.0261C58.9427 25.4896 59.7969 25.7761 60.7083 25.7761C63.1719 25.7761 65.1667 23.8021 65.1667 21.3646C65.1667 18.9219 63.1719 16.9532 60.7083 16.9532C59.7865 16.9532 58.9167 17.2344 58.2031 17.7136L55.1563 14.2605C55.3125 14.0052 55.401 13.6927 55.401 13.3698C55.401 12.8802 55.1875 12.4271 54.8438 12.1042L56.8802 7.71879C57.151 7.79171 57.4375 7.83337 57.7188 7.83337C58.7188 7.83337 59.6146 7.38025 60.1979 6.67712L63.4583 8.55212C63.2292 9.08858 63.099 9.66671 63.099 10.2865C63.099 12.724 65.0938 14.698 67.5573 14.698C67.8021 14.698 68.0417 14.6823 68.2708 14.6407L69.5521 19.0209C69.0677 19.349 68.7552 19.8802 68.7552 20.5C68.7552 21.224 69.1823 21.8282 69.776 22.125L69.25 25.875C67.5156 25.9271 66.1198 27.3386 66.1198 29.073C66.1198 29.2709 66.1354 29.4688 66.1771 29.6615L61.5521 31.3542C61.2344 30.9584 60.75 30.7188 60.2135 30.7188C59.2552 30.7188 58.4896 31.4844 58.4896 32.4271C58.4896 32.875 58.6615 33.2709 58.9427 33.5834L56.5938 37.8125C56.3542 37.7396 56.099 37.698 55.8385 37.698C54.3906 37.698 53.2188 38.8542 53.2188 40.2917C53.2188 41.7292 54.3906 42.8855 55.8385 42.8855C57.2917 42.8855 58.4583 41.7292 58.4583 40.2917L64.9531 38.9219C65.1094 39.1771 65.3073 39.3907 65.5625 39.5313L63.6563 48.5521C63.5 48.5365 63.3281 48.5209 63.1563 48.5209C61.7344 48.5209 60.4375 49.1146 59.5156 50.0573L55.9844 47.3803C56.0417 47.2084 56.0833 47.0157 56.0833 46.8282C56.0833 45.8855 55.3125 45.125 54.3594 45.125C53.4063 45.125 52.6354 45.8855 52.6354 46.8282C52.6354 47 52.6667 47.1563 52.7083 47.3073L50.474 48.8438C49.5313 47.7761 48.151 47.099 46.6146 47.099C43.7969 47.099 41.5156 49.3542 41.5156 52.1459C41.5156 52.198 41.5156 52.2553 41.5156 52.2969L37.7031 52.823C37.4896 52.1302 37.0313 51.5261 36.4479 51.1146L40.5208 42.9532C40.9479 43.0938 41.4167 43.1823 41.901 43.1823C44.25 43.1823 46.1615 41.2917 46.1615 38.9636C46.1615 36.6407 44.25 34.7657 41.901 34.7657C39.7969 34.7657 38.0417 36.2865 37.7031 38.2917L34.3438 38.1771C34.1302 37.5 33.5 37.0209 32.7604 37.0209C31.849 37.0209 31.0938 37.7553 31.0938 38.6719C31.0938 39.0105 31.1979 39.3021 31.3646 39.573L28.6771 43.0261C27.9948 42.6146 27.1927 42.3907 26.3542 42.3907C23.849 42.3907 21.8125 44.4063 21.8125 46.8855C21.8125 46.9011 21.8125 46.9271 21.8125 46.9428L18.6979 47.3542C18.3542 46.2657 17.4583 45.4063 16.3333 45.125L16.6302 41.5157C17.3698 41.3334 17.9115 40.6719 17.9115 39.8959C17.9115 39.573 17.8125 39.2605 17.6563 39.0105L24.0208 31.2552C24.2031 31.3282 24.4063 31.3542 24.6042 31.3542C25.5417 31.3542 26.2969 30.6094 26.2969 29.6771C26.2969 28.7605 25.5417 28 24.6042 28C24.5208 28 24.4323 28 24.3646 28.0157L23.3802 26.125C24.5781 25.323 25.375 23.9532 25.375 22.4063C25.375 19.9271 23.3385 17.9115 20.8333 17.9115C20.8021 17.9115 20.7865 17.9115 20.776 17.9115L20.8177 17.9532ZM35.0677 23.9011L35.8385 19.3907C35.849 19.3907 35.8802 19.3907 35.8958 19.3907C37.2031 19.3907 38.3438 18.698 38.9844 17.6719L44.25 19.8282C44.1823 20.1198 44.1354 20.4167 44.1354 20.7396C44.1354 22.8021 45.8177 24.4636 47.8958 24.4636C49.974 24.4636 51.6563 22.8021 51.6563 20.7396C51.6563 19.7396 51.2552 18.8386 50.6146 18.1615L53.0781 15.0209C53.2656 15.0886 53.4635 15.1198 53.6615 15.1198C53.9063 15.1198 54.1302 15.0782 54.3438 14.9792L57.3906 18.4323C56.6823 19.2084 56.2552 20.25 56.2552 21.375C56.2552 22.5157 56.6927 23.5469 57.4063 24.3386L53.3229 29.0157C52.8229 28.7188 52.2552 28.5521 51.625 28.5521C50.4427 28.5521 49.4219 29.1719 48.8333 30.099L44.9792 28.5782C44.9792 28.5521 44.9792 28.5209 44.9792 28.4948C44.9792 27.5625 44.224 26.8177 43.2813 26.8177C42.5313 26.8177 41.8854 27.3125 41.6719 28L38.7292 28.0834C38.4583 26.0677 36.9896 24.448 35.0521 23.9011H35.0677ZM48.2656 8.56254L52.1094 12.5677C51.9844 12.8073 51.8958 13.0886 51.8958 13.3855C51.8958 13.7396 52.0104 14.0782 52.1979 14.3594L49.7344 17.5C49.1927 17.1927 48.5521 17.0209 47.8802 17.0209C46.5156 17.0209 45.3177 17.7552 44.6667 18.823L39.3958 16.6563C39.4688 16.3855 39.4948 16.0886 39.4948 15.7969C39.4948 14.8802 39.1406 14.0469 38.5729 13.4115L42.4427 8.76046C43.2396 9.28129 44.1823 9.57817 45.2031 9.57817C46.3594 9.57817 47.4115 9.19796 48.2656 8.55212V8.56254ZM70.6042 18.7552L69.3229 14.3594C70.0625 14.0469 70.6875 13.5417 71.1615 12.9063L75.974 15.5677C75.8125 15.9636 75.7292 16.4011 75.7292 16.8542C75.7292 17.1615 75.7708 17.4584 75.8438 17.7552L71.9427 19.375C71.6146 18.9948 71.1458 18.7552 70.6042 18.7396V18.7552ZM61.8646 58.3438L61.1094 62.9688C60.1094 63.0834 59.3281 63.9271 59.3281 64.9428C59.3281 65.8698 59.9688 66.6459 60.8385 66.8698L60.9063 70.3698C60.8802 70.3803 60.8385 70.3959 60.8073 70.4115L58.3177 68.3542C58.4323 68.1146 58.4896 67.8438 58.4896 67.5625C58.4896 66.5469 57.7031 65.7188 56.7083 65.6198L56.2813 63.2761C57.7031 62.7969 58.7292 61.4584 58.7292 59.8959C58.7292 59.2448 58.5573 58.6407 58.2448 58.1198L59.625 57.0365C60.2396 57.6407 61.0104 58.1042 61.875 58.3334L61.8646 58.3438ZM17.7969 25.7448L13.9688 31.0052C13.6563 30.875 13.3125 30.7917 12.9583 30.7917C11.5625 30.7917 10.4219 31.9167 10.4219 33.3021C10.4219 34.0053 10.724 34.6511 11.2083 35.1042L7.20833 41.5573C6.70833 41.3334 6.15104 41.2188 5.56771 41.2188C5.52604 41.2188 5.5 41.2188 5.45313 41.2188L5.14063 39.3178C6.66667 38.8386 7.76042 37.4271 7.76042 35.7813C7.76042 34.0886 6.625 32.6667 5.05729 32.2136L5.28646 30.5677C5.35417 30.5677 5.42708 30.5677 5.51042 30.5677C8.54688 30.5677 11.0052 28.125 11.0052 25.125C11.0052 24.9844 11.0052 24.8594 10.9948 24.7188L16.5313 23.7605C16.776 24.5313 17.2135 25.224 17.7969 25.7605V25.7448ZM21.9583 36.7084C21.9583 34.948 23.4063 33.5105 25.1875 33.5105C26.9688 33.5105 28.4219 34.948 28.4219 36.7084C28.4219 38.474 26.9688 39.9115 25.1875 39.9115C23.4063 39.9115 21.9583 38.474 21.9583 36.7084ZM25.4167 15.2448C25.4167 14.3177 26.1719 13.5677 27.1094 13.5677C28.0521 13.5677 28.8021 14.3177 28.8021 15.2448C28.8021 16.1615 28.0521 16.9219 27.1094 16.9219C26.1823 16.9219 25.4167 16.1771 25.4167 15.2448Z" fill="white"/>
</mask>
<g mask="url(#mask1_136_88)">
<path d="M0.015625 -0.401001V73.0886H91.6198V-0.401001H0.015625Z" fill="white"/>
</g>
</g>
<path d="M114.895 50.0301L108.062 27.7384H107.874C108.124 32.2697 108.249 35.2905 108.249 36.8009V50.0301H102.874V21.6134H111.062L117.791 43.3426H117.916L125.041 21.6134H133.249V50.0301H127.624V36.5717C127.624 35.9467 127.629 35.2176 127.645 34.3842C127.671 33.5509 127.759 31.353 127.916 27.7801H127.749L120.416 50.0301H114.895Z" fill="white"/>
<path d="M161.431 50.0301L159.369 43.2592H149.015L146.952 50.0301H140.452L150.473 21.4884H157.848L167.91 50.0301H161.431ZM157.931 38.2176C156.025 32.0822 154.952 28.6134 154.702 27.8217C154.463 27.0197 154.296 26.379 154.202 25.9051C153.77 27.5613 152.541 31.6655 150.515 38.2176H157.931Z" fill="white"/>
<path d="M200.335 50.0301H192.669L180.314 28.5301H180.127C180.377 32.3217 180.502 35.0301 180.502 36.6551V50.0301H175.127V21.6134H182.731L195.064 42.9051H195.21C195.012 39.2124 194.919 36.603 194.919 35.0717V21.6134H200.335V50.0301Z" fill="white"/>
<path d="M211.117 50.0301V21.6134H217.138V50.0301H211.117Z" fill="white"/>
<path d="M233.839 50.0301H227.922V21.6134H244.214V26.5509H233.839V33.8842H243.484V38.8009H233.839V50.0301Z" fill="white"/>
<path d="M269.75 50.0301H253.396V21.6134H269.75V26.5509H259.416V32.7801H269.041V37.7176H259.416V45.0509H269.75V50.0301Z" fill="white"/>
<path d="M296.087 42.1343C296.087 44.7072 295.16 46.7332 293.316 48.2176C291.467 49.6916 288.9 50.4259 285.608 50.4259C282.577 50.4259 279.9 49.8582 277.566 48.7176V43.1134C279.483 43.9624 281.098 44.5666 282.421 44.9259C283.754 45.2749 284.967 45.4468 286.066 45.4468C287.4 45.4468 288.41 45.1968 289.108 44.6968C289.816 44.1864 290.171 43.4259 290.171 42.4259C290.171 41.8739 290.014 41.3791 289.712 40.9468C289.405 40.5197 288.947 40.103 288.337 39.6968C287.738 39.2957 286.509 38.6499 284.65 37.7593C282.91 36.9416 281.608 36.1551 280.733 35.4051C279.868 34.6551 279.181 33.7801 278.671 32.7801C278.155 31.7801 277.9 30.6134 277.9 29.2801C277.9 26.7697 278.743 24.7957 280.441 23.3634C282.15 21.9207 284.504 21.1968 287.504 21.1968C288.988 21.1968 290.4 21.3791 291.733 21.7384C293.077 22.0874 294.483 22.5718 295.941 23.1968L294.004 27.8843C292.488 27.2593 291.233 26.8322 290.233 26.5926C289.243 26.3426 288.275 26.2176 287.316 26.2176C286.176 26.2176 285.301 26.4832 284.691 27.0093C284.077 27.5405 283.775 28.2332 283.775 29.0926C283.775 29.6239 283.9 30.0874 284.15 30.4884C284.4 30.8791 284.785 31.2593 285.316 31.6343C285.858 31.9989 287.134 32.6551 289.15 33.6134C291.801 34.8947 293.618 36.1707 294.608 37.4468C295.592 38.728 296.087 40.2905 296.087 42.1343Z" fill="white"/>
<path d="M315.826 50.0301H309.805V26.6342H302.076V21.6134H323.535V26.6342H315.826V50.0301Z" fill="white"/>
<path d="M362.909 50.0301L360.846 43.2592H350.492L348.43 50.0301H341.93L351.951 21.4884H359.326L369.388 50.0301H362.909ZM359.409 38.2176C357.503 32.0822 356.43 28.6134 356.18 27.8217C355.94 27.0197 355.773 26.379 355.68 25.9051C355.247 27.5613 354.018 31.6655 351.992 38.2176H359.409Z" fill="white"/>
<path d="M376.604 50.0301V21.6134H382.625V50.0301H376.604Z" fill="white"/>
</g>
<defs>
<clipPath id="clip0_136_88">
<rect width="383" height="73" fill="white"/>
</clipPath>
</defs>
</svg>
